{"glyphs":{"0":{"ha":694,"x_min":50,"x_max":645,"o":"m 50 454 q 98 725 50 612 q 224 895 145 839 q 350 939 285 939 q 540 831 456 939 q 645 469 645 697 q 599 197 645 309 q 481 34 553 85 q 343 -16 410 -16 q 124 139 212 -16 q 50 454 50 270 m 183 437 q 230 127 183 248 q 345 26 269 26 q 421 59 382 26 q 481 170 460 92 q 512 498 512 286 q 479 761 512 656 q 416 871 455 839 q 349 894 389 894 q 267 852 303 894 q 201 675 218 796 q 183 437 183 555 z "},"1":{"ha":694,"x_min":163,"x_max":525,"o":"m 163 829 l 387 939 l 409 939 l 409 162 q 415 66 409 85 q 442 37 422 47 q 525 25 463 26 l 525 0 l 179 0 l 179 25 q 263 36 244 26 q 290 63 282 46 q 297 162 297 79 l 297 659 q 290 787 297 759 q 273 819 286 809 q 243 829 260 829 q 173 808 218 829 l 163 829 z "},"2":{"ha":694,"x_min":30,"x_max":637,"o":"m 637 177 l 572 0 l 30 0 l 30 25 q 367 382 269 243 q 465 635 465 520 q 411 779 465 722 q 283 835 357 835 q 161 795 215 835 q 81 679 107 755 l 56 679 q 143 871 73 804 q 319 939 214 939 q 506 867 431 939 q 581 697 581 795 q 548 557 581 627 q 385 325 498 448 q 174 102 216 140 l 414 102 q 517 108 488 102 q 570 130 547 113 q 612 177 594 146 l 637 177 z "},"3":{"ha":694,"x_min":56,"x_max":579,"o":"m 71 745 q 170 888 110 838 q 319 939 230 939 q 489 867 430 939 q 534 752 534 813 q 408 545 534 652 q 536 450 492 511 q 579 304 579 388 q 503 98 579 185 q 216 -16 404 -16 q 90 7 123 -16 q 56 56 56 30 q 72 91 56 76 q 111 106 88 106 q 145 100 127 106 q 197 76 157 97 q 254 50 238 54 q 307 43 279 43 q 428 96 376 43 q 479 223 479 150 q 455 328 479 277 q 416 385 437 366 q 336 434 387 412 q 233 456 286 456 l 211 456 l 211 477 q 318 515 264 484 q 397 592 372 547 q 421 690 421 637 q 377 803 421 760 q 269 846 334 846 q 93 734 163 846 l 71 745 z "},"4":{"ha":694,"x_min":22,"x_max":646,"o":"m 646 339 l 646 243 l 523 243 l 523 0 l 411 0 l 411 243 l 22 243 l 22 330 l 448 939 l 523 939 l 523 339 l 646 339 m 411 339 l 411 795 l 88 339 l 411 339 z "},"5":{"ha":694,"x_min":66,"x_max":603,"o":"m 603 920 l 550 804 l 273 804 l 213 681 q 498 547 393 654 q 588 330 588 455 q 558 196 588 258 q 484 91 529 134 q 385 21 439 47 q 224 -16 307 -16 q 104 12 142 -16 q 66 74 66 40 q 82 107 66 93 q 121 122 98 122 q 152 117 139 122 q 197 89 165 111 q 300 54 248 54 q 440 114 380 54 q 500 260 500 174 q 446 415 500 343 q 298 527 393 488 q 97 562 224 557 l 273 920 l 603 920 z "},"6":{"ha":694,"x_min":60,"x_max":641,"o":"m 623 939 l 623 913 q 476 878 533 905 q 365 796 420 851 q 273 674 309 741 q 212 513 237 606 q 408 581 310 581 q 572 505 503 581 q 641 309 641 429 q 571 99 641 194 q 349 -16 487 -16 q 189 46 254 -16 q 60 361 60 168 q 109 595 60 484 q 251 793 159 707 q 427 909 342 879 q 583 939 511 939 l 623 939 m 201 464 q 189 316 189 372 q 213 175 189 251 q 284 54 237 98 q 368 22 319 22 q 474 77 427 22 q 520 236 520 133 q 474 437 520 352 q 343 522 428 522 q 288 511 317 522 q 201 464 258 500 z "},"7":{"ha":694,"x_min":52,"x_max":633,"o":"m 140 920 l 633 920 l 633 894 l 326 -19 l 250 -19 l 525 809 l 272 809 q 163 791 195 809 q 71 694 106 760 l 52 702 l 140 920 z "},"8":{"ha":694,"x_min":84,"x_max":614,"o":"m 267 463 q 126 607 157 553 q 94 720 94 661 q 163 874 94 809 q 347 939 233 939 q 526 878 458 939 q 594 741 594 818 q 557 635 594 689 q 405 509 521 582 q 563 364 524 417 q 614 218 614 295 q 541 53 614 121 q 347 -16 467 -16 q 142 66 216 -16 q 84 210 84 132 q 125 331 84 271 q 267 463 166 391 m 373 536 q 476 651 454 609 q 498 747 498 694 q 458 859 498 819 q 349 899 418 899 q 236 859 279 899 q 193 766 193 819 q 211 695 193 730 q 262 628 229 660 l 373 536 m 298 437 q 215 334 242 390 q 188 213 188 278 q 236 73 188 125 q 357 20 283 20 q 475 62 431 20 q 519 162 519 103 q 493 250 519 211 q 298 437 445 321 z "},"9":{"ha":694,"x_min":55,"x_max":635,"o":"m 73 -19 l 73 6 q 237 47 161 7 q 384 186 313 87 q 483 404 455 285 q 290 335 376 335 q 124 410 193 335 q 55 609 55 485 q 124 824 55 730 q 342 939 208 939 q 536 845 455 939 q 635 559 635 729 q 559 273 635 406 q 350 53 484 140 q 112 -19 241 -19 l 73 -19 m 494 454 q 506 595 506 542 q 484 737 506 661 q 420 854 461 813 q 327 895 379 895 q 221 840 267 895 q 176 679 176 786 q 236 455 176 536 q 345 397 280 397 q 418 412 376 397 q 494 454 461 427 z "}," ":{"ha":347,"x_min":0,"x_max":0,"o":""}," ":{"ha":347,"x_min":0,"x_max":0,"o":""},"!":{"ha":463,"x_min":155,"x_max":308,"o":"m 244 243 l 218 243 l 159 793 q 155 846 155 829 q 177 915 155 889 q 232 941 200 941 q 286 915 264 941 q 308 838 308 889 q 305 793 308 822 l 244 243 m 231 131 q 284 109 262 131 q 306 56 306 87 q 284 3 306 25 q 231 -19 262 -19 q 177 3 199 -19 q 155 56 155 25 q 177 109 155 87 q 231 131 199 131 z "},"\"":{"ha":567,"x_min":90,"x_max":475,"o":"m 391 545 l 354 743 l 339 825 q 338 859 338 842 q 357 921 338 901 q 407 941 376 941 q 455 921 436 941 q 475 868 475 901 q 462 743 475 810 l 423 545 l 391 545 m 142 545 l 105 745 q 90 858 90 828 q 108 921 90 901 q 157 941 126 941 q 206 921 186 941 q 226 867 226 901 q 208 745 226 841 l 172 545 l 142 545 z "},"#":{"ha":694,"x_min":25,"x_max":669,"o":"m 78 -19 l 141 290 l 25 290 l 25 345 l 152 345 l 199 578 l 25 578 l 25 632 l 212 632 l 273 941 l 330 941 l 268 632 l 496 632 l 562 941 l 618 941 l 554 632 l 669 632 l 669 578 l 544 578 l 496 345 l 669 345 l 669 290 l 485 290 l 422 -19 l 367 -19 l 429 290 l 199 290 l 134 -19 l 78 -19 m 209 345 l 439 345 l 488 578 l 256 578 l 209 345 z "},"$":{"ha":694,"x_min":73,"x_max":625,"o":"m 73 227 l 103 227 q 161 84 111 134 q 313 25 212 35 l 313 421 q 110 588 161 515 q 74 713 74 640 q 136 859 74 797 q 313 935 198 922 l 313 997 l 357 997 l 357 935 q 450 922 412 931 q 581 875 470 917 l 581 672 l 554 672 q 498 830 545 780 q 357 889 451 880 l 357 545 q 576 369 528 425 q 625 228 625 312 q 554 63 625 134 q 357 -19 483 -8 l 357 -106 l 313 -106 l 313 -19 q 195 -4 250 -16 q 73 35 140 7 l 73 227 m 313 573 l 313 888 q 213 845 245 880 q 180 758 180 810 q 210 665 180 708 q 313 573 239 622 m 357 25 q 435 50 408 34 q 495 112 473 74 q 517 194 517 151 q 490 279 517 239 q 357 392 463 319 l 357 25 z "},"%":{"ha":1157,"x_min":49,"x_max":1109,"o":"m 944 941 l 274 -38 l 214 -38 l 884 941 l 944 941 m 247 941 q 389 865 338 941 q 439 690 439 789 q 382 508 439 572 q 245 444 326 444 q 147 473 192 444 q 76 561 102 503 q 49 690 49 619 q 76 822 49 762 q 150 911 103 882 q 247 941 197 941 m 245 903 q 183 862 210 903 q 157 691 157 821 q 172 547 157 597 q 208 490 183 510 q 243 477 222 477 q 298 513 275 477 q 332 687 332 565 q 299 868 332 816 q 245 903 277 903 m 913 456 q 1009 426 961 456 q 1083 337 1057 395 q 1109 209 1109 279 q 1051 25 1109 89 q 915 -38 994 -38 q 819 -7 865 -38 q 746 80 772 23 q 719 209 719 136 q 746 339 719 280 q 819 427 772 398 q 913 456 865 456 m 913 420 q 857 384 881 420 q 827 204 827 336 q 858 35 827 83 q 913 0 881 0 q 969 37 945 0 q 1002 208 1002 87 q 969 386 1002 335 q 913 420 947 420 z "},"&":{"ha":1080,"x_min":51,"x_max":1038,"o":"m 709 592 l 994 592 l 994 567 q 906 541 935 562 q 819 412 878 519 q 684 210 759 304 q 792 112 745 140 q 888 83 840 83 q 967 109 935 83 q 1013 184 1000 134 l 1038 165 q 958 24 1013 70 q 828 -21 902 -21 q 715 9 772 -21 q 590 111 658 39 q 438 8 506 37 q 294 -21 371 -21 q 117 39 182 -21 q 51 181 51 98 q 110 345 51 263 q 332 514 169 427 q 288 630 300 585 q 277 716 277 675 q 362 893 277 832 q 513 941 429 941 q 645 893 594 941 q 696 775 696 845 q 647 649 696 703 q 473 530 597 595 q 652 250 559 377 q 772 490 772 392 q 751 545 772 521 q 709 567 736 564 l 709 592 m 450 574 q 575 665 534 614 q 617 779 617 716 q 587 859 617 827 q 512 891 557 891 q 423 850 453 891 q 393 770 393 809 q 404 695 393 736 q 450 574 416 654 m 555 151 q 431 329 465 273 q 355 469 396 385 q 232 366 273 422 q 191 243 191 309 q 238 116 191 171 q 364 61 285 61 q 447 78 407 61 q 555 151 486 95 z "},"'":{"ha":250,"x_min":55,"x_max":191,"o":"m 107 545 l 71 745 q 55 858 55 829 q 73 921 55 901 q 121 941 90 941 q 171 921 151 941 q 191 868 191 901 q 174 745 191 843 l 137 545 l 107 545 z "},"(":{"ha":463,"x_min":57,"x_max":431,"o":"m 431 -272 l 431 -297 q 260 -176 329 -245 q 110 56 163 -78 q 57 333 57 189 q 161 716 57 543 q 431 964 264 890 l 431 936 q 294 810 348 890 q 214 607 241 730 q 188 351 188 484 q 210 87 188 205 q 253 -63 228 -7 q 320 -172 278 -120 q 431 -272 363 -224 z "},")":{"ha":463,"x_min":31,"x_max":406,"o":"m 31 936 l 31 964 q 203 844 134 913 q 353 612 300 745 q 406 334 406 479 q 302 -49 406 124 q 31 -297 199 -222 l 31 -272 q 169 -145 115 -225 q 249 57 222 -66 q 275 314 275 180 q 252 578 275 458 q 210 728 235 671 q 142 836 184 784 q 31 936 100 888 z "},"*":{"ha":694,"x_min":98,"x_max":597,"o":"m 335 708 q 316 801 332 755 q 293 892 293 867 q 310 946 293 928 q 351 964 326 964 q 387 946 372 964 q 403 894 403 928 q 385 809 403 863 q 363 708 367 754 q 430 766 400 732 q 498 832 476 819 q 544 845 521 845 q 582 830 566 845 q 597 793 597 814 q 574 749 597 768 q 463 709 552 729 q 376 683 410 698 q 462 655 411 665 q 569 618 544 640 q 595 569 595 595 q 579 534 595 549 q 544 519 564 519 q 499 533 524 519 q 432 597 474 547 q 363 659 404 630 q 378 575 364 621 q 403 466 403 495 q 387 420 403 439 q 352 401 370 401 q 307 421 327 401 q 292 467 292 435 q 308 545 292 499 q 328 608 323 591 q 335 659 332 625 q 265 600 295 633 q 191 530 216 545 q 154 519 173 519 q 115 534 131 519 q 98 569 98 550 q 112 605 98 586 q 154 635 126 623 q 237 657 172 644 q 319 683 279 666 q 232 711 283 701 q 129 743 149 729 q 98 798 98 766 q 114 831 98 816 q 149 846 129 846 q 197 832 172 846 q 259 775 222 818 q 335 708 296 732 z "},"+":{"ha":783,"x_min":25,"x_max":756,"o":"m 363 96 l 363 434 l 25 434 l 25 490 l 363 490 l 363 827 l 417 827 l 417 490 l 756 490 l 756 434 l 417 434 l 417 96 l 363 96 z "},",":{"ha":347,"x_min":75,"x_max":277,"o":"m 75 -231 l 75 -201 q 183 -130 144 -178 q 221 -27 221 -81 q 215 -5 221 -14 q 205 1 210 1 q 173 -13 198 1 q 147 -19 161 -19 q 94 1 114 -19 q 75 55 75 20 q 100 112 75 88 q 162 136 125 136 q 242 97 207 136 q 277 -7 277 58 q 228 -137 277 -77 q 75 -231 180 -197 z "},"-":{"ha":463,"x_min":56,"x_max":407,"o":"m 56 363 l 407 363 l 407 260 l 56 260 l 56 363 z "},"­":{"ha":463,"x_min":56,"x_max":407,"o":"m 56 363 l 407 363 l 407 260 l 56 260 l 56 363 z "},".":{"ha":347,"x_min":98,"x_max":249,"o":"m 174 132 q 227 110 205 132 q 249 56 249 87 q 227 3 249 25 q 174 -19 205 -19 q 120 3 142 -19 q 98 56 98 25 q 120 110 98 88 q 174 132 142 132 z "},"/":{"ha":386,"x_min":2,"x_max":389,"o":"m 389 964 l 56 -19 l 2 -19 l 335 964 l 389 964 z "},":":{"ha":386,"x_min":119,"x_max":271,"o":"m 196 640 q 249 618 227 640 q 271 565 271 596 q 249 512 271 534 q 196 490 227 490 q 143 512 165 490 q 121 565 121 534 q 143 618 121 596 q 196 640 165 640 m 195 132 q 249 110 227 132 q 271 56 271 87 q 248 3 271 25 q 195 -19 226 -19 q 141 3 163 -19 q 119 56 119 25 q 141 110 119 87 q 195 132 163 132 z "},";":{"ha":386,"x_min":96,"x_max":298,"o":"m 191 641 q 244 619 222 641 q 267 566 267 597 q 244 513 267 535 q 191 491 222 491 q 138 513 160 491 q 116 566 116 535 q 138 619 116 597 q 191 641 160 641 m 96 -231 l 96 -201 q 204 -130 166 -178 q 243 -27 243 -81 q 237 -5 243 -14 q 227 1 232 1 q 195 -13 220 1 q 169 -19 182 -19 q 116 1 136 -19 q 96 55 96 20 q 122 112 96 88 q 184 136 147 136 q 263 97 229 136 q 298 -7 298 58 q 250 -137 298 -77 q 96 -231 201 -197 z "},";":{"ha":386,"x_min":96,"x_max":298,"o":"m 191 641 q 244 619 222 641 q 267 566 267 597 q 244 513 267 535 q 191 491 222 491 q 138 513 160 491 q 116 566 116 535 q 138 619 116 597 q 191 641 160 641 m 96 -231 l 96 -201 q 204 -130 166 -178 q 243 -27 243 -81 q 237 -5 243 -14 q 227 1 232 1 q 195 -13 220 1 q 169 -19 182 -19 q 116 1 136 -19 q 96 55 96 20 q 122 112 96 88 q 184 136 147 136 q 263 97 229 136 q 298 -7 298 58 q 250 -137 298 -77 q 96 -231 201 -197 z "},"<":{"ha":783,"x_min":26,"x_max":756,"o":"m 26 479 l 756 795 l 756 736 l 128 463 l 756 188 l 756 127 l 26 446 l 26 479 z "},"=":{"ha":783,"x_min":25,"x_max":757,"o":"m 25 599 l 757 599 l 757 543 l 25 543 l 25 599 m 25 378 l 757 378 l 757 322 l 25 322 l 25 378 z "},">":{"ha":783,"x_min":25,"x_max":755,"o":"m 755 443 l 25 127 l 25 185 l 654 458 l 25 733 l 25 795 l 755 476 l 755 443 z "},"?":{"ha":616,"x_min":62,"x_max":561,"o":"m 308 217 l 280 217 q 301 358 285 302 q 370 514 318 414 q 423 632 411 591 q 435 715 435 673 q 390 852 435 801 q 277 903 344 903 q 184 875 218 903 q 151 814 151 847 q 171 753 151 789 q 191 697 191 716 q 176 656 191 673 q 138 640 160 640 q 86 668 109 640 q 62 746 62 696 q 128 882 62 823 q 307 941 194 941 q 512 859 446 941 q 561 727 561 800 q 539 625 561 677 q 455 503 517 573 q 335 345 357 391 q 308 217 313 298 m 298 133 q 352 111 330 133 q 374 57 374 89 q 352 4 374 26 q 298 -18 330 -18 q 245 4 267 -18 q 223 57 223 26 q 245 111 223 89 q 298 133 267 133 z "},"@":{"ha":1279,"x_min":66,"x_max":1245,"o":"m 955 650 l 876 379 q 822 186 831 227 q 812 121 812 146 q 827 85 812 100 q 863 70 842 70 q 982 119 913 70 q 1101 280 1052 169 q 1151 512 1151 391 q 1095 726 1151 628 q 937 877 1039 825 q 711 930 835 930 q 420 847 555 930 q 208 608 286 764 q 130 283 130 452 q 198 0 130 127 q 392 -193 267 -127 q 661 -258 517 -258 q 983 -163 839 -258 q 1206 117 1127 -67 l 1245 117 q 1023 -184 1184 -69 q 657 -300 863 -300 q 357 -223 496 -300 q 142 -7 219 -147 q 66 301 66 133 q 150 635 66 480 q 386 877 234 790 q 707 964 537 964 q 961 906 848 964 q 1133 737 1074 848 q 1192 500 1192 625 q 1136 254 1192 376 q 996 77 1081 132 q 817 21 910 21 q 740 45 766 21 q 713 114 713 70 q 726 214 713 152 q 565 56 625 92 q 458 20 505 20 q 373 63 410 20 q 336 178 336 106 q 400 399 336 277 q 570 597 464 521 q 709 654 648 654 q 785 630 755 654 q 826 560 815 607 l 848 635 l 955 650 m 717 622 q 614 568 666 622 q 483 356 537 490 q 443 199 443 258 q 467 129 443 156 q 521 102 491 102 q 604 132 560 102 q 694 224 647 162 q 764 349 742 286 q 802 524 802 456 q 777 595 802 569 q 717 622 752 622 z "},"A":{"ha":1003,"x_min":11,"x_max":987,"o":"m 635 308 l 279 308 l 217 163 q 194 83 194 109 q 214 46 194 62 q 300 25 234 30 l 300 0 l 11 0 l 11 25 q 85 52 68 35 q 162 184 120 84 l 486 941 l 509 941 l 829 176 q 900 56 868 83 q 987 25 931 28 l 987 0 l 625 0 l 625 25 q 699 43 680 28 q 718 81 718 59 q 691 176 718 111 l 635 308 m 616 358 l 460 730 l 300 358 l 616 358 z "},"B":{"ha":926,"x_min":23,"x_max":850,"o":"m 642 469 q 785 404 737 449 q 850 252 850 342 q 807 120 850 183 q 688 29 764 58 q 457 0 612 0 l 23 0 l 23 25 l 58 25 q 140 62 115 25 q 156 163 156 85 l 156 757 q 136 865 156 842 q 58 895 110 895 l 23 895 l 23 920 l 420 920 q 599 903 532 920 q 754 817 701 879 q 808 674 808 755 q 766 550 808 605 q 642 469 724 496 m 286 506 q 343 499 311 501 q 414 496 376 496 q 563 518 513 496 q 640 583 613 539 q 666 680 666 627 q 600 817 666 760 q 408 874 534 874 q 286 859 340 874 l 286 506 m 286 66 q 441 48 365 48 q 629 103 564 48 q 693 240 693 159 q 664 343 693 294 q 569 421 635 393 q 406 450 503 450 q 334 448 364 450 q 286 444 304 447 l 286 66 z "},"C":{"ha":926,"x_min":50,"x_max":878,"o":"m 836 941 l 857 628 l 836 628 q 716 830 794 768 q 529 892 638 892 q 363 845 437 892 q 247 697 290 799 q 205 444 205 595 q 245 228 205 319 q 365 87 285 136 q 549 39 446 39 q 707 77 638 39 q 857 229 775 115 l 878 216 q 717 36 809 93 q 498 -21 625 -21 q 144 149 269 -21 q 50 446 50 275 q 112 699 50 583 q 282 877 174 814 q 518 941 390 941 q 715 892 618 941 q 755 877 743 877 q 787 890 774 877 q 812 941 805 908 l 836 941 z "},"D":{"ha":1003,"x_min":24,"x_max":950,"o":"m 24 0 l 24 25 l 58 25 q 141 62 117 25 q 156 163 156 85 l 156 757 q 137 865 156 843 q 58 895 111 895 l 24 895 l 24 920 l 398 920 q 712 873 604 920 q 885 717 819 826 q 950 465 950 608 q 833 144 950 273 q 435 0 703 0 l 24 0 m 286 66 q 431 47 372 47 q 692 158 588 47 q 795 458 795 269 q 692 758 795 648 q 425 868 588 868 q 286 848 364 868 l 286 66 z "},"E":{"ha":848,"x_min":28,"x_max":817,"o":"m 290 869 l 290 506 l 492 506 q 597 530 571 506 q 637 640 633 561 l 662 640 l 662 319 l 637 319 q 618 406 627 387 q 578 443 606 429 q 492 456 550 456 l 290 456 l 290 153 q 296 79 290 92 q 315 58 301 66 q 366 50 328 50 l 522 50 q 635 61 600 50 q 703 104 671 72 q 789 231 745 146 l 817 231 l 737 0 l 28 0 l 28 25 l 61 25 q 123 41 94 25 q 152 73 144 52 q 160 162 160 95 l 160 760 q 142 867 160 847 q 61 895 118 895 l 28 895 l 28 920 l 737 920 l 747 718 l 721 718 q 689 818 707 791 q 638 859 672 845 q 543 869 611 869 l 290 869 z "},"F":{"ha":772,"x_min":22,"x_max":715,"o":"m 284 869 l 284 508 l 452 508 q 536 533 509 508 q 572 634 563 559 l 597 634 l 597 323 l 572 323 q 558 401 571 376 q 521 439 545 427 q 452 452 498 452 l 284 452 l 284 163 q 293 71 284 93 q 321 41 300 54 q 384 25 351 25 l 417 25 l 417 0 l 22 0 l 22 25 l 55 25 q 138 58 112 25 q 154 163 154 80 l 154 757 q 145 849 154 827 q 117 878 138 866 q 55 895 88 895 l 22 895 l 22 920 l 707 920 l 715 718 l 692 718 q 651 812 674 782 q 593 856 627 842 q 487 869 559 869 l 284 869 z "},"G":{"ha":1003,"x_min":49,"x_max":983,"o":"m 852 941 l 876 650 l 852 650 q 760 814 817 759 q 549 893 677 893 q 281 754 373 893 q 205 475 205 637 q 256 235 205 343 q 389 76 307 126 q 558 25 471 25 q 656 38 609 25 q 748 76 704 51 l 748 342 q 738 432 748 411 q 705 465 727 454 q 627 476 683 476 l 627 502 l 983 502 l 983 476 l 966 476 q 894 441 913 476 q 880 342 880 416 l 880 60 q 726 -1 802 18 q 557 -21 650 -21 q 153 150 291 -21 q 49 446 49 278 q 107 678 49 567 q 297 882 176 810 q 536 941 398 941 q 627 932 586 941 q 743 897 668 924 q 794 882 781 882 q 816 894 807 882 q 827 941 825 906 l 852 941 z "},"H":{"ha":1003,"x_min":24,"x_max":975,"o":"m 286 493 l 713 493 l 713 756 q 704 849 713 827 q 675 878 697 866 q 614 895 646 895 l 581 895 l 581 920 l 975 920 l 975 895 l 942 895 q 880 879 909 895 q 851 846 859 868 q 843 756 843 824 l 843 163 q 852 71 843 93 q 880 41 859 54 q 942 25 909 25 l 975 25 l 975 0 l 581 0 l 581 25 l 614 25 q 696 58 670 25 q 713 163 713 80 l 713 443 l 286 443 l 286 163 q 294 71 286 93 q 323 41 301 54 q 385 25 352 25 l 418 25 l 418 0 l 24 0 l 24 25 l 56 25 q 139 58 113 25 q 155 163 155 80 l 155 756 q 146 849 155 827 q 119 878 140 866 q 56 895 89 895 l 24 895 l 24 920 l 418 920 l 418 895 l 385 895 q 323 879 352 895 q 294 846 302 868 q 286 756 286 824 l 286 493 z "},"I":{"ha":463,"x_min":35,"x_max":429,"o":"m 429 25 l 429 0 l 35 0 l 35 25 l 67 25 q 150 58 124 25 q 166 163 166 80 l 166 757 q 157 849 166 827 q 130 878 151 866 q 67 895 100 895 l 35 895 l 35 920 l 429 920 l 429 895 l 395 895 q 313 861 339 895 q 296 757 296 840 l 296 163 q 305 71 296 93 q 334 41 312 54 q 395 25 363 25 l 429 25 z "},"J":{"ha":541,"x_min":28,"x_max":532,"o":"m 138 895 l 138 920 l 532 920 l 532 895 l 499 895 q 417 861 443 895 q 401 757 401 840 l 401 307 q 378 139 401 203 q 300 27 355 75 q 165 -21 244 -21 q 65 11 102 -21 q 28 83 28 42 q 45 133 28 116 q 98 154 68 154 q 137 140 119 154 q 180 64 154 125 q 220 27 196 27 q 255 50 239 27 q 271 129 271 72 l 271 757 q 262 849 271 827 q 233 878 255 866 q 172 895 204 895 l 138 895 z "},"K":{"ha":1003,"x_min":23,"x_max":1015,"o":"m 415 510 l 754 173 q 897 59 838 90 q 1015 25 956 29 l 1015 0 l 577 0 l 577 25 q 634 38 616 25 q 651 68 651 52 q 645 97 651 84 q 602 145 638 110 l 285 459 l 285 163 q 294 71 285 93 q 322 41 300 54 q 384 25 351 25 l 415 25 l 415 0 l 23 0 l 23 25 l 56 25 q 138 58 113 25 q 155 163 155 80 l 155 757 q 146 850 155 827 q 118 878 139 866 q 56 895 88 895 l 23 895 l 23 920 l 415 920 l 415 895 l 384 895 q 322 879 352 895 q 293 846 301 868 q 285 757 285 825 l 285 475 q 378 562 298 488 q 621 808 579 746 q 640 855 640 835 q 625 883 640 871 q 577 895 611 895 l 556 895 l 556 920 l 894 920 l 894 895 q 840 886 864 894 q 780 858 815 879 q 693 789 745 836 q 555 650 678 775 l 415 510 z "},"L":{"ha":848,"x_min":28,"x_max":819,"o":"m 796 254 l 819 250 l 740 0 l 28 0 l 28 25 l 62 25 q 146 63 121 25 q 160 163 160 85 l 160 757 q 141 865 160 843 q 62 895 115 895 l 28 895 l 28 920 l 444 920 l 444 895 q 341 881 371 895 q 301 845 312 867 q 290 741 290 823 l 290 163 q 301 86 290 107 q 326 65 309 72 q 432 58 343 58 l 499 58 q 648 74 605 58 q 726 129 690 90 q 796 254 761 169 z "},"M":{"ha":1235,"x_min":23,"x_max":1206,"o":"m 568 0 l 213 774 l 213 159 q 231 54 213 75 q 311 25 256 25 l 343 25 l 343 0 l 23 0 l 23 25 l 56 25 q 138 60 114 25 q 153 159 153 82 l 153 760 q 140 848 153 821 q 105 881 130 868 q 23 895 79 895 l 23 920 l 283 920 l 617 200 l 945 920 l 1206 920 l 1206 895 l 1174 895 q 1090 859 1115 895 q 1076 760 1076 838 l 1076 159 q 1095 54 1076 75 q 1174 25 1120 25 l 1206 25 l 1206 0 l 815 0 l 815 25 l 848 25 q 930 60 907 25 q 945 159 945 82 l 945 774 l 591 0 l 568 0 z "},"N":{"ha":1003,"x_min":-18,"x_max":983,"o":"m -18 920 l 231 920 l 793 230 l 793 760 q 774 866 793 845 q 695 895 749 895 l 663 895 l 663 920 l 983 920 l 983 895 l 951 895 q 868 859 892 895 q 853 760 853 838 l 853 -15 l 829 -15 l 222 726 l 222 159 q 241 54 222 75 q 320 25 267 25 l 353 25 l 353 0 l 33 0 l 33 25 l 64 25 q 148 60 123 25 q 163 159 163 82 l 163 799 q 102 861 123 846 q 41 888 81 876 q -18 895 22 895 l -18 920 z "},"O":{"ha":1003,"x_min":49,"x_max":949,"o":"m 508 941 q 818 805 687 941 q 949 465 949 669 q 817 117 949 256 q 497 -21 685 -21 q 178 114 307 -21 q 49 463 49 249 q 198 821 49 682 q 508 941 328 941 m 495 891 q 297 800 372 891 q 204 466 204 686 q 300 119 204 241 q 496 27 374 27 q 710 128 625 27 q 794 447 794 229 q 701 799 794 683 q 495 891 627 891 z "},"P":{"ha":772,"x_min":23,"x_max":724,"o":"m 285 431 l 285 163 q 304 55 285 76 q 382 25 330 25 l 417 25 l 417 0 l 23 0 l 23 25 l 58 25 q 141 63 116 25 q 155 163 155 84 l 155 757 q 136 865 155 844 q 58 895 110 895 l 23 895 l 23 920 l 360 920 q 555 894 484 920 q 675 808 626 869 q 724 665 724 748 q 649 482 724 553 q 439 412 575 412 q 368 416 406 412 q 285 431 329 421 m 285 469 q 349 459 321 463 q 396 456 376 456 q 518 510 467 456 q 569 652 569 565 q 545 763 569 711 q 475 839 520 814 q 374 865 431 865 q 285 852 339 865 l 285 469 z "},"Q":{"ha":1003,"x_min":49,"x_max":950,"o":"m 612 -10 q 761 -186 681 -130 q 944 -250 842 -242 l 944 -272 q 744 -234 850 -269 q 542 -139 637 -200 q 378 -10 447 -79 q 223 73 280 29 q 95 235 140 139 q 49 462 49 331 q 182 804 49 668 q 506 941 316 941 q 818 804 686 941 q 950 459 950 667 q 856 163 950 290 q 612 -10 762 35 m 498 888 q 299 800 374 888 q 204 462 204 690 q 300 118 204 239 q 498 25 375 25 q 703 118 625 25 q 795 442 795 228 q 745 720 795 607 q 642 847 706 806 q 498 888 578 888 z "},"R":{"ha":926,"x_min":24,"x_max":939,"o":"m 939 0 l 693 0 l 382 430 q 326 429 347 429 q 307 429 317 429 q 286 430 296 429 l 286 163 q 304 55 286 76 q 382 25 330 25 l 418 25 l 418 0 l 24 0 l 24 25 l 58 25 q 142 63 117 25 q 156 163 156 84 l 156 757 q 137 865 156 844 q 58 895 111 895 l 24 895 l 24 920 l 359 920 q 575 898 505 920 q 693 820 644 877 q 741 683 741 762 q 686 536 741 598 q 515 448 631 473 l 705 184 q 817 63 770 93 q 939 25 863 33 l 939 0 m 286 473 q 308 472 298 473 q 323 472 317 472 q 522 529 455 472 q 589 674 589 586 q 535 814 589 760 q 392 868 481 868 q 286 855 353 868 l 286 473 z "},"S":{"ha":772,"x_min":87,"x_max":698,"o":"m 637 941 l 637 623 l 612 623 q 568 768 600 714 q 478 854 536 823 q 357 886 420 886 q 241 843 287 886 q 195 745 195 800 q 224 669 195 703 q 424 533 266 618 q 600 427 553 464 q 672 340 647 390 q 698 235 698 290 q 617 55 698 130 q 408 -21 536 -21 q 333 -15 368 -21 q 246 10 312 -12 q 162 31 180 31 q 135 21 145 31 q 121 -21 125 11 l 96 -21 l 96 294 l 121 294 q 168 146 138 195 q 259 64 198 97 q 394 32 321 32 q 528 77 479 32 q 577 182 577 121 q 558 251 577 216 q 500 315 540 286 q 356 402 474 336 q 188 507 238 468 q 113 594 138 547 q 87 699 87 642 q 163 869 87 798 q 356 941 239 941 q 511 905 429 941 q 565 888 549 888 q 594 898 583 888 q 612 941 605 909 l 637 941 z "},"T":{"ha":848,"x_min":42,"x_max":814,"o":"m 804 920 l 814 704 l 788 704 q 768 785 781 761 q 712 843 747 825 q 620 862 677 862 l 490 862 l 490 159 q 509 54 490 75 q 588 25 534 25 l 620 25 l 620 0 l 230 0 l 230 25 l 262 25 q 345 60 321 25 q 360 159 360 82 l 360 862 l 250 862 q 158 852 185 862 q 98 803 123 840 q 68 704 73 766 l 42 704 l 53 920 l 804 920 z "},"U":{"ha":1003,"x_min":7,"x_max":988,"o":"m 663 895 l 663 920 l 988 920 l 988 895 l 954 895 q 870 849 899 895 q 856 751 856 828 l 856 378 q 828 164 856 240 q 721 33 801 87 q 502 -22 640 -22 q 273 31 351 -22 q 163 171 195 83 q 141 397 141 231 l 141 757 q 118 868 141 842 q 42 895 94 895 l 7 895 l 7 920 l 405 920 l 405 895 l 370 895 q 288 859 313 895 q 271 757 271 834 l 271 356 q 281 233 271 302 q 317 125 291 164 q 391 62 342 87 q 510 37 439 37 q 671 76 600 37 q 769 177 743 115 q 795 385 795 238 l 795 757 q 776 865 795 843 q 697 895 749 895 l 663 895 z "},"V":{"ha":1003,"x_min":12,"x_max":986,"o":"m 986 920 l 986 895 q 912 863 937 886 q 848 762 876 830 l 528 -21 l 503 -21 l 158 772 q 121 846 132 833 q 79 879 104 867 q 12 895 54 891 l 12 920 l 388 920 l 388 895 q 305 873 324 888 q 286 833 286 857 q 317 727 286 799 l 551 188 l 768 720 q 800 829 800 799 q 781 867 800 849 q 714 892 761 885 q 703 895 711 893 l 703 920 l 986 920 z "},"W":{"ha":1311,"x_min":18,"x_max":1300,"o":"m 1300 920 l 1300 895 q 1242 882 1264 895 q 1199 833 1219 869 q 1156 720 1185 810 l 900 -21 l 873 -21 l 663 567 l 455 -21 l 431 -21 l 157 743 q 119 844 127 828 q 82 882 105 869 q 18 895 58 895 l 18 920 l 359 920 l 359 895 l 342 895 q 288 878 307 895 q 269 839 269 862 q 298 730 269 815 l 479 214 l 632 652 l 605 730 l 583 791 q 551 851 569 825 q 530 873 543 864 q 496 890 513 885 q 455 895 483 895 l 455 920 l 813 920 l 813 895 l 789 895 q 733 878 751 895 q 715 834 715 862 q 746 713 715 800 l 922 214 l 1097 720 q 1127 837 1127 804 q 1117 866 1127 852 q 1093 885 1107 880 q 1025 895 1067 895 l 1025 920 l 1300 920 z "},"X":{"ha":1003,"x_min":10,"x_max":987,"o":"m 567 509 l 764 215 q 886 61 846 93 q 987 25 926 28 l 987 0 l 592 0 l 592 25 q 650 33 631 26 q 674 52 665 39 q 683 77 683 64 q 677 109 683 93 q 640 168 672 120 l 484 404 l 291 157 q 254 105 260 118 q 248 77 248 92 q 267 41 248 56 q 336 25 285 27 l 336 0 l 10 0 l 10 25 q 70 39 45 28 q 150 87 112 57 q 237 178 188 117 l 454 452 l 273 718 q 147 859 199 825 q 28 895 96 892 l 28 920 l 454 920 l 454 895 q 379 877 399 892 q 359 842 359 861 q 392 769 359 817 l 533 558 l 696 765 q 731 815 725 802 q 738 843 738 829 q 730 868 738 857 q 704 888 720 882 q 640 895 688 894 l 640 920 l 966 920 l 966 895 q 903 882 927 892 q 836 840 866 867 q 749 743 805 814 l 567 509 z "},"Y":{"ha":1003,"x_min":13,"x_max":983,"o":"m 662 920 l 983 920 l 983 895 l 965 895 q 913 879 947 895 q 852 834 880 863 q 783 739 824 805 l 562 390 l 562 159 q 581 54 562 75 q 662 25 606 25 l 692 25 l 692 0 l 301 0 l 301 25 l 334 25 q 416 60 392 25 q 431 159 431 82 l 431 377 l 179 762 q 118 847 134 830 q 52 888 102 864 q 13 895 39 895 l 13 920 l 406 920 l 406 895 l 386 895 q 327 880 354 895 q 300 835 300 865 q 342 747 300 810 l 534 450 l 714 734 q 755 829 755 798 q 745 863 755 848 q 717 886 735 878 q 662 895 699 895 l 662 920 z "},"Z":{"ha":848,"x_min":18,"x_max":810,"o":"m 799 920 l 195 56 l 572 56 q 705 94 659 56 q 787 248 751 132 l 810 243 l 766 0 l 18 0 l 18 25 l 608 865 l 313 865 q 207 849 240 865 q 157 803 174 833 q 125 690 140 772 l 100 690 l 119 920 l 799 920 z "},"[":{"ha":463,"x_min":114,"x_max":412,"o":"m 412 -275 l 114 -275 l 114 941 l 412 941 l 412 887 l 216 887 l 216 -222 l 412 -222 l 412 -275 z "},"\\":{"ha":386,"x_min":2,"x_max":389,"o":"m 56 964 l 389 -19 l 334 -19 l 2 964 l 56 964 z "},"]":{"ha":463,"x_min":51,"x_max":349,"o":"m 51 941 l 349 941 l 349 -276 l 51 -276 l 51 -222 l 248 -222 l 248 887 l 51 887 l 51 941 z "},"^":{"ha":652,"x_min":25,"x_max":626,"o":"m 338 939 l 626 452 l 564 452 l 326 850 l 89 452 l 25 452 l 317 939 l 338 939 z "},"_":{"ha":694,"x_min":-12,"x_max":707,"o":"m 707 -300 l -12 -300 l -12 -243 l 707 -243 l 707 -300 z "},"`":{"ha":463,"x_min":80,"x_max":303,"o":"m 80 943 l 231 943 l 303 709 l 279 709 l 80 943 z "},"a":{"ha":616,"x_min":50,"x_max":614,"o":"m 395 90 q 275 4 300 16 q 197 -13 239 -13 q 91 31 133 -13 q 50 147 50 75 q 70 226 50 193 q 166 313 98 272 q 395 412 235 353 l 395 436 q 366 564 395 529 q 280 598 336 598 q 212 575 237 598 q 186 522 186 552 l 188 483 q 172 435 188 452 q 130 418 156 418 q 89 435 105 418 q 73 484 73 453 q 133 591 73 542 q 300 640 193 640 q 436 612 383 640 q 495 546 476 591 q 507 427 507 517 l 507 216 q 511 107 507 127 q 522 80 514 87 q 540 73 530 73 q 559 78 551 73 q 614 127 573 87 l 614 90 q 469 -12 538 -12 q 416 11 435 -12 q 395 90 396 34 m 395 134 l 395 370 q 263 313 293 330 q 186 250 210 283 q 163 179 163 218 q 193 98 163 130 q 260 66 222 66 q 395 134 311 66 z "},"b":{"ha":694,"x_min":-3,"x_max":646,"o":"m 214 514 q 408 640 304 640 q 575 558 504 640 q 646 334 646 476 q 536 68 646 169 q 326 -19 442 -19 q 216 1 272 -19 q 102 60 160 20 l 102 703 q 97 833 102 809 q 81 867 92 858 q 54 876 70 876 q 6 865 35 876 l -3 888 l 183 964 l 214 964 l 214 514 m 214 471 l 214 99 q 285 48 248 65 q 361 31 322 31 q 476 98 422 31 q 529 296 529 166 q 476 479 529 415 q 355 543 422 543 q 283 525 319 543 q 214 471 256 511 z "},"c":{"ha":616,"x_min":47,"x_max":571,"o":"m 571 236 q 473 47 546 113 q 311 -19 399 -19 q 126 70 205 -19 q 47 310 47 159 q 135 548 47 456 q 344 640 222 640 q 494 591 435 640 q 553 490 553 543 q 537 449 553 465 q 490 433 520 433 q 430 458 450 433 q 415 513 418 473 q 387 574 411 553 q 321 594 363 594 q 212 544 254 594 q 157 368 157 477 q 212 172 157 257 q 359 87 267 87 q 479 132 426 87 q 551 245 516 163 l 571 236 z "},"d":{"ha":694,"x_min":46,"x_max":698,"o":"m 482 70 q 393 2 437 22 q 300 -19 350 -19 q 122 66 198 -19 q 46 285 46 151 q 130 529 46 418 q 347 640 214 640 q 482 588 429 640 l 482 703 q 477 833 482 809 q 461 867 472 858 q 434 876 450 876 q 387 865 416 876 l 378 888 l 564 964 l 594 964 l 594 246 q 599 113 594 137 q 615 79 604 89 q 642 70 627 70 q 690 81 660 70 l 698 58 l 513 -19 l 482 -19 l 482 70 m 482 117 l 482 437 q 458 522 478 484 q 404 579 437 559 q 338 598 370 598 q 232 545 279 598 q 170 338 170 474 q 230 129 170 201 q 363 56 290 56 q 482 117 425 56 z "},"e":{"ha":616,"x_min":52,"x_max":577,"o":"m 148 387 q 215 170 147 249 q 374 92 283 92 q 480 125 435 92 q 556 240 526 159 l 577 227 q 494 57 563 134 q 323 -19 426 -19 q 131 68 211 -19 q 52 302 52 155 q 133 551 52 462 q 338 640 215 640 q 510 571 443 640 q 577 387 577 503 l 148 387 m 148 427 l 435 427 q 421 511 432 486 q 371 570 404 549 q 300 592 337 592 q 200 548 244 592 q 148 427 155 505 z "},"f":{"ha":463,"x_min":54,"x_max":604,"o":"m 286 572 l 286 164 q 305 54 286 77 q 372 24 330 24 l 429 24 l 429 0 l 58 0 l 58 24 l 85 24 q 135 38 113 24 q 166 75 157 52 q 174 164 174 98 l 174 572 l 54 572 l 54 621 l 174 621 l 174 662 q 204 819 174 755 q 295 923 234 884 q 433 963 357 963 q 564 917 505 963 q 604 848 604 886 q 586 810 604 828 q 548 792 568 792 q 515 803 532 792 q 473 851 498 814 q 427 901 448 888 q 380 914 406 914 q 327 898 349 914 q 296 846 305 881 q 286 666 286 811 l 286 621 l 446 621 l 446 572 l 286 572 z "},"g":{"ha":694,"x_min":41,"x_max":669,"o":"m 210 227 q 122 304 153 254 q 92 414 92 354 q 161 573 92 507 q 339 640 231 640 q 493 596 428 640 l 625 596 q 659 594 654 596 q 665 589 663 593 q 669 567 669 583 q 666 543 669 549 q 659 537 664 539 q 625 535 654 535 l 544 535 q 582 410 582 486 q 515 262 582 323 q 337 200 449 200 q 243 214 291 200 q 202 169 213 188 q 192 136 192 149 q 203 113 192 124 q 247 98 214 102 q 342 93 266 95 q 523 83 481 90 q 624 37 586 75 q 661 -57 661 -1 q 589 -201 661 -134 q 313 -300 484 -300 q 92 -241 182 -300 q 41 -170 41 -207 q 49 -138 41 -154 q 96 -68 60 -113 q 165 5 101 -62 q 116 43 130 26 q 101 81 101 60 q 120 136 101 104 q 210 227 140 168 m 328 607 q 243 567 277 607 q 210 444 210 527 q 256 278 210 337 q 345 233 291 233 q 430 272 397 233 q 463 393 463 311 q 416 562 463 501 q 328 607 382 607 m 203 0 q 155 -64 171 -35 q 138 -119 138 -94 q 178 -176 138 -152 q 374 -218 245 -218 q 554 -175 496 -218 q 612 -83 612 -132 q 577 -33 612 -48 q 437 -16 542 -18 q 203 0 285 -12 z "},"h":{"ha":694,"x_min":9,"x_max":686,"o":"m 226 964 l 226 510 q 345 616 301 593 q 433 640 389 640 q 524 610 486 640 q 581 519 562 581 q 593 360 593 475 l 593 140 q 603 60 593 81 q 626 34 610 43 q 686 24 642 24 l 686 0 l 380 0 l 380 24 l 395 24 q 455 38 438 24 q 479 77 472 51 q 481 140 481 87 l 481 360 q 470 494 481 462 q 437 542 460 526 q 381 557 414 557 q 312 540 348 557 q 226 469 276 522 l 226 140 q 233 61 226 77 q 259 35 240 45 q 326 24 279 24 l 326 0 l 18 0 l 18 24 q 83 37 60 24 q 105 63 97 44 q 113 140 113 82 l 113 703 q 108 833 113 809 q 93 867 103 858 q 64 876 82 876 q 18 865 50 876 l 9 888 l 195 964 l 226 964 z "},"i":{"ha":386,"x_min":41,"x_max":352,"o":"m 201 964 q 250 944 230 964 q 270 896 270 924 q 250 847 270 867 q 201 827 230 827 q 153 847 173 827 q 132 896 132 867 q 152 944 132 924 q 201 964 172 964 m 258 640 l 258 140 q 266 63 258 82 q 291 34 275 43 q 352 24 308 24 l 352 0 l 50 0 l 50 24 q 111 33 96 24 q 136 62 127 42 q 145 140 145 83 l 145 380 q 139 511 145 481 q 124 541 134 532 q 96 549 114 549 q 50 539 77 549 l 41 564 l 228 640 l 258 640 z "},"j":{"ha":386,"x_min":-106,"x_max":271,"o":"m 201 965 q 250 945 230 965 q 271 895 271 924 q 250 846 271 867 q 201 826 230 826 q 152 846 172 826 q 132 895 132 867 q 152 945 132 924 q 201 965 172 965 m 259 640 l 259 14 q 191 -222 259 -145 q 15 -300 123 -300 q -77 -277 -47 -300 q -106 -231 -106 -255 q -90 -191 -106 -208 q -51 -174 -73 -174 q -15 -182 -33 -174 q 30 -217 -3 -187 q 85 -246 62 -246 q 117 -234 101 -246 q 140 -192 132 -221 q 147 -64 147 -162 l 147 378 q 141 510 147 481 q 126 541 136 532 q 98 549 116 549 q 52 539 79 549 l 43 564 l 230 640 l 259 640 z "},"k":{"ha":694,"x_min":12,"x_max":703,"o":"m 227 964 l 227 346 l 385 490 q 444 549 435 536 q 449 565 449 557 q 438 588 449 578 q 401 600 427 598 l 401 621 l 671 621 l 671 600 q 578 583 615 598 q 497 527 541 567 l 338 380 l 497 178 q 587 73 564 95 q 644 31 619 41 q 703 24 661 24 l 703 0 l 401 0 l 401 24 q 436 32 427 25 q 445 52 445 39 q 418 102 445 68 l 227 346 l 227 140 q 236 60 227 79 q 260 33 244 41 q 328 24 275 25 l 328 0 l 12 0 l 12 24 q 83 36 59 24 q 104 59 97 43 q 115 136 115 81 l 115 702 q 110 834 115 810 q 94 867 105 858 q 66 876 83 876 q 23 865 52 876 l 12 888 l 196 964 l 227 964 z "},"l":{"ha":386,"x_min":41,"x_max":357,"o":"m 257 964 l 257 140 q 266 63 257 82 q 292 34 274 44 q 357 24 309 24 l 357 0 l 53 0 l 53 24 q 111 33 96 24 q 136 62 127 42 q 144 140 144 83 l 144 705 q 140 834 144 810 q 124 867 135 858 q 98 876 114 876 q 53 865 80 876 l 41 888 l 227 964 l 257 964 z "},"m":{"ha":1080,"x_min":12,"x_max":1074,"o":"m 228 507 q 308 585 296 575 q 374 625 338 611 q 444 640 409 640 q 544 606 502 640 q 600 507 586 572 q 718 614 670 589 q 817 640 766 640 q 905 614 867 640 q 966 531 943 589 q 981 408 981 492 l 981 140 q 989 60 981 82 q 1015 35 996 45 q 1074 24 1033 24 l 1074 0 l 768 0 l 768 24 l 781 24 q 843 40 821 24 q 865 75 859 51 q 868 140 868 86 l 868 408 q 850 515 868 484 q 765 558 823 558 q 693 540 729 558 q 605 473 656 522 l 604 466 l 605 437 l 605 140 q 612 61 605 77 q 639 35 619 45 q 706 24 659 24 l 706 0 l 392 0 l 392 24 q 463 37 444 24 q 490 73 482 49 q 493 140 493 85 l 493 408 q 471 517 493 484 q 387 560 441 560 q 315 541 351 560 q 228 473 258 511 l 228 140 q 236 61 228 79 q 261 34 245 43 q 329 24 278 24 l 329 0 l 22 0 l 22 24 q 81 34 64 24 q 107 63 98 43 q 116 140 116 83 l 116 378 q 110 510 116 480 q 95 541 105 532 q 67 549 85 549 q 22 539 48 549 l 12 564 l 199 640 l 228 640 l 228 507 z "},"n":{"ha":694,"x_min":8,"x_max":688,"o":"m 224 508 q 433 640 334 640 q 520 614 484 640 q 578 530 557 589 q 593 406 593 490 l 593 140 q 603 60 593 81 q 627 34 610 43 q 688 24 644 24 l 688 0 l 381 0 l 381 24 l 394 24 q 455 38 437 24 q 479 77 472 51 q 481 140 481 87 l 481 395 q 459 518 481 479 q 385 556 437 556 q 224 468 304 556 l 224 140 q 232 62 224 77 q 258 34 241 43 q 326 24 275 24 l 326 0 l 18 0 l 18 24 l 32 24 q 96 48 79 24 q 113 140 113 73 l 113 371 q 107 507 113 483 q 92 541 102 532 q 64 549 81 549 q 18 539 45 549 l 8 564 l 195 640 l 224 640 l 224 508 z "},"o":{"ha":694,"x_min":47,"x_max":646,"o":"m 347 640 q 574 532 488 640 q 646 322 646 441 q 606 153 646 239 q 496 24 566 68 q 340 -19 426 -19 q 117 93 199 -19 q 47 304 47 187 q 89 474 47 390 q 201 599 132 559 q 347 640 270 640 m 326 595 q 254 574 290 595 q 195 499 218 553 q 173 361 173 446 q 227 127 173 226 q 369 29 281 29 q 477 83 435 29 q 520 270 520 138 q 449 530 520 435 q 326 595 401 595 z "},"p":{"ha":694,"x_min":-5,"x_max":647,"o":"m -1 559 l 190 637 l 216 637 l 216 492 q 312 607 264 574 q 414 640 361 640 q 570 566 508 640 q 647 333 647 477 q 555 67 647 172 q 363 -19 479 -19 q 277 -5 313 -19 q 216 36 250 5 l 216 -153 q 223 -234 216 -217 q 251 -262 231 -252 q 321 -272 270 -272 l 321 -297 l -5 -297 l -5 -272 l 12 -272 q 76 -258 50 -273 q 96 -234 89 -250 q 103 -149 103 -217 l 103 438 q 98 515 103 498 q 80 539 92 531 q 48 547 68 547 q 7 538 32 547 l -1 559 m 216 452 l 216 220 q 222 121 216 144 q 268 52 231 81 q 361 22 305 22 q 471 75 429 22 q 526 269 526 144 q 464 488 526 412 q 361 541 420 541 q 296 525 328 541 q 216 452 272 513 z "},"q":{"ha":694,"x_min":46,"x_max":694,"o":"m 593 640 l 593 -159 q 602 -236 593 -219 q 627 -262 610 -253 q 694 -272 644 -272 l 694 -297 l 381 -297 l 381 -272 l 394 -272 q 452 -261 432 -272 q 473 -234 465 -254 q 481 -159 481 -215 l 481 108 q 374 8 420 35 q 278 -19 328 -19 q 117 63 188 -19 q 46 283 46 145 q 140 540 46 441 q 366 640 233 640 q 437 629 404 640 q 495 596 469 618 q 570 640 534 615 l 593 640 m 481 151 l 481 442 q 468 522 481 493 q 421 572 455 551 q 345 592 387 592 q 214 528 269 592 q 160 332 160 463 q 215 142 160 207 q 349 77 271 77 q 420 94 389 77 q 481 151 451 111 z "},"r":{"ha":463,"x_min":9,"x_max":471,"o":"m 225 640 l 225 500 q 385 640 303 640 q 447 617 422 640 q 471 564 471 594 q 454 519 471 538 q 412 501 436 501 q 358 525 388 501 q 315 548 329 548 q 288 534 302 548 q 225 443 258 507 l 225 145 q 238 67 225 94 q 269 37 247 49 q 334 24 292 24 l 334 0 l 16 0 l 16 24 q 86 39 63 24 q 110 74 103 50 q 113 140 113 85 l 113 380 q 109 510 113 489 q 93 540 104 530 q 63 549 81 549 q 16 539 42 549 l 9 564 l 197 640 l 225 640 z "},"s":{"ha":541,"x_min":68,"x_max":492,"o":"m 445 640 l 445 428 l 422 428 q 356 564 397 528 q 254 600 316 600 q 177 574 206 600 q 148 519 148 549 q 170 454 148 481 q 255 395 191 426 l 354 347 q 492 170 492 279 q 428 33 492 85 q 284 -19 363 -19 q 154 1 227 -19 q 117 8 132 8 q 93 -9 102 8 l 71 -9 l 71 212 l 93 212 q 165 69 112 117 q 286 21 219 21 q 362 48 332 21 q 391 115 391 76 q 358 193 391 161 q 227 274 326 225 q 98 362 129 323 q 68 460 68 401 q 120 588 68 536 q 256 640 173 640 q 345 624 293 640 q 391 614 380 614 q 408 618 402 614 q 422 640 414 623 l 445 640 z "},"t":{"ha":386,"x_min":14,"x_max":388,"o":"m 224 825 l 224 621 l 369 621 l 369 574 l 224 574 l 224 171 q 241 90 224 111 q 286 68 258 68 q 329 82 308 68 q 361 123 350 96 l 388 123 q 321 23 364 57 q 231 -10 277 -10 q 170 7 200 -10 q 126 57 140 24 q 112 156 112 89 l 112 574 l 14 574 l 14 596 q 90 647 51 611 q 159 731 129 682 q 203 825 175 757 l 224 825 z "},"u":{"ha":694,"x_min":1,"x_max":692,"o":"m 588 621 l 588 245 q 593 113 588 137 q 609 79 598 89 q 635 70 621 70 q 683 81 656 70 l 692 58 l 507 -19 l 476 -19 l 476 113 q 354 3 396 26 q 265 -19 312 -19 q 175 11 213 -19 q 121 89 136 41 q 106 223 106 136 l 106 500 q 97 562 106 545 q 69 588 87 578 q 1 596 50 597 l 1 621 l 219 621 l 219 205 q 249 92 219 119 q 322 64 279 64 q 388 83 351 64 q 476 153 425 101 l 476 505 q 457 576 476 557 q 376 596 437 595 l 376 621 l 588 621 z "},"v":{"ha":694,"x_min":12,"x_max":682,"o":"m 12 621 l 304 621 l 304 596 l 285 596 q 244 583 258 596 q 231 549 231 570 q 245 492 231 525 l 389 149 l 534 505 q 550 563 550 543 q 545 578 550 572 q 526 592 537 589 q 479 596 514 596 l 479 621 l 682 621 l 682 596 q 633 582 646 593 q 590 514 609 562 l 370 -19 l 342 -19 l 120 505 q 92 558 105 542 q 57 585 78 574 q 12 596 45 591 l 12 621 z "},"w":{"ha":1003,"x_min":9,"x_max":990,"o":"m 9 621 l 269 621 l 269 596 q 222 583 233 593 q 211 554 211 573 q 222 503 211 533 l 355 146 l 489 437 l 454 528 q 411 585 437 569 q 355 596 396 594 l 355 621 l 651 621 l 651 596 q 582 578 602 594 q 568 544 568 568 q 574 516 568 530 l 715 159 l 846 503 q 859 562 859 540 q 846 585 859 574 q 794 596 833 595 l 794 621 l 990 621 l 990 596 q 903 516 931 587 l 696 -19 l 668 -19 l 513 378 l 332 -19 l 307 -19 l 107 503 q 68 570 87 553 q 9 596 50 587 l 9 621 z "},"x":{"ha":694,"x_min":18,"x_max":677,"o":"m 18 621 l 311 621 l 311 596 q 272 587 283 596 q 260 562 260 577 q 284 511 260 545 q 307 477 292 500 l 351 407 l 401 477 q 450 562 450 545 q 439 586 450 576 q 401 596 427 596 l 401 621 l 612 621 l 612 596 q 554 578 578 594 q 463 477 521 555 l 378 364 l 533 142 q 614 43 590 60 q 677 24 639 26 l 677 0 l 385 0 l 385 24 q 432 38 415 24 q 445 63 445 47 q 401 142 445 79 l 311 275 l 211 142 q 165 68 165 80 q 180 39 165 52 q 226 24 195 26 l 226 0 l 23 0 l 23 24 q 66 41 47 28 q 153 142 92 61 l 283 315 l 165 486 q 87 577 115 559 q 18 596 60 596 l 18 621 z "},"y":{"ha":694,"x_min":8,"x_max":686,"o":"m 8 621 l 298 621 l 298 596 l 283 596 q 238 583 253 596 q 222 550 222 570 q 245 477 222 524 l 396 163 l 535 507 q 547 562 547 534 q 542 580 547 574 q 525 592 536 587 q 484 596 513 596 l 484 621 l 686 621 l 686 596 q 648 585 661 593 q 618 555 634 577 q 595 503 612 545 l 342 -117 q 246 -254 305 -208 q 132 -300 186 -300 q 66 -277 92 -300 q 40 -224 40 -254 q 59 -178 40 -195 q 110 -161 77 -161 q 171 -176 132 -161 q 205 -186 198 -186 q 249 -165 225 -186 q 298 -83 273 -144 l 342 24 l 119 493 q 86 545 109 514 q 58 577 69 569 q 8 596 43 588 l 8 621 z "},"z":{"ha":616,"x_min":28,"x_max":594,"o":"m 583 191 l 576 0 l 28 0 l 28 24 l 440 574 l 237 574 q 151 565 171 574 q 117 533 130 557 q 96 449 99 499 l 69 449 l 73 621 l 594 621 l 594 596 l 178 45 l 404 45 q 501 57 475 45 q 542 99 526 69 q 560 191 553 121 l 583 191 z "},"{":{"ha":667,"x_min":192,"x_max":570,"o":"m 570 -276 l 570 -300 q 386 -208 457 -284 q 315 -39 315 -132 q 331 75 315 10 q 347 176 347 140 q 306 267 347 224 q 192 319 264 309 l 192 347 q 306 398 264 356 q 347 490 347 440 q 331 590 347 526 q 315 704 315 654 q 386 873 315 796 q 570 964 457 949 l 570 941 q 454 879 491 922 q 417 784 417 836 q 432 679 417 744 q 448 567 448 613 q 397 434 448 498 q 248 334 347 370 q 396 233 345 298 q 448 98 448 167 q 432 -13 448 52 q 417 -119 417 -79 q 454 -213 417 -170 q 570 -276 491 -256 z "},"|":{"ha":278,"x_min":109,"x_max":165,"o":"m 165 964 l 165 -300 l 109 -300 l 109 964 l 165 964 z "},"}":{"ha":667,"x_min":120,"x_max":498,"o":"m 120 941 l 120 964 q 304 873 233 949 q 375 703 375 797 q 359 590 375 654 q 344 490 344 526 q 385 398 344 441 q 498 347 426 356 l 498 319 q 385 267 426 309 q 344 176 344 224 q 359 75 344 140 q 375 -39 375 10 q 304 -208 375 -131 q 120 -300 233 -284 l 120 -276 q 236 -214 199 -256 q 273 -119 273 -171 q 258 -13 273 -79 q 242 98 242 52 q 293 231 242 167 q 443 331 343 296 q 294 433 345 367 q 242 567 242 498 q 258 679 242 613 q 273 784 273 744 q 236 879 273 836 q 120 941 199 922 z "},"~":{"ha":751,"x_min":30,"x_max":753,"o":"m 723 458 l 753 458 q 703 320 751 370 q 587 270 656 270 q 520 280 556 270 q 334 352 484 291 q 186 395 230 395 q 106 366 138 395 q 60 271 73 337 l 30 271 q 80 411 34 363 q 189 460 126 460 q 250 450 218 460 q 435 381 320 430 q 597 332 550 332 q 682 364 648 332 q 723 458 717 397 z "},"Ä":{"ha":1003,"x_min":11,"x_max":987,"o":"m 635 308 l 279 308 l 217 163 q 194 83 194 109 q 214 46 194 62 q 300 25 234 30 l 300 0 l 11 0 l 11 25 q 85 52 68 35 q 162 184 120 84 l 486 941 l 509 941 l 829 176 q 900 56 868 83 q 987 25 931 28 l 987 0 l 625 0 l 625 25 q 699 43 680 28 q 718 81 718 59 q 691 176 718 111 l 635 308 m 616 358 l 460 730 l 300 358 l 616 358 m 618 1158 q 670 1137 648 1158 q 691 1084 691 1115 q 670 1033 691 1054 q 618 1011 648 1011 q 566 1033 587 1011 q 544 1084 544 1054 q 566 1137 544 1115 q 618 1158 587 1158 m 378 1158 q 431 1137 410 1158 q 452 1084 452 1115 q 431 1033 452 1054 q 379 1011 409 1011 q 327 1033 349 1011 q 305 1084 305 1054 q 327 1137 305 1115 q 378 1158 348 1158 z "},"Å":{"ha":1003,"x_min":11,"x_max":987,"o":"m 635 308 l 279 308 l 217 163 q 194 83 194 109 q 214 46 194 62 q 300 25 234 30 l 300 0 l 11 0 l 11 25 q 85 52 68 35 q 162 184 120 84 l 486 941 l 509 941 l 829 176 q 900 56 868 83 q 987 25 931 28 l 987 0 l 625 0 l 625 25 q 699 43 680 28 q 718 81 718 59 q 691 176 718 111 l 635 308 m 616 358 l 460 730 l 300 358 l 616 358 m 496 1154 q 588 1116 550 1154 q 626 1024 626 1078 q 588 932 626 970 q 496 894 550 894 q 404 932 442 894 q 366 1024 366 970 q 404 1116 366 1078 q 496 1154 441 1154 m 496 1107 q 437 1083 461 1107 q 413 1024 413 1059 q 437 966 413 990 q 496 941 461 941 q 554 966 530 941 q 578 1024 578 990 q 554 1083 578 1059 q 496 1107 530 1107 z "},"Ç":{"ha":926,"x_min":50,"x_max":878,"o":"m 836 941 l 857 628 l 836 628 q 716 830 794 768 q 529 892 638 892 q 363 845 437 892 q 247 697 290 799 q 205 444 205 595 q 245 228 205 319 q 365 87 285 136 q 549 39 446 39 q 707 77 638 39 q 857 229 775 115 l 878 216 q 717 36 809 93 q 498 -21 625 -21 q 144 149 269 -21 q 50 446 50 275 q 112 699 50 583 q 282 877 174 814 q 518 941 390 941 q 715 892 618 941 q 755 877 743 877 q 787 890 774 877 q 812 941 805 908 l 836 941 m 473 11 l 514 11 l 480 -43 q 544 -79 523 -54 q 565 -142 565 -105 q 524 -228 565 -191 q 419 -264 484 -264 q 355 -260 394 -264 l 355 -231 q 388 -233 374 -233 q 446 -211 422 -233 q 470 -159 470 -188 q 454 -123 470 -138 q 416 -109 439 -109 q 398 -110 409 -109 l 473 11 z "},"É":{"ha":848,"x_min":28,"x_max":817,"o":"m 290 869 l 290 506 l 492 506 q 597 530 571 506 q 637 640 633 561 l 662 640 l 662 319 l 637 319 q 618 406 627 387 q 578 443 606 429 q 492 456 550 456 l 290 456 l 290 153 q 296 79 290 92 q 315 58 301 66 q 366 50 328 50 l 522 50 q 635 61 600 50 q 703 104 671 72 q 789 231 745 146 l 817 231 l 737 0 l 28 0 l 28 25 l 61 25 q 123 41 94 25 q 152 73 144 52 q 160 162 160 95 l 160 760 q 142 867 160 847 q 61 895 118 895 l 28 895 l 28 920 l 737 920 l 747 718 l 721 718 q 689 818 707 791 q 638 859 672 845 q 543 869 611 869 l 290 869 m 578 1219 l 378 985 l 355 985 l 427 1219 l 578 1219 z "},"Ñ":{"ha":1003,"x_min":-18,"x_max":983,"o":"m -18 920 l 231 920 l 793 230 l 793 760 q 774 866 793 845 q 695 895 749 895 l 663 895 l 663 920 l 983 920 l 983 895 l 951 895 q 868 859 892 895 q 853 760 853 838 l 853 -15 l 829 -15 l 222 726 l 222 159 q 241 54 222 75 q 320 25 267 25 l 353 25 l 353 0 l 33 0 l 33 25 l 64 25 q 148 60 123 25 q 163 159 163 82 l 163 799 q 102 861 123 846 q 41 888 81 876 q -18 895 22 895 l -18 920 m 304 994 l 282 994 q 321 1128 285 1086 q 410 1169 357 1169 q 460 1160 437 1169 q 547 1112 491 1149 q 630 1075 603 1075 q 668 1093 652 1075 q 694 1169 685 1112 l 715 1169 q 699 1069 716 1106 q 650 1011 682 1032 q 587 991 618 991 q 454 1045 533 991 q 396 1080 411 1074 q 367 1086 381 1086 q 323 1062 339 1086 q 304 994 315 1050 z "},"Ö":{"ha":1003,"x_min":49,"x_max":949,"o":"m 508 941 q 818 805 687 941 q 949 465 949 669 q 817 117 949 256 q 497 -21 685 -21 q 178 114 307 -21 q 49 463 49 249 q 198 821 49 682 q 508 941 328 941 m 495 891 q 297 800 372 891 q 204 466 204 686 q 300 119 204 241 q 496 27 374 27 q 710 128 625 27 q 794 447 794 229 q 701 799 794 683 q 495 891 627 891 m 616 1158 q 668 1137 647 1158 q 690 1084 690 1115 q 668 1033 690 1054 q 616 1011 647 1011 q 564 1033 586 1011 q 543 1084 543 1054 q 564 1137 543 1115 q 616 1158 586 1158 m 377 1158 q 430 1137 408 1158 q 451 1084 451 1115 q 429 1033 451 1054 q 378 1011 408 1011 q 326 1033 347 1011 q 304 1084 304 1054 q 325 1137 304 1115 q 377 1158 347 1158 z "},"Ü":{"ha":1003,"x_min":7,"x_max":988,"o":"m 663 895 l 663 920 l 988 920 l 988 895 l 954 895 q 870 849 899 895 q 856 751 856 828 l 856 378 q 828 164 856 240 q 721 33 801 87 q 502 -22 640 -22 q 273 31 351 -22 q 163 171 195 83 q 141 397 141 231 l 141 757 q 118 868 141 842 q 42 895 94 895 l 7 895 l 7 920 l 405 920 l 405 895 l 370 895 q 288 859 313 895 q 271 757 271 834 l 271 356 q 281 233 271 302 q 317 125 291 164 q 391 62 342 87 q 510 37 439 37 q 671 76 600 37 q 769 177 743 115 q 795 385 795 238 l 795 757 q 776 865 795 843 q 697 895 749 895 l 663 895 m 651 1158 q 703 1137 682 1158 q 724 1084 724 1115 q 703 1033 724 1054 q 651 1011 682 1011 q 599 1033 621 1011 q 577 1084 577 1054 q 599 1137 577 1115 q 651 1158 621 1158 m 412 1158 q 464 1137 443 1158 q 486 1084 486 1115 q 464 1033 486 1054 q 412 1011 442 1011 q 360 1033 382 1011 q 338 1084 338 1054 q 360 1137 338 1115 q 412 1158 381 1158 z "},"á":{"ha":616,"x_min":50,"x_max":614,"o":"m 395 90 q 275 4 300 16 q 197 -13 239 -13 q 91 31 133 -13 q 50 147 50 75 q 70 226 50 193 q 166 313 98 272 q 395 412 235 353 l 395 436 q 366 564 395 529 q 280 598 336 598 q 212 575 237 598 q 186 522 186 552 l 188 483 q 172 435 188 452 q 130 418 156 418 q 89 435 105 418 q 73 484 73 453 q 133 591 73 542 q 300 640 193 640 q 436 612 383 640 q 495 546 476 591 q 507 427 507 517 l 507 216 q 511 107 507 127 q 522 80 514 87 q 540 73 530 73 q 559 78 551 73 q 614 127 573 87 l 614 90 q 469 -12 538 -12 q 416 11 435 -12 q 395 90 396 34 m 395 134 l 395 370 q 263 313 293 330 q 186 250 210 283 q 163 179 163 218 q 193 98 163 130 q 260 66 222 66 q 395 134 311 66 m 463 943 l 262 709 l 239 709 l 311 943 l 463 943 z "},"à":{"ha":616,"x_min":50,"x_max":614,"o":"m 395 90 q 275 4 300 16 q 197 -13 239 -13 q 91 31 133 -13 q 50 147 50 75 q 70 226 50 193 q 166 313 98 272 q 395 412 235 353 l 395 436 q 366 564 395 529 q 280 598 336 598 q 212 575 237 598 q 186 522 186 552 l 188 483 q 172 435 188 452 q 130 418 156 418 q 89 435 105 418 q 73 484 73 453 q 133 591 73 542 q 300 640 193 640 q 436 612 383 640 q 495 546 476 591 q 507 427 507 517 l 507 216 q 511 107 507 127 q 522 80 514 87 q 540 73 530 73 q 559 78 551 73 q 614 127 573 87 l 614 90 q 469 -12 538 -12 q 416 11 435 -12 q 395 90 396 34 m 395 134 l 395 370 q 263 313 293 330 q 186 250 210 283 q 163 179 163 218 q 193 98 163 130 q 260 66 222 66 q 395 134 311 66 m 176 943 l 328 943 l 399 709 l 376 709 l 176 943 z "},"â":{"ha":616,"x_min":50,"x_max":614,"o":"m 395 90 q 275 4 300 16 q 197 -13 239 -13 q 91 31 133 -13 q 50 147 50 75 q 70 226 50 193 q 166 313 98 272 q 395 412 235 353 l 395 436 q 366 564 395 529 q 280 598 336 598 q 212 575 237 598 q 186 522 186 552 l 188 483 q 172 435 188 452 q 130 418 156 418 q 89 435 105 418 q 73 484 73 453 q 133 591 73 542 q 300 640 193 640 q 436 612 383 640 q 495 546 476 591 q 507 427 507 517 l 507 216 q 511 107 507 127 q 522 80 514 87 q 540 73 530 73 q 559 78 551 73 q 614 127 573 87 l 614 90 q 469 -12 538 -12 q 416 11 435 -12 q 395 90 396 34 m 395 134 l 395 370 q 263 313 293 330 q 186 250 210 283 q 163 179 163 218 q 193 98 163 130 q 260 66 222 66 q 395 134 311 66 m 248 939 l 373 939 l 502 715 l 481 715 l 296 859 l 140 715 l 120 715 l 248 939 z "},"ä":{"ha":616,"x_min":50,"x_max":614,"o":"m 395 90 q 275 4 300 16 q 197 -13 239 -13 q 91 31 133 -13 q 50 147 50 75 q 70 226 50 193 q 166 313 98 272 q 395 412 235 353 l 395 436 q 366 564 395 529 q 280 598 336 598 q 212 575 237 598 q 186 522 186 552 l 188 483 q 172 435 188 452 q 130 418 156 418 q 89 435 105 418 q 73 484 73 453 q 133 591 73 542 q 300 640 193 640 q 436 612 383 640 q 495 546 476 591 q 507 427 507 517 l 507 216 q 511 107 507 127 q 522 80 514 87 q 540 73 530 73 q 559 78 551 73 q 614 127 573 87 l 614 90 q 469 -12 538 -12 q 416 11 435 -12 q 395 90 396 34 m 395 134 l 395 370 q 263 313 293 330 q 186 250 210 283 q 163 179 163 218 q 193 98 163 130 q 260 66 222 66 q 395 134 311 66 m 430 907 q 482 885 460 907 q 503 833 503 863 q 482 781 503 802 q 430 760 460 760 q 378 781 399 760 q 356 833 356 802 q 378 885 356 863 q 430 907 399 907 m 191 907 q 243 885 222 907 q 264 833 264 863 q 243 781 264 802 q 191 760 221 760 q 139 781 161 760 q 117 833 117 802 q 139 885 117 863 q 191 907 160 907 z "},"ã":{"ha":616,"x_min":50,"x_max":614,"o":"m 395 90 q 275 4 300 16 q 197 -13 239 -13 q 91 31 133 -13 q 50 147 50 75 q 70 226 50 193 q 166 313 98 272 q 395 412 235 353 l 395 436 q 366 564 395 529 q 280 598 336 598 q 212 575 237 598 q 186 522 186 552 l 188 483 q 172 435 188 452 q 130 418 156 418 q 89 435 105 418 q 73 484 73 453 q 133 591 73 542 q 300 640 193 640 q 436 612 383 640 q 495 546 476 591 q 507 427 507 517 l 507 216 q 511 107 507 127 q 522 80 514 87 q 540 73 530 73 q 559 78 551 73 q 614 127 573 87 l 614 90 q 469 -12 538 -12 q 416 11 435 -12 q 395 90 396 34 m 395 134 l 395 370 q 263 313 293 330 q 186 250 210 283 q 163 179 163 218 q 193 98 163 130 q 260 66 222 66 q 395 134 311 66 m 116 744 l 94 744 q 133 878 97 837 q 222 920 169 920 q 273 911 250 920 q 359 862 303 899 q 442 825 415 825 q 480 844 464 825 q 507 920 497 862 l 528 920 q 511 820 528 857 q 462 762 494 783 q 399 741 431 741 q 266 795 345 741 q 208 831 223 825 q 179 837 193 837 q 135 812 151 837 q 116 744 127 801 z "},"å":{"ha":616,"x_min":50,"x_max":614,"o":"m 395 90 q 275 4 300 16 q 197 -13 239 -13 q 91 31 133 -13 q 50 147 50 75 q 70 226 50 193 q 166 313 98 272 q 395 412 235 353 l 395 436 q 366 564 395 529 q 280 598 336 598 q 212 575 237 598 q 186 522 186 552 l 188 483 q 172 435 188 452 q 130 418 156 418 q 89 435 105 418 q 73 484 73 453 q 133 591 73 542 q 300 640 193 640 q 436 612 383 640 q 495 546 476 591 q 507 427 507 517 l 507 216 q 511 107 507 127 q 522 80 514 87 q 540 73 530 73 q 559 78 551 73 q 614 127 573 87 l 614 90 q 469 -12 538 -12 q 416 11 435 -12 q 395 90 396 34 m 395 134 l 395 370 q 263 313 293 330 q 186 250 210 283 q 163 179 163 218 q 193 98 163 130 q 260 66 222 66 q 395 134 311 66 m 311 967 q 403 929 365 967 q 441 838 441 891 q 403 745 441 783 q 311 707 365 707 q 219 745 257 707 q 181 838 181 783 q 219 929 181 891 q 311 967 256 967 m 311 920 q 252 896 276 920 q 228 838 228 872 q 252 779 228 804 q 311 755 276 755 q 369 779 345 755 q 393 838 393 804 q 369 896 393 872 q 311 920 345 920 z "},"ç":{"ha":616,"x_min":47,"x_max":571,"o":"m 571 236 q 473 47 546 113 q 311 -19 399 -19 q 126 70 205 -19 q 47 310 47 159 q 135 548 47 456 q 344 640 222 640 q 494 591 435 640 q 553 490 553 543 q 537 449 553 465 q 490 433 520 433 q 430 458 450 433 q 415 513 418 473 q 387 574 411 553 q 321 594 363 594 q 212 544 254 594 q 157 368 157 477 q 212 172 157 257 q 359 87 267 87 q 479 132 426 87 q 551 245 516 163 l 571 236 m 319 11 l 359 11 l 326 -43 q 389 -79 368 -54 q 410 -142 410 -105 q 370 -228 410 -191 q 264 -264 329 -264 q 201 -260 239 -264 l 201 -231 q 233 -233 220 -233 q 292 -211 268 -233 q 315 -159 315 -188 q 300 -123 315 -138 q 261 -109 284 -109 q 243 -110 254 -109 l 319 11 z "},"é":{"ha":616,"x_min":52,"x_max":577,"o":"m 148 387 q 215 170 147 249 q 374 92 283 92 q 480 125 435 92 q 556 240 526 159 l 577 227 q 494 57 563 134 q 323 -19 426 -19 q 131 68 211 -19 q 52 302 52 155 q 133 551 52 462 q 338 640 215 640 q 510 571 443 640 q 577 387 577 503 l 148 387 m 148 427 l 435 427 q 421 511 432 486 q 371 570 404 549 q 300 592 337 592 q 200 548 244 592 q 148 427 155 505 m 471 943 l 271 709 l 248 709 l 319 943 l 471 943 z "},"è":{"ha":616,"x_min":52,"x_max":577,"o":"m 148 387 q 215 170 147 249 q 374 92 283 92 q 480 125 435 92 q 556 240 526 159 l 577 227 q 494 57 563 134 q 323 -19 426 -19 q 131 68 211 -19 q 52 302 52 155 q 133 551 52 462 q 338 640 215 640 q 510 571 443 640 q 577 387 577 503 l 148 387 m 148 427 l 435 427 q 421 511 432 486 q 371 570 404 549 q 300 592 337 592 q 200 548 244 592 q 148 427 155 505 m 193 943 l 345 943 l 416 709 l 393 709 l 193 943 z "},"ê":{"ha":616,"x_min":52,"x_max":577,"o":"m 148 387 q 215 170 147 249 q 374 92 283 92 q 480 125 435 92 q 556 240 526 159 l 577 227 q 494 57 563 134 q 323 -19 426 -19 q 131 68 211 -19 q 52 302 52 155 q 133 551 52 462 q 338 640 215 640 q 510 571 443 640 q 577 387 577 503 l 148 387 m 148 427 l 435 427 q 421 511 432 486 q 371 570 404 549 q 300 592 337 592 q 200 548 244 592 q 148 427 155 505 m 273 939 l 398 939 l 527 715 l 506 715 l 321 859 l 165 715 l 145 715 l 273 939 z "},"ë":{"ha":616,"x_min":52,"x_max":577,"o":"m 148 387 q 215 170 147 249 q 374 92 283 92 q 480 125 435 92 q 556 240 526 159 l 577 227 q 494 57 563 134 q 323 -19 426 -19 q 131 68 211 -19 q 52 302 52 155 q 133 551 52 462 q 338 640 215 640 q 510 571 443 640 q 577 387 577 503 l 148 387 m 148 427 l 435 427 q 421 511 432 486 q 371 570 404 549 q 300 592 337 592 q 200 548 244 592 q 148 427 155 505 m 455 906 q 507 884 486 906 q 528 832 528 863 q 507 780 528 802 q 455 759 486 759 q 403 780 425 759 q 381 832 381 802 q 403 884 381 863 q 455 906 425 906 m 216 906 q 268 884 247 906 q 290 832 290 863 q 268 780 290 802 q 216 759 246 759 q 164 780 186 759 q 142 832 142 802 q 164 884 142 863 q 216 906 185 906 z "},"í":{"ha":386,"x_min":41,"x_max":352,"o":"m 257 640 l 257 140 q 266 63 257 82 q 291 34 275 43 q 352 24 308 24 l 352 0 l 50 0 l 50 24 q 111 33 96 24 q 136 62 127 42 q 145 140 145 83 l 145 380 q 139 511 145 481 q 124 541 134 532 q 96 549 114 549 q 50 539 77 549 l 41 564 l 228 640 l 257 640 m 338 943 l 138 709 l 115 709 l 186 943 l 338 943 z "},"ì":{"ha":386,"x_min":41,"x_max":352,"o":"m 257 640 l 257 140 q 266 63 257 82 q 291 34 275 43 q 352 24 308 24 l 352 0 l 50 0 l 50 24 q 111 33 96 24 q 136 62 127 42 q 145 140 145 83 l 145 380 q 139 511 145 481 q 124 541 134 532 q 96 549 114 549 q 50 539 77 549 l 41 564 l 228 640 l 257 640 m 52 943 l 203 943 l 275 709 l 252 709 l 52 943 z "},"î":{"ha":386,"x_min":9,"x_max":391,"o":"m 257 640 l 257 140 q 266 63 257 82 q 291 34 275 43 q 352 24 308 24 l 352 0 l 50 0 l 50 24 q 111 33 96 24 q 136 62 127 42 q 145 140 145 83 l 145 380 q 139 511 145 481 q 124 541 134 532 q 96 549 114 549 q 50 539 77 549 l 41 564 l 228 640 l 257 640 m 137 939 l 262 939 l 391 715 l 370 715 l 184 859 l 29 715 l 9 715 l 137 939 z "},"ï":{"ha":386,"x_min":1,"x_max":387,"o":"m 257 640 l 257 140 q 266 63 257 82 q 291 34 275 43 q 352 24 308 24 l 352 0 l 50 0 l 50 24 q 111 33 96 24 q 136 62 127 42 q 145 140 145 83 l 145 380 q 139 511 145 481 q 124 541 134 532 q 96 549 114 549 q 50 539 77 549 l 41 564 l 228 640 l 257 640 m 314 906 q 366 884 345 906 q 387 832 387 863 q 366 780 387 802 q 314 759 345 759 q 262 780 283 759 q 240 832 240 802 q 262 884 240 863 q 314 906 283 906 m 75 906 q 127 884 106 906 q 149 832 149 863 q 127 780 149 802 q 75 759 105 759 q 23 780 45 759 q 1 832 1 802 q 23 884 1 863 q 75 906 44 906 z "},"ñ":{"ha":694,"x_min":8,"x_max":688,"o":"m 224 508 q 433 640 334 640 q 520 614 484 640 q 578 530 557 589 q 593 406 593 490 l 593 140 q 603 60 593 81 q 627 34 610 43 q 688 24 644 24 l 688 0 l 381 0 l 381 24 l 394 24 q 455 38 437 24 q 479 77 472 51 q 481 140 481 87 l 481 395 q 459 518 481 479 q 385 556 437 556 q 224 468 304 556 l 224 140 q 232 62 224 77 q 258 34 241 43 q 326 24 275 24 l 326 0 l 18 0 l 18 24 l 32 24 q 96 48 79 24 q 113 140 113 73 l 113 371 q 107 507 113 483 q 92 541 102 532 q 64 549 81 549 q 18 539 45 549 l 8 564 l 195 640 l 224 640 l 224 508 m 153 744 l 131 744 q 170 878 134 837 q 258 920 205 920 q 309 911 286 920 q 396 862 340 899 q 479 825 452 825 q 517 844 500 825 q 543 920 534 862 l 564 920 q 548 820 565 857 q 499 762 530 783 q 435 741 467 741 q 302 795 382 741 q 245 831 260 825 q 216 837 230 837 q 172 812 188 837 q 153 744 164 801 z "},"ó":{"ha":694,"x_min":47,"x_max":646,"o":"m 347 640 q 574 532 488 640 q 646 322 646 441 q 606 153 646 239 q 496 24 566 68 q 340 -19 426 -19 q 117 93 199 -19 q 47 304 47 187 q 89 474 47 390 q 201 599 132 559 q 347 640 270 640 m 326 595 q 254 574 290 595 q 195 499 218 553 q 173 361 173 446 q 227 127 173 226 q 369 29 281 29 q 477 83 435 29 q 520 270 520 138 q 449 530 520 435 q 326 595 401 595 m 490 943 l 290 709 l 267 709 l 338 943 l 490 943 z "},"ò":{"ha":694,"x_min":47,"x_max":646,"o":"m 347 640 q 574 532 488 640 q 646 322 646 441 q 606 153 646 239 q 496 24 566 68 q 340 -19 426 -19 q 117 93 199 -19 q 47 304 47 187 q 89 474 47 390 q 201 599 132 559 q 347 640 270 640 m 326 595 q 254 574 290 595 q 195 499 218 553 q 173 361 173 446 q 227 127 173 226 q 369 29 281 29 q 477 83 435 29 q 520 270 520 138 q 449 530 520 435 q 326 595 401 595 m 204 943 l 355 943 l 427 709 l 404 709 l 204 943 z "},"ô":{"ha":694,"x_min":47,"x_max":646,"o":"m 347 640 q 574 532 488 640 q 646 322 646 441 q 606 153 646 239 q 496 24 566 68 q 340 -19 426 -19 q 117 93 199 -19 q 47 304 47 187 q 89 474 47 390 q 201 599 132 559 q 347 640 270 640 m 326 595 q 254 574 290 595 q 195 499 218 553 q 173 361 173 446 q 227 127 173 226 q 369 29 281 29 q 477 83 435 29 q 520 270 520 138 q 449 530 520 435 q 326 595 401 595 m 292 939 l 417 939 l 546 715 l 525 715 l 340 859 l 184 715 l 164 715 l 292 939 z "},"ö":{"ha":694,"x_min":47,"x_max":646,"o":"m 347 640 q 574 532 488 640 q 646 322 646 441 q 606 153 646 239 q 496 24 566 68 q 340 -19 426 -19 q 117 93 199 -19 q 47 304 47 187 q 89 474 47 390 q 201 599 132 559 q 347 640 270 640 m 326 595 q 254 574 290 595 q 195 499 218 553 q 173 361 173 446 q 227 127 173 226 q 369 29 281 29 q 477 83 435 29 q 520 270 520 138 q 449 530 520 435 q 326 595 401 595 m 466 906 q 518 884 496 906 q 539 832 539 863 q 518 780 539 802 q 466 759 496 759 q 414 780 435 759 q 392 832 392 802 q 414 884 392 863 q 466 906 435 906 m 227 906 q 279 884 258 906 q 300 832 300 863 q 279 780 300 802 q 227 759 257 759 q 175 780 197 759 q 153 832 153 802 q 175 884 153 863 q 227 906 196 906 z "},"õ":{"ha":694,"x_min":47,"x_max":646,"o":"m 347 640 q 574 532 488 640 q 646 322 646 441 q 606 153 646 239 q 496 24 566 68 q 340 -19 426 -19 q 117 93 199 -19 q 47 304 47 187 q 89 474 47 390 q 201 599 132 559 q 347 640 270 640 m 326 595 q 254 574 290 595 q 195 499 218 553 q 173 361 173 446 q 227 127 173 226 q 369 29 281 29 q 477 83 435 29 q 520 270 520 138 q 449 530 520 435 q 326 595 401 595 m 152 744 l 130 744 q 169 878 133 837 q 258 920 205 920 q 309 911 286 920 q 395 862 339 899 q 478 825 451 825 q 516 844 500 825 q 543 920 533 862 l 564 920 q 547 820 564 857 q 498 762 530 783 q 435 741 467 741 q 302 795 381 741 q 244 831 259 825 q 215 837 229 837 q 171 812 187 837 q 152 744 163 801 z "},"ú":{"ha":694,"x_min":1,"x_max":692,"o":"m 588 621 l 588 245 q 593 113 588 137 q 609 79 598 89 q 635 70 621 70 q 683 81 656 70 l 692 58 l 507 -19 l 476 -19 l 476 113 q 354 3 396 26 q 265 -19 312 -19 q 175 11 213 -19 q 121 89 136 41 q 106 223 106 136 l 106 500 q 97 562 106 545 q 69 588 87 578 q 1 596 50 597 l 1 621 l 219 621 l 219 205 q 249 92 219 119 q 322 64 279 64 q 388 83 351 64 q 476 153 425 101 l 476 505 q 457 576 476 557 q 376 596 437 595 l 376 621 l 588 621 m 474 943 l 274 709 l 251 709 l 322 943 l 474 943 z "},"ù":{"ha":694,"x_min":1,"x_max":692,"o":"m 588 621 l 588 245 q 593 113 588 137 q 609 79 598 89 q 635 70 621 70 q 683 81 656 70 l 692 58 l 507 -19 l 476 -19 l 476 113 q 354 3 396 26 q 265 -19 312 -19 q 175 11 213 -19 q 121 89 136 41 q 106 223 106 136 l 106 500 q 97 562 106 545 q 69 588 87 578 q 1 596 50 597 l 1 621 l 219 621 l 219 205 q 249 92 219 119 q 322 64 279 64 q 388 83 351 64 q 476 153 425 101 l 476 505 q 457 576 476 557 q 376 596 437 595 l 376 621 l 588 621 m 208 943 l 359 943 l 431 709 l 408 709 l 208 943 z "},"û":{"ha":694,"x_min":1,"x_max":692,"o":"m 588 621 l 588 245 q 593 113 588 137 q 609 79 598 89 q 635 70 621 70 q 683 81 656 70 l 692 58 l 507 -19 l 476 -19 l 476 113 q 354 3 396 26 q 265 -19 312 -19 q 175 11 213 -19 q 121 89 136 41 q 106 223 106 136 l 106 500 q 97 562 106 545 q 69 588 87 578 q 1 596 50 597 l 1 621 l 219 621 l 219 205 q 249 92 219 119 q 322 64 279 64 q 388 83 351 64 q 476 153 425 101 l 476 505 q 457 576 476 557 q 376 596 437 595 l 376 621 l 588 621 m 287 939 l 412 939 l 541 715 l 519 715 l 334 859 l 179 715 l 159 715 l 287 939 z "},"ü":{"ha":694,"x_min":1,"x_max":692,"o":"m 588 621 l 588 245 q 593 113 588 137 q 609 79 598 89 q 635 70 621 70 q 683 81 656 70 l 692 58 l 507 -19 l 476 -19 l 476 113 q 354 3 396 26 q 265 -19 312 -19 q 175 11 213 -19 q 121 89 136 41 q 106 223 106 136 l 106 500 q 97 562 106 545 q 69 588 87 578 q 1 596 50 597 l 1 621 l 219 621 l 219 205 q 249 92 219 119 q 322 64 279 64 q 388 83 351 64 q 476 153 425 101 l 476 505 q 457 576 476 557 q 376 596 437 595 l 376 621 l 588 621 m 466 906 q 518 884 496 906 q 539 832 539 863 q 518 780 539 802 q 466 759 496 759 q 414 780 435 759 q 392 832 392 802 q 414 884 392 863 q 466 906 435 906 m 227 906 q 279 884 258 906 q 300 832 300 863 q 279 780 300 802 q 227 759 257 759 q 175 780 197 759 q 153 832 153 802 q 175 884 153 863 q 227 906 196 906 z "},"†":{"ha":694,"x_min":68,"x_max":626,"o":"m 355 -286 l 330 -286 q 309 191 328 10 q 262 447 294 326 q 311 510 296 477 q 330 608 326 543 q 241 584 286 603 q 137 554 170 554 q 87 572 106 554 q 68 618 68 591 q 89 666 68 647 q 138 686 109 686 q 170 682 155 686 q 241 652 177 680 q 330 631 281 634 q 326 673 330 659 q 305 732 321 694 q 269 863 269 819 q 291 927 269 903 q 345 951 313 951 q 396 926 373 951 q 418 863 418 901 q 413 823 418 843 q 382 738 406 796 q 355 631 358 679 q 445 652 404 635 q 523 681 512 678 q 553 685 538 685 q 606 666 586 685 q 626 618 626 647 q 606 572 626 591 q 556 553 586 553 q 444 585 519 553 q 397 602 412 599 q 355 608 383 606 q 374 509 359 544 q 423 447 389 475 q 378 200 391 323 q 355 -286 365 78 z "},"°":{"ha":555,"x_min":66,"x_max":484,"o":"m 275 940 q 423 879 362 940 q 484 731 484 818 q 422 584 484 645 q 275 523 361 523 q 127 584 189 523 q 66 731 66 645 q 127 879 66 818 q 275 940 188 940 m 275 883 q 168 839 212 883 q 123 732 123 795 q 168 625 123 669 q 275 581 212 581 q 381 625 337 581 q 426 732 426 669 q 382 839 426 795 q 275 883 338 883 z "},"¢":{"ha":694,"x_min":87,"x_max":610,"o":"m 610 237 q 500 39 578 109 q 350 -16 439 -16 q 240 7 295 -16 l 144 -257 l 96 -257 l 201 33 q 122 137 146 84 q 87 307 87 212 q 194 571 87 479 q 379 642 275 642 q 420 640 393 642 l 515 899 l 564 899 l 466 627 q 559 568 534 596 q 592 490 592 531 q 576 448 592 463 q 528 432 559 432 q 470 458 491 432 q 452 513 458 473 q 441 557 450 534 l 286 130 q 350 95 324 104 q 397 88 369 88 q 476 105 438 88 q 534 146 514 123 q 590 245 553 170 l 610 237 m 251 170 l 402 587 q 361 595 383 595 q 252 545 292 595 q 196 363 196 477 q 208 269 196 312 q 251 170 220 227 z "},"£":{"ha":694,"x_min":41,"x_max":663,"o":"m 490 447 l 315 447 q 316 401 316 416 q 307 283 316 337 q 274 158 298 229 q 426 111 407 115 q 495 103 461 103 q 587 129 551 103 q 638 212 622 155 l 663 205 q 592 40 648 96 q 468 -16 536 -16 q 385 0 422 -16 q 247 92 347 17 q 188 11 220 38 q 121 -16 157 -16 q 64 7 87 -16 q 41 71 41 31 q 73 147 41 117 q 153 177 104 177 q 178 176 164 177 q 210 172 193 174 q 212 202 212 189 q 212 224 212 215 q 198 447 212 283 l 66 447 l 66 511 l 198 511 q 189 646 189 612 q 222 798 189 729 q 314 902 256 866 q 440 939 373 939 q 569 892 526 939 q 612 800 612 846 q 595 762 612 779 q 559 745 578 745 q 516 770 533 745 q 506 823 509 783 q 483 882 503 863 q 424 901 462 901 q 335 859 370 901 q 300 711 300 817 q 309 585 300 662 q 315 511 313 534 l 490 511 l 490 447 m 202 117 q 173 131 187 126 q 144 136 159 136 q 97 119 114 136 q 80 76 80 102 q 93 37 80 52 q 124 23 106 23 q 168 44 146 23 q 202 117 189 65 z "},"§":{"ha":694,"x_min":106,"x_max":589,"o":"m 256 572 q 191 663 210 622 q 172 747 172 705 q 227 883 172 827 q 364 939 283 939 q 487 893 439 939 q 536 789 536 848 q 518 743 536 763 q 482 728 505 728 q 444 744 459 728 q 429 781 429 760 q 435 817 429 791 q 438 846 438 832 q 418 892 438 873 q 364 910 399 910 q 280 876 315 910 q 246 791 246 841 q 264 720 246 748 q 367 620 295 672 q 553 444 503 522 q 589 327 589 388 q 553 203 589 265 q 439 95 517 142 q 504 5 486 43 q 522 -77 522 -33 q 467 -216 522 -160 q 330 -271 411 -271 q 208 -225 256 -271 q 159 -119 159 -178 q 175 -76 159 -94 q 212 -59 191 -59 q 248 -75 233 -59 q 263 -118 263 -91 q 258 -158 263 -136 q 252 -192 252 -180 q 269 -224 252 -212 q 334 -245 296 -245 q 416 -210 379 -245 q 453 -133 453 -174 q 432 -58 453 -91 q 314 58 399 -7 q 140 225 186 153 q 106 342 106 280 q 142 465 106 404 q 256 572 179 526 m 277 551 q 175 400 175 489 q 200 313 175 353 q 334 183 235 258 q 416 115 381 147 q 520 264 520 178 q 490 356 520 308 q 368 476 460 404 q 277 551 312 519 z "},"•":{"ha":486,"x_min":76,"x_max":416,"o":"m 246 629 q 367 579 317 629 q 416 459 416 530 q 367 339 416 389 q 246 289 317 289 q 126 339 176 289 q 76 459 76 389 q 125 579 76 530 q 246 629 175 629 z "},"¶":{"ha":629,"x_min":-9,"x_max":631,"o":"m 541 882 l 541 -300 l 492 -300 l 492 882 l 366 882 l 366 -300 l 316 -300 l 316 408 q 122 442 186 413 q 24 531 58 471 q -9 665 -9 591 q 20 787 -9 740 q 124 886 59 852 q 296 920 190 920 l 631 920 l 631 882 l 541 882 z "},"ß":{"ha":694,"x_min":24,"x_max":650,"o":"m 24 0 l 24 24 q 82 39 64 28 q 106 69 99 50 q 113 153 113 88 l 113 655 q 176 895 113 824 q 355 964 239 964 q 530 902 465 964 q 594 744 594 840 q 557 622 594 672 q 465 557 530 585 q 603 463 556 530 q 650 286 650 395 q 588 80 650 168 q 422 -9 526 -9 q 328 24 363 -9 q 292 101 292 56 q 307 145 292 130 q 346 160 321 160 q 387 145 372 160 q 401 106 401 131 q 399 84 401 96 q 395 60 395 68 q 405 39 395 48 q 433 29 415 29 q 500 65 473 29 q 534 212 534 113 q 485 435 534 353 q 334 525 435 518 l 334 564 q 443 606 406 564 q 480 747 480 648 q 445 879 480 838 q 350 920 409 920 q 260 876 295 920 q 226 703 226 833 l 226 0 l 24 0 z "},"®":{"ha":1055,"x_min":47,"x_max":1009,"o":"m 528 941 q 764 879 649 941 q 944 701 880 817 q 1009 460 1009 585 q 945 220 1009 335 q 767 42 882 106 q 528 -21 652 -21 q 289 42 403 -21 q 111 220 174 106 q 47 460 47 335 q 112 701 47 585 q 292 879 176 817 q 528 941 407 941 m 528 899 q 312 842 417 899 q 148 680 207 785 q 89 460 89 574 q 147 241 89 346 q 309 79 205 137 q 528 20 414 20 q 746 79 642 20 q 909 241 851 137 q 967 460 967 346 q 908 680 967 574 q 744 842 849 785 q 528 899 639 899 m 262 755 l 524 755 q 673 711 622 755 q 725 604 725 667 q 690 513 725 552 q 574 453 655 474 l 716 251 q 762 201 742 215 q 798 191 775 193 l 798 169 l 673 169 l 474 444 l 422 444 l 422 234 q 442 201 427 212 q 503 191 457 191 l 503 169 l 254 169 l 254 191 q 300 199 286 191 q 319 222 313 207 q 324 285 324 233 l 324 640 q 322 699 324 690 q 305 723 317 714 q 262 731 292 731 l 262 755 m 422 473 q 539 488 503 473 q 596 532 576 504 q 616 596 616 560 q 577 688 616 651 q 479 726 539 726 q 422 715 454 726 l 422 473 z "},"©":{"ha":1055,"x_min":47,"x_max":1009,"o":"m 528 941 q 764 879 649 941 q 944 701 880 817 q 1009 460 1009 585 q 945 220 1009 335 q 767 42 882 106 q 528 -21 652 -21 q 289 42 403 -21 q 111 220 174 106 q 47 460 47 335 q 112 701 47 585 q 292 879 176 817 q 528 941 407 941 m 528 899 q 312 842 417 899 q 148 680 207 785 q 89 460 89 574 q 147 241 89 346 q 309 79 205 137 q 528 20 414 20 q 746 79 642 20 q 909 241 851 137 q 967 460 967 346 q 908 680 967 574 q 744 842 849 785 q 528 899 639 899 m 766 769 l 779 579 l 753 579 q 675 700 728 660 q 547 739 622 739 q 448 716 492 739 q 377 654 405 693 q 343 577 357 625 q 330 475 330 529 q 391 263 330 332 q 554 195 453 195 q 766 305 686 195 l 791 292 q 531 155 696 155 q 306 242 395 155 q 217 456 217 330 q 312 678 217 586 q 555 770 407 770 q 607 766 586 770 q 680 744 627 762 q 705 739 697 739 q 724 744 716 739 q 739 769 731 750 l 766 769 z "},"™":{"ha":1361,"x_min":20,"x_max":1338,"o":"m 35 920 l 528 920 l 543 783 l 520 783 q 485 856 513 832 q 389 879 456 879 l 338 879 l 338 486 q 351 414 338 429 q 410 397 365 399 l 410 372 l 156 372 l 156 397 q 212 415 200 401 q 224 486 224 430 l 224 879 l 172 879 q 81 858 108 879 q 43 783 54 836 l 20 783 l 35 920 m 784 920 l 969 532 l 1149 920 l 1338 920 l 1338 895 q 1288 887 1300 894 q 1269 865 1275 880 q 1263 803 1263 850 l 1263 486 q 1276 414 1263 428 q 1338 397 1289 399 l 1338 372 l 1068 372 l 1068 397 q 1122 405 1108 397 q 1142 427 1136 412 q 1149 485 1149 441 l 1149 819 l 941 372 l 919 372 l 710 812 l 710 486 q 716 426 710 439 q 734 404 722 412 q 773 397 747 397 l 798 397 l 798 372 l 590 372 l 590 397 q 641 404 628 397 q 661 425 654 410 q 667 486 667 439 l 667 802 q 661 867 667 853 q 642 887 655 880 q 590 895 628 895 l 590 920 l 784 920 z "},"´":{"ha":463,"x_min":160,"x_max":383,"o":"m 383 943 l 183 709 l 160 709 l 231 943 l 383 943 z "},"¨":{"ha":463,"x_min":39,"x_max":425,"o":"m 351 907 q 403 885 382 907 q 425 833 425 863 q 403 781 425 802 q 351 760 382 760 q 299 781 321 760 q 277 833 277 802 q 299 885 277 863 q 351 907 321 907 m 112 907 q 164 885 143 907 q 186 833 186 863 q 164 781 186 802 q 113 760 142 760 q 60 781 82 760 q 39 833 39 802 q 60 885 39 863 q 112 907 81 907 z "},"≠":{"ha":762,"x_min":17,"x_max":745,"o":"m 17 555 l 425 555 l 568 916 l 622 916 l 482 555 l 745 555 l 745 491 l 457 491 l 359 240 l 745 240 l 745 177 l 335 177 l 192 -183 l 138 -183 l 279 177 l 17 177 l 17 240 l 304 240 l 402 491 l 17 491 l 17 555 z "},"Æ":{"ha":1235,"x_min":-16,"x_max":1196,"o":"m 696 869 l 696 506 l 871 506 q 981 535 949 506 q 1018 640 1013 564 l 1042 640 l 1042 320 l 1018 320 q 996 411 1010 388 q 949 449 982 435 q 871 456 934 456 l 696 456 l 696 152 q 701 78 696 90 q 721 58 706 66 q 774 50 736 50 l 898 50 q 1012 62 972 50 q 1089 110 1052 75 q 1171 231 1139 156 l 1196 231 l 1123 0 l 433 0 l 433 25 l 467 25 q 550 58 524 25 q 566 162 566 80 l 566 356 l 298 356 l 214 198 q 166 81 166 109 q 187 46 166 62 q 273 25 208 30 l 273 0 l -16 0 l -16 25 q 35 38 14 26 q 81 82 56 50 q 145 186 106 114 l 425 709 q 477 840 477 806 q 458 873 477 861 q 359 895 435 890 l 359 920 l 1113 920 l 1123 718 l 1100 718 q 1066 824 1091 787 q 1013 863 1048 850 q 921 869 994 869 l 696 869 m 566 869 l 324 406 l 566 406 l 566 869 z "},"Ø":{"ha":1003,"x_min":50,"x_max":950,"o":"m 778 840 l 867 949 l 906 920 l 816 806 q 918 651 886 730 q 950 466 950 572 q 785 90 950 233 q 505 -21 657 -21 q 358 4 435 -21 q 224 76 281 30 l 136 -32 l 96 0 l 186 111 q 50 469 50 252 q 182 805 50 669 q 503 941 315 941 q 778 840 656 941 m 721 770 q 499 892 642 892 q 399 878 436 892 q 309 812 349 857 q 230 667 255 753 q 205 473 205 581 q 254 196 205 316 l 721 770 m 747 721 l 282 147 q 361 66 319 92 q 495 28 421 28 q 612 49 566 28 q 697 115 657 71 q 765 241 736 160 q 793 445 793 323 q 781 600 793 528 q 747 721 772 652 z "},"∞":{"ha":990,"x_min":33,"x_max":951,"o":"m 440 452 q 541 599 486 558 q 691 640 596 640 q 876 562 800 640 q 951 357 951 483 q 878 153 951 233 q 714 73 804 73 q 589 122 647 73 q 486 267 551 155 q 391 145 442 182 q 266 109 339 109 q 101 178 168 109 q 33 359 33 248 q 96 539 33 471 q 241 608 158 608 q 345 577 300 608 q 440 452 389 547 m 505 315 q 606 173 556 209 q 717 136 655 136 q 856 196 800 136 q 912 357 912 256 q 853 522 912 457 q 721 587 794 587 q 639 564 674 587 q 576 488 604 540 q 505 315 559 457 m 420 400 q 345 510 387 475 q 239 545 302 545 q 119 495 168 545 q 71 359 71 444 q 118 215 71 269 q 227 161 166 161 q 340 219 291 161 q 420 400 372 257 z "},"±":{"ha":762,"x_min":16,"x_max":747,"o":"m 16 96 l 16 151 l 353 151 l 353 434 l 16 434 l 16 490 l 353 490 l 353 827 l 408 827 l 408 490 l 747 490 l 747 434 l 408 434 l 408 151 l 747 151 l 747 96 l 16 96 z "},"≤":{"ha":762,"x_min":16,"x_max":746,"o":"m 745 167 l 17 476 l 17 532 l 745 840 l 745 771 l 100 505 l 745 236 l 745 167 m 16 -47 l 746 -47 l 746 -111 l 16 -111 l 16 -47 z "},"≥":{"ha":762,"x_min":16,"x_max":746,"o":"m 17 840 l 745 531 l 745 475 l 17 167 l 17 236 l 661 503 l 17 771 l 17 840 m 16 -47 l 746 -47 l 746 -111 l 16 -111 l 16 -47 z "},"¥":{"ha":694,"x_min":1,"x_max":694,"o":"m 405 288 l 694 288 l 694 239 l 405 239 l 405 165 q 412 68 405 90 q 435 43 418 54 q 493 28 460 28 l 521 28 l 521 0 l 172 0 l 172 28 l 193 28 q 264 45 241 28 q 286 84 280 58 q 289 165 289 97 l 289 239 l 1 239 l 1 288 l 289 288 l 289 386 l 279 410 l 1 410 l 1 460 l 257 460 l 113 796 q 63 874 87 855 q 1 894 39 893 l 1 920 l 301 920 l 301 894 q 236 878 252 890 q 219 852 219 866 q 231 812 219 841 l 376 460 l 521 802 q 535 852 535 836 q 521 880 535 867 q 477 892 511 889 q 459 894 471 892 l 459 920 l 694 920 l 694 894 q 635 878 653 894 q 576 789 606 854 l 431 460 l 694 460 l 694 410 l 410 410 l 405 399 l 405 288 z "},"µ":{"ha":800,"x_min":91,"x_max":742,"o":"m 133 621 l 244 621 l 244 260 q 256 125 244 161 q 289 81 265 98 q 340 64 313 64 q 500 155 420 64 l 500 621 l 612 621 l 612 178 q 618 89 612 110 q 634 63 623 73 q 659 54 646 54 q 688 69 676 54 q 713 138 706 90 l 742 138 q 699 19 736 56 q 608 -19 663 -19 q 526 20 555 -19 q 500 110 506 50 q 391 11 441 41 q 288 -19 340 -19 q 225 -5 252 -19 q 182 39 206 6 q 182 7 182 18 q 205 -155 182 -46 q 214 -225 214 -196 q 195 -279 214 -258 q 150 -300 176 -300 q 108 -280 125 -300 q 91 -226 91 -260 q 111 -114 91 -195 q 125 -43 124 -60 q 134 78 134 26 q 133 129 134 81 l 133 621 z "},"∂":{"ha":686,"x_min":41,"x_max":672,"o":"m 627 486 q 635 612 635 563 q 571 801 635 734 q 401 868 507 868 q 281 841 329 868 q 197 760 234 814 l 165 760 q 278 916 218 867 q 424 964 338 964 q 543 931 485 964 q 636 824 601 898 q 672 624 672 750 q 568 193 672 384 q 271 -21 450 -21 q 103 40 165 -21 q 41 206 41 101 q 72 362 41 286 q 152 491 104 438 q 259 575 200 544 q 415 616 336 616 q 516 594 471 616 q 590 543 561 573 q 627 486 608 524 m 616 426 q 537 540 589 501 q 421 578 484 578 q 301 536 360 578 q 199 389 242 494 q 155 178 155 283 q 193 59 155 101 q 288 18 230 18 q 458 106 371 18 q 616 426 568 218 z "},"∑":{"ha":990,"x_min":29,"x_max":963,"o":"m 920 -300 l 29 -300 l 29 -275 l 483 336 l 29 938 l 29 963 l 896 963 l 914 734 l 887 734 q 834 868 876 828 q 718 908 793 908 l 216 908 l 597 395 l 171 -180 l 726 -180 q 829 -161 773 -180 q 893 -116 868 -149 q 936 -13 919 -83 l 963 -18 l 920 -300 z "},"∏":{"ha":1143,"x_min":31,"x_max":1112,"o":"m 841 910 l 302 910 l 302 -169 q 327 -250 302 -225 q 412 -274 352 -274 l 436 -274 l 436 -300 l 31 -300 l 31 -274 l 55 -274 q 140 -250 115 -274 q 165 -169 165 -226 l 165 833 q 140 913 165 889 q 55 938 115 938 l 31 938 l 31 963 l 1112 963 l 1112 938 l 1088 938 q 1004 913 1029 938 q 979 833 979 889 l 979 -169 q 1004 -250 979 -225 q 1088 -274 1029 -274 l 1112 -274 l 1112 -300 l 707 -300 l 707 -274 l 731 -274 q 816 -250 791 -274 q 841 -169 841 -226 l 841 910 z "},"∫":{"ha":380,"x_min":-2,"x_max":378,"o":"m 134 607 l 146 1001 q 180 1174 151 1105 q 230 1241 198 1219 q 293 1263 262 1263 q 352 1241 327 1263 q 378 1191 378 1218 q 360 1140 378 1159 q 315 1120 342 1120 q 264 1145 292 1120 q 237 1158 248 1158 q 217 1148 225 1158 q 210 1115 210 1139 q 216 1017 210 1087 q 241 567 241 738 q 230 167 241 519 q 169 -104 224 -33 q 78 -149 132 -149 q 20 -126 43 -149 q -2 -67 -2 -103 q 15 -18 -2 -37 q 59 0 33 0 q 106 -22 86 0 q 139 -43 125 -43 q 158 -34 151 -43 q 165 -2 165 -24 q 159 79 165 26 q 142 309 148 176 q 134 607 134 477 z "},"ª":{"ha":383,"x_min":-4,"x_max":381,"o":"m 231 800 q 213 897 231 874 q 159 920 195 920 q 111 905 126 920 q 95 859 95 890 q 84 815 95 829 q 56 801 73 801 q 29 812 40 801 q 18 842 18 824 q 56 909 18 879 q 176 939 94 939 q 272 918 239 939 q 315 874 306 897 q 324 800 324 852 l 324 652 q 326 611 324 616 q 333 597 328 602 q 342 593 338 593 q 381 614 351 593 l 381 581 q 315 538 332 545 q 280 531 298 531 q 250 545 263 531 q 231 595 237 559 q 151 549 188 565 q 85 534 115 534 q 22 559 49 534 q -4 618 -4 585 q 11 670 -4 648 q 83 733 31 701 q 231 800 119 754 m 231 774 q 120 715 149 747 q 90 650 90 682 q 107 609 90 627 q 151 591 125 591 q 185 599 165 591 q 231 621 205 606 l 231 774 z "},"º":{"ha":431,"x_min":20,"x_max":414,"o":"m 220 939 q 359 881 304 939 q 414 740 414 824 q 354 595 414 656 q 211 534 294 534 q 75 589 131 534 q 20 729 20 644 q 76 881 20 823 q 220 939 132 939 m 201 909 q 140 879 165 909 q 115 782 115 848 q 162 607 115 674 q 231 568 189 568 q 295 598 270 568 q 321 694 321 629 q 273 867 321 800 q 201 909 243 909 z "},"Ω":{"ha":1067,"x_min":48,"x_max":1019,"o":"m 437 197 l 458 0 l 48 0 l 48 227 l 71 227 q 103 158 85 173 q 170 143 121 143 l 376 143 l 376 163 q 208 243 269 195 q 111 373 146 291 q 75 538 75 454 q 130 738 75 642 q 290 885 184 833 q 534 937 395 937 q 777 886 672 937 q 937 738 882 834 q 992 538 992 642 q 956 372 992 454 q 860 243 920 291 q 691 163 799 195 l 691 143 l 897 143 q 964 158 946 143 q 996 227 983 173 l 1019 227 l 1019 0 l 609 0 l 630 197 q 755 286 713 227 q 826 541 826 384 q 748 802 826 714 q 537 890 669 890 q 330 813 398 890 q 241 541 241 714 q 269 367 241 442 q 345 248 296 292 q 437 197 378 218 z "},"æ":{"ha":926,"x_min":50,"x_max":884,"o":"m 498 385 q 497 334 497 350 q 546 140 497 198 q 671 83 595 83 q 790 124 736 83 q 863 232 824 151 l 884 217 q 779 34 860 107 q 633 -19 721 -19 q 508 13 560 -19 q 433 90 484 28 q 395 60 425 83 q 342 21 356 28 q 275 -8 311 3 q 201 -19 239 -19 q 93 26 137 -19 q 50 136 50 71 q 79 237 50 195 q 195 322 109 278 q 382 405 300 376 l 382 467 q 355 571 382 541 q 282 601 328 601 q 212 579 237 601 q 186 530 186 557 q 181 456 186 473 q 163 430 175 439 q 132 421 151 421 q 92 437 106 421 q 71 486 71 458 q 96 556 71 521 q 174 616 121 591 q 298 640 227 640 q 425 616 382 640 q 481 557 468 592 q 550 616 514 597 q 664 640 598 640 q 823 574 762 640 q 884 385 884 509 l 498 385 m 498 429 l 754 429 q 718 553 753 514 q 629 592 683 592 q 537 550 574 592 q 498 429 499 507 m 414 125 q 391 204 399 155 q 382 300 382 254 l 382 361 q 214 274 290 332 q 163 175 163 235 q 196 87 163 121 q 273 54 228 54 q 329 67 299 54 q 414 125 358 81 z "},"ø":{"ha":694,"x_min":26,"x_max":668,"o":"m 547 564 l 637 664 l 668 635 l 576 532 q 648 320 648 440 q 609 154 648 240 q 500 25 570 68 q 344 -19 431 -19 q 244 -2 288 -19 q 150 58 201 16 l 58 -45 l 26 -16 l 122 92 q 69 195 88 134 q 50 309 50 256 q 91 471 50 389 q 201 596 132 553 q 353 640 271 640 q 454 622 409 640 q 547 564 499 604 m 477 488 q 409 571 443 548 q 331 595 376 595 q 220 541 264 595 q 176 361 176 486 q 203 183 176 277 l 477 488 m 496 444 l 223 138 q 291 53 258 76 q 371 29 324 29 q 480 83 438 29 q 523 273 523 138 q 496 444 523 355 z "},"¿":{"ha":616,"x_min":60,"x_max":559,"o":"m 307 661 q 360 639 338 661 q 382 586 382 617 q 360 533 382 555 q 307 511 338 511 q 253 533 275 511 q 231 586 231 555 q 253 639 231 617 q 307 661 275 661 m 299 425 l 326 425 q 309 291 322 340 q 240 124 296 242 q 184 -72 184 6 q 229 -210 184 -161 q 344 -259 273 -259 q 437 -231 403 -259 q 471 -170 471 -203 q 450 -113 471 -149 q 429 -55 429 -77 q 445 -16 429 -32 q 484 0 461 0 q 535 -28 511 0 q 559 -103 559 -56 q 493 -240 559 -181 q 312 -300 427 -300 q 129 -236 197 -300 q 60 -85 60 -173 q 80 18 60 -28 q 182 169 109 85 q 275 298 254 252 q 299 425 295 345 z "},"¡":{"ha":463,"x_min":155,"x_max":308,"o":"m 232 661 q 286 638 264 661 q 307 585 307 616 q 285 532 307 554 q 232 511 263 511 q 179 532 201 511 q 157 585 157 554 q 179 638 157 616 q 232 661 201 661 m 218 398 l 244 398 l 304 -151 q 308 -205 308 -187 q 285 -274 308 -248 q 231 -300 262 -300 q 177 -274 199 -300 q 155 -197 155 -248 q 158 -151 155 -180 l 218 398 z "},"¬":{"ha":783,"x_min":24,"x_max":757,"o":"m 24 595 l 757 595 l 757 320 l 703 320 l 703 541 l 24 541 l 24 595 z "},"√":{"ha":762,"x_min":59,"x_max":764,"o":"m 714 1267 l 764 1267 l 553 -53 l 216 640 l 82 578 l 59 621 l 263 724 l 538 165 l 714 1267 z "},"ƒ":{"ha":694,"x_min":1,"x_max":677,"o":"m 466 593 l 587 593 l 575 549 l 457 549 q 340 68 422 366 q 201 -236 277 -163 q 84 -292 144 -292 q 24 -272 46 -292 q 1 -221 1 -251 q 17 -178 1 -195 q 54 -161 33 -161 q 84 -173 71 -161 q 98 -199 98 -185 q 88 -224 98 -214 q 81 -237 81 -233 q 86 -247 81 -243 q 98 -252 91 -252 q 123 -245 112 -252 q 163 -201 144 -233 q 204 -81 183 -170 q 262 200 208 -66 q 346 549 267 224 l 226 549 l 236 593 q 320 604 303 598 q 349 625 338 610 q 390 716 367 648 q 485 901 439 860 q 585 941 530 941 q 652 918 627 941 q 677 865 677 896 q 664 827 677 841 q 631 812 650 812 q 601 824 614 812 q 589 850 589 836 q 596 874 589 861 q 604 892 604 886 q 597 905 604 899 q 580 909 591 909 q 541 893 558 909 q 509 836 517 871 q 466 593 491 754 z "},"≈":{"ha":762,"x_min":20,"x_max":743,"o":"m 713 704 l 743 704 q 693 569 741 618 q 578 519 646 519 q 512 529 547 519 q 326 601 477 539 q 176 644 220 644 q 95 615 128 644 q 50 520 62 585 l 20 520 q 43 620 23 581 q 101 683 63 660 q 178 705 140 705 q 238 696 207 705 q 435 622 309 676 q 541 583 501 593 q 587 577 562 577 q 672 610 637 577 q 713 704 707 642 m 713 371 l 743 371 q 693 235 741 285 q 578 185 646 185 q 477 206 547 185 l 326 268 q 176 311 220 311 q 95 281 128 311 q 50 186 62 252 l 20 186 q 43 287 23 247 q 101 349 62 326 q 177 372 139 372 q 237 363 206 372 q 435 288 309 342 q 541 250 502 260 q 587 244 562 244 q 672 276 637 244 q 713 371 707 309 z "},"∆":{"ha":850,"x_min":20,"x_max":833,"o":"m 833 0 l 20 0 l 446 941 l 833 0 m 673 56 l 403 711 l 104 56 l 673 56 z "},"«":{"ha":694,"x_min":43,"x_max":651,"o":"m 345 -5 l 306 -5 l 43 315 l 306 633 l 345 633 l 179 315 l 345 -5 m 651 -5 l 612 -5 l 345 315 l 612 633 l 651 633 l 486 315 l 651 -5 z "},"»":{"ha":694,"x_min":43,"x_max":651,"o":"m 350 633 l 389 633 l 651 313 l 389 -5 l 350 -5 l 515 313 l 350 633 m 43 633 l 83 633 l 350 313 l 83 -5 l 43 -5 l 208 313 l 43 633 z "},"…":{"ha":1389,"x_min":156,"x_max":1233,"o":"m 231 132 q 285 110 263 132 q 307 56 307 87 q 284 3 307 25 q 231 -19 262 -19 q 178 3 200 -19 q 156 56 156 25 q 178 110 156 88 q 231 132 200 132 m 694 132 q 748 110 726 132 q 770 56 770 87 q 748 3 770 25 q 694 -19 726 -19 q 641 3 663 -19 q 619 56 619 25 q 641 110 619 88 q 694 132 663 132 m 1158 132 q 1211 110 1189 132 q 1233 56 1233 87 q 1211 3 1233 25 q 1158 -19 1189 -19 q 1104 3 1126 -19 q 1082 56 1082 25 q 1104 110 1082 88 q 1158 132 1126 132 z "},"À":{"ha":1003,"x_min":11,"x_max":987,"o":"m 635 308 l 279 308 l 217 163 q 194 83 194 109 q 214 46 194 62 q 300 25 234 30 l 300 0 l 11 0 l 11 25 q 85 52 68 35 q 162 184 120 84 l 486 941 l 509 941 l 829 176 q 900 56 868 83 q 987 25 931 28 l 987 0 l 625 0 l 625 25 q 699 43 680 28 q 718 81 718 59 q 691 176 718 111 l 635 308 m 616 358 l 460 730 l 300 358 l 616 358 m 348 1219 l 499 1219 l 571 985 l 547 985 l 348 1219 z "},"Ã":{"ha":1003,"x_min":11,"x_max":987,"o":"m 635 308 l 279 308 l 217 163 q 194 83 194 109 q 214 46 194 62 q 300 25 234 30 l 300 0 l 11 0 l 11 25 q 85 52 68 35 q 162 184 120 84 l 486 941 l 509 941 l 829 176 q 900 56 868 83 q 987 25 931 28 l 987 0 l 625 0 l 625 25 q 699 43 680 28 q 718 81 718 59 q 691 176 718 111 l 635 308 m 616 358 l 460 730 l 300 358 l 616 358 m 304 994 l 283 994 q 321 1128 286 1086 q 410 1169 357 1169 q 461 1160 438 1169 q 548 1112 492 1149 q 631 1075 604 1075 q 669 1093 652 1075 q 695 1169 686 1112 l 716 1169 q 700 1069 717 1106 q 651 1011 682 1032 q 587 991 619 991 q 454 1045 534 991 q 397 1080 412 1074 q 368 1086 382 1086 q 323 1062 340 1086 q 304 994 316 1050 z "},"Õ":{"ha":1003,"x_min":49,"x_max":949,"o":"m 508 941 q 818 805 687 941 q 949 465 949 669 q 817 117 949 256 q 497 -21 685 -21 q 178 114 307 -21 q 49 463 49 249 q 198 821 49 682 q 508 941 328 941 m 495 891 q 297 800 372 891 q 204 466 204 686 q 300 119 204 241 q 496 27 374 27 q 710 128 625 27 q 794 447 794 229 q 701 799 794 683 q 495 891 627 891 m 302 994 l 281 994 q 319 1128 283 1086 q 408 1169 355 1169 q 459 1160 436 1169 q 546 1112 490 1149 q 629 1075 602 1075 q 667 1093 650 1075 q 693 1169 684 1112 l 714 1169 q 697 1069 715 1106 q 649 1011 680 1032 q 585 991 617 991 q 452 1045 532 991 q 395 1080 410 1074 q 366 1086 380 1086 q 321 1062 338 1086 q 302 994 314 1050 z "},"Œ":{"ha":1235,"x_min":51,"x_max":1196,"o":"m 749 869 l 749 507 l 873 507 q 983 539 951 507 q 1015 640 1016 571 l 1042 640 l 1042 319 l 1015 319 q 981 430 1009 403 q 873 456 952 456 l 749 456 l 749 153 q 755 82 749 98 q 778 57 762 66 q 830 52 788 52 l 901 52 q 1014 60 982 52 q 1081 100 1046 69 q 1168 231 1132 146 l 1196 231 l 1122 0 l 793 0 q 677 -1 698 0 q 564 -7 669 -1 q 466 -11 491 -11 q 257 47 351 -11 q 106 217 162 105 q 51 458 51 328 q 146 767 51 633 q 481 928 261 928 q 612 923 496 928 q 793 920 707 920 l 1114 920 l 1122 718 l 1101 718 q 1072 819 1084 798 q 1019 861 1055 846 q 922 869 997 869 l 749 869 m 618 707 q 606 823 618 795 q 570 865 593 851 q 484 884 536 884 q 335 835 399 884 q 239 683 271 785 q 207 453 207 581 q 235 249 207 348 q 327 94 264 150 q 481 37 391 37 q 564 55 532 37 q 607 103 595 72 q 618 231 618 134 l 618 707 z "},"œ":{"ha":1003,"x_min":45,"x_max":960,"o":"m 585 389 q 584 363 584 372 q 607 230 584 299 q 674 127 629 161 q 772 93 719 93 q 868 127 827 93 q 935 241 910 162 l 957 229 q 872 40 932 98 q 726 -19 811 -19 q 614 13 661 -19 q 544 90 568 45 q 448 8 502 36 q 328 -19 394 -19 q 127 68 209 -19 q 45 300 45 155 q 129 548 45 456 q 332 640 213 640 q 458 610 405 640 q 544 532 512 580 q 628 615 584 590 q 736 640 672 640 q 898 573 836 640 q 957 389 960 506 l 585 389 m 307 602 q 249 584 283 602 q 197 523 216 566 q 172 366 172 467 q 241 90 172 191 q 345 29 283 29 q 445 79 406 29 q 485 256 485 130 q 439 508 485 414 q 307 602 393 602 m 585 433 l 823 433 q 807 524 824 480 q 766 575 795 556 q 705 595 736 595 q 624 554 659 595 q 585 433 589 513 z "},"–":{"ha":694,"x_min":-12,"x_max":706,"o":"m 706 307 l -12 307 l -12 357 l 706 357 l 706 307 z "},"—":{"ha":1389,"x_min":-13,"x_max":1401,"o":"m 1401 307 l -13 307 l -13 357 l 1401 357 l 1401 307 z "},"“":{"ha":616,"x_min":45,"x_max":577,"o":"m 221 941 l 221 913 q 136 848 161 882 q 110 774 110 814 q 117 741 110 750 q 132 732 123 732 q 155 737 140 732 q 182 742 170 742 q 231 721 210 742 q 252 671 252 701 q 227 615 252 638 q 164 591 201 591 q 82 631 119 591 q 45 728 45 670 q 91 854 45 795 q 221 941 136 913 m 545 939 l 545 913 q 454 842 476 873 q 433 769 433 811 q 440 741 433 750 q 456 731 448 731 q 478 736 463 731 q 508 742 493 742 q 556 722 536 742 q 577 673 577 702 q 551 615 577 640 q 487 591 525 591 q 406 629 442 591 q 370 726 370 668 q 416 856 370 797 q 545 939 461 914 z "},"”":{"ha":616,"x_min":45,"x_max":577,"o":"m 78 591 l 78 619 q 168 689 146 658 q 189 762 189 721 q 182 791 189 781 q 166 800 175 800 q 144 795 159 800 q 115 789 130 789 q 66 810 86 789 q 45 859 45 830 q 72 916 45 892 q 135 941 98 941 q 216 902 180 941 q 252 804 252 863 q 207 674 252 733 q 78 591 161 615 m 401 591 l 401 619 q 487 684 460 650 q 513 758 513 718 q 506 791 513 782 q 491 800 499 800 q 467 795 482 800 q 440 789 452 789 q 392 810 412 789 q 371 861 371 831 q 396 917 371 893 q 458 941 421 941 q 541 901 504 941 q 577 804 577 861 q 532 677 577 736 q 401 591 487 618 z "},"‘":{"ha":463,"x_min":125,"x_max":332,"o":"m 301 941 l 301 911 q 207 833 232 869 q 189 771 189 807 q 197 739 189 749 q 214 729 204 729 q 233 734 221 729 q 263 740 252 740 q 311 720 290 740 q 332 669 332 699 q 311 615 332 634 q 243 589 282 589 q 161 628 197 589 q 125 724 125 667 q 185 869 125 804 q 301 941 225 913 z "},"’":{"ha":463,"x_min":131,"x_max":338,"o":"m 161 589 l 161 621 q 256 699 231 663 q 274 760 274 724 q 267 791 274 781 q 249 802 258 802 q 229 797 241 802 q 200 791 212 791 q 152 811 173 791 q 131 862 131 831 q 152 915 131 896 q 220 941 180 941 q 301 902 265 941 q 338 807 338 864 q 277 661 338 727 q 161 589 237 618 z "},"÷":{"ha":762,"x_min":16,"x_max":747,"o":"m 381 729 q 423 712 406 729 q 440 670 440 694 q 423 628 440 646 q 380 611 406 611 q 339 628 356 611 q 321 670 321 646 q 339 712 321 694 q 381 729 356 729 m 747 434 l 16 434 l 16 490 l 747 490 l 747 434 m 381 309 q 424 291 406 309 q 441 249 441 273 q 423 207 441 224 q 381 189 406 189 q 339 207 357 189 q 321 249 321 224 q 339 291 321 273 q 381 309 356 309 z "},"◊":{"ha":686,"x_min":32,"x_max":656,"o":"m 372 964 l 656 481 l 372 0 l 297 0 l 32 481 l 297 964 l 372 964 m 336 899 l 105 481 l 336 64 l 579 481 l 336 899 z "},"ÿ":{"ha":694,"x_min":8,"x_max":686,"o":"m 8 621 l 298 621 l 298 596 l 283 596 q 238 583 253 596 q 222 550 222 570 q 245 477 222 524 l 396 163 l 535 507 q 547 562 547 534 q 542 580 547 574 q 525 592 536 587 q 484 596 513 596 l 484 621 l 686 621 l 686 596 q 648 585 661 593 q 618 555 634 577 q 595 503 612 545 l 342 -117 q 246 -254 305 -208 q 132 -300 186 -300 q 66 -277 92 -300 q 40 -224 40 -254 q 59 -178 40 -195 q 110 -161 77 -161 q 171 -176 132 -161 q 205 -186 198 -186 q 249 -165 225 -186 q 298 -83 273 -144 l 342 24 l 119 493 q 86 545 109 514 q 58 577 69 569 q 8 596 43 588 l 8 621 m 492 907 q 544 885 522 907 q 565 833 565 863 q 544 781 565 802 q 492 760 522 760 q 439 781 461 760 q 418 833 418 802 q 439 885 418 863 q 492 907 461 907 m 252 907 q 305 885 283 907 q 326 833 326 863 q 304 781 326 802 q 253 760 283 760 q 201 781 222 760 q 179 833 179 802 q 200 885 179 863 q 252 907 222 907 z "},"Ÿ":{"ha":1003,"x_min":13,"x_max":983,"o":"m 662 920 l 983 920 l 983 895 l 965 895 q 913 879 947 895 q 852 834 880 863 q 783 739 824 805 l 562 390 l 562 159 q 581 54 562 75 q 662 25 606 25 l 692 25 l 692 0 l 301 0 l 301 25 l 334 25 q 416 60 392 25 q 431 159 431 82 l 431 377 l 179 762 q 118 847 134 830 q 52 888 102 864 q 13 895 39 895 l 13 920 l 406 920 l 406 895 l 386 895 q 327 880 354 895 q 300 835 300 865 q 342 747 300 810 l 534 450 l 714 734 q 755 829 755 798 q 745 863 755 848 q 717 886 735 878 q 662 895 699 895 l 662 920 m 635 1158 q 687 1137 665 1158 q 708 1084 708 1115 q 687 1033 708 1054 q 635 1011 665 1011 q 583 1033 604 1011 q 561 1084 561 1054 q 583 1137 561 1115 q 635 1158 604 1158 m 395 1158 q 448 1137 427 1158 q 469 1084 469 1115 q 448 1033 469 1054 q 396 1011 426 1011 q 344 1033 366 1011 q 322 1084 322 1054 q 343 1137 322 1115 q 395 1158 365 1158 z "},"⁄":{"ha":232,"x_min":-231,"x_max":463,"o":"m 463 939 l -171 -37 l -231 -37 l 403 939 l 463 939 z "},"∕":{"ha":232,"x_min":-231,"x_max":463,"o":"m 463 939 l -171 -37 l -231 -37 l 403 939 l 463 939 z "},"€":{"ha":694,"x_min":-16,"x_max":670,"o":"m 574 500 l 185 500 q 183 444 183 471 l 557 444 l 542 391 l 184 391 q 241 152 190 248 q 404 41 302 41 q 556 87 495 41 q 649 193 593 115 l 670 180 q 564 48 612 87 q 377 -16 486 -16 q 136 113 221 -16 q 53 391 66 219 l -16 391 l 0 444 l 50 444 l 50 454 q 52 500 50 475 l -16 500 l 0 553 l 57 553 q 167 818 80 713 q 422 939 267 939 q 652 879 538 939 l 652 676 l 626 676 q 422 894 608 894 q 252 781 315 894 q 189 553 204 692 l 590 553 l 574 500 z "},"‹":{"ha":463,"x_min":81,"x_max":382,"o":"m 382 -5 l 343 -5 l 81 315 l 343 633 l 382 633 l 216 315 l 382 -5 z "},"›":{"ha":463,"x_min":78,"x_max":385,"o":"m 78 633 l 117 633 l 385 313 l 117 -5 l 78 -5 l 243 313 l 78 633 z "},"":{"ha":772,"x_min":17,"x_max":736,"o":"m 249 621 l 509 621 q 607 625 585 621 l 637 625 l 637 144 q 655 47 637 68 q 736 24 673 26 l 736 0 l 427 0 l 427 24 q 512 54 493 24 q 526 144 526 74 l 526 473 q 519 549 526 536 q 498 565 513 559 q 400 570 483 570 l 249 570 l 249 166 q 257 71 249 93 q 282 43 263 55 q 334 24 312 24 l 362 24 l 362 0 l 23 0 l 23 24 l 47 24 q 116 51 95 24 q 137 166 137 77 l 137 570 l 17 570 l 17 621 l 137 621 q 171 815 137 745 q 273 924 205 884 q 425 964 340 964 q 530 945 483 964 q 601 896 578 926 q 623 839 623 865 q 608 800 623 816 q 572 785 593 785 q 532 797 549 785 q 477 863 516 808 q 430 909 455 895 q 382 920 411 920 q 314 892 348 920 q 267 828 279 864 q 249 657 249 779 l 249 621 z "},"ﬁ":{"ha":772,"x_min":17,"x_max":736,"o":"m 249 621 l 509 621 q 607 625 585 621 l 637 625 l 637 144 q 655 47 637 68 q 736 24 673 26 l 736 0 l 427 0 l 427 24 q 512 54 493 24 q 526 144 526 74 l 526 473 q 519 549 526 536 q 498 565 513 559 q 400 570 483 570 l 249 570 l 249 166 q 257 71 249 93 q 282 43 263 55 q 334 24 312 24 l 362 24 l 362 0 l 23 0 l 23 24 l 47 24 q 116 51 95 24 q 137 166 137 77 l 137 570 l 17 570 l 17 621 l 137 621 q 171 815 137 745 q 273 924 205 884 q 425 964 340 964 q 530 945 483 964 q 601 896 578 926 q 623 839 623 865 q 608 800 623 816 q 572 785 593 785 q 532 797 549 785 q 477 863 516 808 q 430 909 455 895 q 382 920 411 920 q 314 892 348 920 q 267 828 279 864 q 249 657 249 779 l 249 621 z "},"":{"ha":772,"x_min":16,"x_max":737,"o":"m 527 570 l 248 570 l 248 168 q 258 72 248 94 q 292 36 269 49 q 363 24 315 23 l 363 0 l 22 0 l 22 24 l 50 24 q 112 46 88 24 q 136 163 136 68 l 136 570 l 16 570 l 16 621 l 136 621 q 169 822 140 758 q 258 926 197 887 q 380 964 319 964 q 516 914 450 964 l 612 964 l 639 964 l 639 144 q 646 64 639 83 q 672 35 653 45 q 737 24 692 25 l 737 0 l 429 0 l 429 24 q 497 38 473 25 q 519 63 511 45 q 527 144 527 81 l 527 570 m 527 621 l 527 823 q 480 798 505 798 q 410 856 449 798 q 331 913 370 913 q 292 899 308 913 q 256 841 267 879 q 248 682 248 812 l 248 621 l 527 621 z "},"ﬂ":{"ha":772,"x_min":16,"x_max":737,"o":"m 527 570 l 248 570 l 248 168 q 258 72 248 94 q 292 36 269 49 q 363 24 315 23 l 363 0 l 22 0 l 22 24 l 50 24 q 112 46 88 24 q 136 163 136 68 l 136 570 l 16 570 l 16 621 l 136 621 q 169 822 140 758 q 258 926 197 887 q 380 964 319 964 q 516 914 450 964 l 612 964 l 639 964 l 639 144 q 646 64 639 83 q 672 35 653 45 q 737 24 692 25 l 737 0 l 429 0 l 429 24 q 497 38 473 25 q 519 63 511 45 q 527 144 527 81 l 527 570 m 527 621 l 527 823 q 480 798 505 798 q 410 856 449 798 q 331 913 370 913 q 292 899 308 913 q 256 841 267 879 q 248 682 248 812 l 248 621 l 527 621 z "},"‡":{"ha":694,"x_min":94,"x_max":600,"o":"m 359 662 q 377 595 365 617 q 423 547 389 574 q 374 449 389 497 q 359 328 359 401 q 374 214 359 260 q 423 115 388 168 q 378 65 391 87 q 359 0 366 43 q 398 7 386 4 q 446 26 410 11 q 537 50 504 50 q 583 33 565 50 q 600 -10 600 16 q 583 -55 600 -37 q 538 -73 565 -73 q 452 -47 510 -73 q 401 -30 420 -35 q 359 -25 387 -26 q 368 -80 365 -66 q 382 -117 372 -93 q 416 -229 416 -192 q 397 -279 416 -259 q 348 -300 377 -300 q 300 -279 319 -300 q 280 -227 280 -258 q 284 -193 280 -211 q 311 -115 289 -175 q 332 -25 328 -71 q 284 -31 302 -26 q 234 -50 267 -35 q 157 -73 182 -73 q 113 -56 130 -73 q 96 -13 96 -39 q 114 32 96 15 q 161 50 132 50 q 237 28 188 50 q 289 9 271 14 q 332 5 303 6 q 314 67 326 46 q 267 115 301 89 q 312 197 298 157 q 333 336 333 258 q 311 475 333 416 q 267 547 298 512 q 312 593 300 571 q 332 662 325 615 q 293 657 304 660 q 234 635 281 654 q 154 616 187 616 q 111 633 128 616 q 94 676 94 650 q 111 718 94 701 q 153 734 127 734 q 242 711 184 734 q 294 693 277 697 q 332 688 306 690 q 327 730 331 717 q 296 818 319 758 q 281 859 282 854 q 278 889 278 871 q 298 944 278 923 q 347 964 317 964 q 394 945 376 964 q 412 886 412 925 q 409 852 412 865 q 384 790 405 838 q 359 688 363 743 q 402 693 389 690 q 454 712 415 696 q 539 734 505 734 q 583 718 566 734 q 600 675 600 701 q 583 632 600 649 q 536 615 565 615 q 451 637 505 615 q 403 656 416 653 q 359 662 389 660 z "},"·":{"ha":347,"x_min":98,"x_max":249,"o":"m 174 535 q 227 513 205 535 q 249 460 249 491 q 227 407 249 429 q 174 385 205 385 q 120 407 142 385 q 98 460 98 429 q 120 513 98 491 q 174 535 142 535 z "},"∙":{"ha":347,"x_min":98,"x_max":249,"o":"m 174 535 q 227 513 205 535 q 249 460 249 491 q 227 407 249 429 q 174 385 205 385 q 120 407 142 385 q 98 460 98 429 q 120 513 98 491 q 174 535 142 535 z "},"‚":{"ha":463,"x_min":138,"x_max":340,"o":"m 138 -231 l 138 -201 q 246 -130 208 -178 q 284 -27 284 -81 q 278 -5 284 -14 q 269 1 273 1 q 236 -13 261 1 q 210 -19 224 -19 q 157 1 177 -19 q 138 55 138 20 q 163 112 138 88 q 225 136 189 136 q 305 97 270 136 q 340 -7 340 58 q 291 -137 340 -77 q 138 -231 243 -197 z "},"„":{"ha":616,"x_min":45,"x_max":577,"o":"m 78 -214 l 78 -186 q 168 -116 146 -147 q 189 -43 189 -84 q 182 -14 189 -24 q 166 -5 175 -5 q 144 -10 159 -5 q 115 -16 130 -16 q 66 5 86 -16 q 45 54 45 25 q 72 111 45 87 q 135 136 98 136 q 216 97 180 136 q 252 -1 252 58 q 207 -131 252 -72 q 78 -214 161 -190 m 401 -214 l 401 -186 q 487 -121 460 -155 q 513 -47 513 -87 q 506 -14 513 -23 q 491 -5 499 -5 q 467 -10 482 -5 q 440 -16 452 -16 q 392 5 412 -16 q 371 56 371 26 q 396 112 371 88 q 458 136 421 136 q 541 96 504 136 q 577 -1 577 56 q 532 -128 577 -69 q 401 -214 487 -186 z "},"‰":{"ha":1389,"x_min":44,"x_max":1343,"o":"m 827 941 l 168 -37 l 108 -37 l 767 941 l 827 941 m 239 941 q 338 910 292 941 q 410 821 384 880 q 436 692 436 763 q 378 512 436 578 q 242 447 321 447 q 145 477 192 447 q 71 564 98 507 q 44 693 44 621 q 71 823 44 764 q 143 911 97 882 q 239 941 189 941 m 237 905 q 203 894 216 905 q 168 835 180 874 q 153 690 153 783 q 185 515 153 564 q 241 481 208 481 q 294 516 272 481 q 328 699 328 569 q 295 869 328 820 q 237 905 271 905 m 698 456 q 793 426 747 456 q 866 338 839 396 q 892 212 892 279 q 866 81 892 138 q 792 -7 840 24 q 696 -37 744 -37 q 560 29 619 -37 q 500 209 500 95 q 528 339 500 280 q 603 427 555 398 q 698 456 650 456 m 695 420 q 659 408 674 420 q 622 346 635 388 q 609 203 609 303 q 640 33 609 81 q 694 0 662 0 q 750 34 728 0 q 783 205 783 85 q 749 386 783 333 q 695 420 728 420 m 1147 456 q 1242 427 1193 456 q 1317 341 1291 397 q 1343 217 1343 286 q 1319 80 1343 135 q 1246 -6 1295 24 q 1148 -37 1198 -37 q 1052 -7 1099 -37 q 980 79 1006 23 q 954 204 954 135 q 979 342 954 283 q 1055 428 1005 400 q 1147 456 1104 456 m 1147 420 q 1093 389 1113 420 q 1062 206 1062 339 q 1093 34 1062 82 q 1149 0 1116 0 q 1185 13 1170 0 q 1222 77 1208 33 q 1235 223 1235 121 q 1203 386 1235 338 q 1147 420 1179 420 z "},"Â":{"ha":1003,"x_min":11,"x_max":987,"o":"m 635 308 l 279 308 l 217 163 q 194 83 194 109 q 214 46 194 62 q 300 25 234 30 l 300 0 l 11 0 l 11 25 q 85 52 68 35 q 162 184 120 84 l 486 941 l 509 941 l 829 176 q 900 56 868 83 q 987 25 931 28 l 987 0 l 625 0 l 625 25 q 699 43 680 28 q 718 81 718 59 q 691 176 718 111 l 635 308 m 616 358 l 460 730 l 300 358 l 616 358 m 436 1216 l 561 1216 l 690 991 l 669 991 l 484 1136 l 328 991 l 308 991 l 436 1216 z "},"Ê":{"ha":848,"x_min":28,"x_max":817,"o":"m 290 869 l 290 506 l 492 506 q 597 530 571 506 q 637 640 633 561 l 662 640 l 662 319 l 637 319 q 618 406 627 387 q 578 443 606 429 q 492 456 550 456 l 290 456 l 290 153 q 296 79 290 92 q 315 58 301 66 q 366 50 328 50 l 522 50 q 635 61 600 50 q 703 104 671 72 q 789 231 745 146 l 817 231 l 737 0 l 28 0 l 28 25 l 61 25 q 123 41 94 25 q 152 73 144 52 q 160 162 160 95 l 160 760 q 142 867 160 847 q 61 895 118 895 l 28 895 l 28 920 l 737 920 l 747 718 l 721 718 q 689 818 707 791 q 638 859 672 845 q 543 869 611 869 l 290 869 m 364 1216 l 489 1216 l 618 991 l 597 991 l 412 1136 l 256 991 l 236 991 l 364 1216 z "},"Á":{"ha":1003,"x_min":11,"x_max":987,"o":"m 635 308 l 279 308 l 217 163 q 194 83 194 109 q 214 46 194 62 q 300 25 234 30 l 300 0 l 11 0 l 11 25 q 85 52 68 35 q 162 184 120 84 l 486 941 l 509 941 l 829 176 q 900 56 868 83 q 987 25 931 28 l 987 0 l 625 0 l 625 25 q 699 43 680 28 q 718 81 718 59 q 691 176 718 111 l 635 308 m 616 358 l 460 730 l 300 358 l 616 358 m 650 1219 l 450 985 l 427 985 l 498 1219 l 650 1219 z "},"Ë":{"ha":848,"x_min":28,"x_max":817,"o":"m 290 869 l 290 506 l 492 506 q 597 530 571 506 q 637 640 633 561 l 662 640 l 662 319 l 637 319 q 618 406 627 387 q 578 443 606 429 q 492 456 550 456 l 290 456 l 290 153 q 296 79 290 92 q 315 58 301 66 q 366 50 328 50 l 522 50 q 635 61 600 50 q 703 104 671 72 q 789 231 745 146 l 817 231 l 737 0 l 28 0 l 28 25 l 61 25 q 123 41 94 25 q 152 73 144 52 q 160 162 160 95 l 160 760 q 142 867 160 847 q 61 895 118 895 l 28 895 l 28 920 l 737 920 l 747 718 l 721 718 q 689 818 707 791 q 638 859 672 845 q 543 869 611 869 l 290 869 m 546 1158 q 598 1137 576 1158 q 619 1084 619 1115 q 598 1033 619 1054 q 546 1011 576 1011 q 494 1033 515 1011 q 472 1084 472 1054 q 494 1137 472 1115 q 546 1158 515 1158 m 307 1158 q 359 1137 338 1158 q 380 1084 380 1115 q 359 1033 380 1054 q 307 1011 337 1011 q 255 1033 277 1011 q 233 1084 233 1054 q 255 1137 233 1115 q 307 1158 276 1158 z "},"È":{"ha":848,"x_min":28,"x_max":817,"o":"m 290 869 l 290 506 l 492 506 q 597 530 571 506 q 637 640 633 561 l 662 640 l 662 319 l 637 319 q 618 406 627 387 q 578 443 606 429 q 492 456 550 456 l 290 456 l 290 153 q 296 79 290 92 q 315 58 301 66 q 366 50 328 50 l 522 50 q 635 61 600 50 q 703 104 671 72 q 789 231 745 146 l 817 231 l 737 0 l 28 0 l 28 25 l 61 25 q 123 41 94 25 q 152 73 144 52 q 160 162 160 95 l 160 760 q 142 867 160 847 q 61 895 118 895 l 28 895 l 28 920 l 737 920 l 747 718 l 721 718 q 689 818 707 791 q 638 859 672 845 q 543 869 611 869 l 290 869 m 275 1219 l 427 1219 l 498 985 l 475 985 l 275 1219 z "},"Í":{"ha":463,"x_min":35,"x_max":429,"o":"m 429 25 l 429 0 l 35 0 l 35 25 l 67 25 q 150 58 124 25 q 166 163 166 80 l 166 757 q 157 849 166 827 q 130 878 151 866 q 67 895 100 895 l 35 895 l 35 920 l 429 920 l 429 895 l 395 895 q 313 861 339 895 q 296 757 296 840 l 296 163 q 305 71 296 93 q 334 41 312 54 q 395 25 363 25 l 429 25 m 383 1219 l 183 985 l 160 985 l 231 1219 l 383 1219 z "},"Î":{"ha":463,"x_min":35,"x_max":429,"o":"m 429 25 l 429 0 l 35 0 l 35 25 l 67 25 q 150 58 124 25 q 166 163 166 80 l 166 757 q 157 849 166 827 q 130 878 151 866 q 67 895 100 895 l 35 895 l 35 920 l 429 920 l 429 895 l 395 895 q 313 861 339 895 q 296 757 296 840 l 296 163 q 305 71 296 93 q 334 41 312 54 q 395 25 363 25 l 429 25 m 169 1216 l 294 1216 l 422 991 l 401 991 l 216 1136 l 61 991 l 41 991 l 169 1216 z "},"Ï":{"ha":463,"x_min":35,"x_max":429,"o":"m 429 25 l 429 0 l 35 0 l 35 25 l 67 25 q 150 58 124 25 q 166 163 166 80 l 166 757 q 157 849 166 827 q 130 878 151 866 q 67 895 100 895 l 35 895 l 35 920 l 429 920 l 429 895 l 395 895 q 313 861 339 895 q 296 757 296 840 l 296 163 q 305 71 296 93 q 334 41 312 54 q 395 25 363 25 l 429 25 m 351 1158 q 402 1137 381 1158 q 424 1084 424 1115 q 402 1033 424 1054 q 351 1011 381 1011 q 298 1033 320 1011 q 277 1084 277 1054 q 298 1137 277 1115 q 351 1158 320 1158 m 111 1158 q 164 1137 142 1158 q 185 1084 185 1115 q 163 1033 185 1054 q 112 1011 142 1011 q 60 1033 81 1011 q 38 1084 38 1054 q 59 1137 38 1115 q 111 1158 81 1158 z "},"Ì":{"ha":463,"x_min":35,"x_max":429,"o":"m 429 25 l 429 0 l 35 0 l 35 25 l 67 25 q 150 58 124 25 q 166 163 166 80 l 166 757 q 157 849 166 827 q 130 878 151 866 q 67 895 100 895 l 35 895 l 35 920 l 429 920 l 429 895 l 395 895 q 313 861 339 895 q 296 757 296 840 l 296 163 q 305 71 296 93 q 334 41 312 54 q 395 25 363 25 l 429 25 m 81 1219 l 232 1219 l 304 985 l 280 985 l 81 1219 z "},"Ó":{"ha":1003,"x_min":49,"x_max":949,"o":"m 508 941 q 818 805 687 941 q 949 465 949 669 q 817 117 949 256 q 497 -21 685 -21 q 178 114 307 -21 q 49 463 49 249 q 198 821 49 682 q 508 941 328 941 m 495 891 q 297 800 372 891 q 204 466 204 686 q 300 119 204 241 q 496 27 374 27 q 710 128 625 27 q 794 447 794 229 q 701 799 794 683 q 495 891 627 891 m 649 1219 l 449 985 l 426 985 l 497 1219 l 649 1219 z "},"Ô":{"ha":1003,"x_min":49,"x_max":949,"o":"m 508 941 q 818 805 687 941 q 949 465 949 669 q 817 117 949 256 q 497 -21 685 -21 q 178 114 307 -21 q 49 463 49 249 q 198 821 49 682 q 508 941 328 941 m 495 891 q 297 800 372 891 q 204 466 204 686 q 300 119 204 241 q 496 27 374 27 q 710 128 625 27 q 794 447 794 229 q 701 799 794 683 q 495 891 627 891 m 435 1216 l 559 1216 l 688 991 l 667 991 l 482 1136 l 327 991 l 307 991 l 435 1216 z "},"Ò":{"ha":1003,"x_min":49,"x_max":949,"o":"m 508 941 q 818 805 687 941 q 949 465 949 669 q 817 117 949 256 q 497 -21 685 -21 q 178 114 307 -21 q 49 463 49 249 q 198 821 49 682 q 508 941 328 941 m 495 891 q 297 800 372 891 q 204 466 204 686 q 300 119 204 241 q 496 27 374 27 q 710 128 625 27 q 794 447 794 229 q 701 799 794 683 q 495 891 627 891 m 347 1219 l 498 1219 l 570 985 l 546 985 l 347 1219 z "},"Ú":{"ha":1003,"x_min":7,"x_max":988,"o":"m 663 895 l 663 920 l 988 920 l 988 895 l 954 895 q 870 849 899 895 q 856 751 856 828 l 856 378 q 828 164 856 240 q 721 33 801 87 q 502 -22 640 -22 q 273 31 351 -22 q 163 171 195 83 q 141 397 141 231 l 141 757 q 118 868 141 842 q 42 895 94 895 l 7 895 l 7 920 l 405 920 l 405 895 l 370 895 q 288 859 313 895 q 271 757 271 834 l 271 356 q 281 233 271 302 q 317 125 291 164 q 391 62 342 87 q 510 37 439 37 q 671 76 600 37 q 769 177 743 115 q 795 385 795 238 l 795 757 q 776 865 795 843 q 697 895 749 895 l 663 895 m 651 1219 l 451 985 l 428 985 l 499 1219 l 651 1219 z "},"Û":{"ha":1003,"x_min":7,"x_max":988,"o":"m 663 895 l 663 920 l 988 920 l 988 895 l 954 895 q 870 849 899 895 q 856 751 856 828 l 856 378 q 828 164 856 240 q 721 33 801 87 q 502 -22 640 -22 q 273 31 351 -22 q 163 171 195 83 q 141 397 141 231 l 141 757 q 118 868 141 842 q 42 895 94 895 l 7 895 l 7 920 l 405 920 l 405 895 l 370 895 q 288 859 313 895 q 271 757 271 834 l 271 356 q 281 233 271 302 q 317 125 291 164 q 391 62 342 87 q 510 37 439 37 q 671 76 600 37 q 769 177 743 115 q 795 385 795 238 l 795 757 q 776 865 795 843 q 697 895 749 895 l 663 895 m 469 1216 l 593 1216 l 722 991 l 701 991 l 516 1136 l 361 991 l 340 991 l 469 1216 z "},"Ù":{"ha":1003,"x_min":7,"x_max":988,"o":"m 663 895 l 663 920 l 988 920 l 988 895 l 954 895 q 870 849 899 895 q 856 751 856 828 l 856 378 q 828 164 856 240 q 721 33 801 87 q 502 -22 640 -22 q 273 31 351 -22 q 163 171 195 83 q 141 397 141 231 l 141 757 q 118 868 141 842 q 42 895 94 895 l 7 895 l 7 920 l 405 920 l 405 895 l 370 895 q 288 859 313 895 q 271 757 271 834 l 271 356 q 281 233 271 302 q 317 125 291 164 q 391 62 342 87 q 510 37 439 37 q 671 76 600 37 q 769 177 743 115 q 795 385 795 238 l 795 757 q 776 865 795 843 q 697 895 749 895 l 663 895 m 381 1219 l 532 1219 l 604 985 l 581 985 l 381 1219 z "},"ı":{"ha":386,"x_min":41,"x_max":352,"o":"m 257 640 l 257 140 q 266 63 257 82 q 291 34 275 43 q 352 24 308 24 l 352 0 l 50 0 l 50 24 q 111 33 96 24 q 136 62 127 42 q 145 140 145 83 l 145 380 q 139 511 145 481 q 124 541 134 532 q 96 549 114 549 q 50 539 77 549 l 41 564 l 228 640 l 257 640 z "},"ˆ":{"ha":463,"x_min":41,"x_max":422,"o":"m 169 939 l 294 939 l 422 715 l 401 715 l 216 859 l 61 715 l 41 715 l 169 939 z "},"˜":{"ha":463,"x_min":15,"x_max":449,"o":"m 37 744 l 15 744 q 54 878 18 837 q 142 920 90 920 q 193 911 170 920 q 280 862 224 899 q 363 825 336 825 q 401 844 385 825 q 427 920 418 862 l 448 920 q 432 820 449 857 q 383 762 414 783 q 319 741 351 741 q 186 795 266 741 q 129 831 144 825 q 100 837 114 837 q 56 812 72 837 q 37 744 48 801 z "},"ˉ":{"ha":463,"x_min":16,"x_max":448,"o":"m 16 918 l 448 918 l 448 831 l 16 831 l 16 918 z "},"˘":{"ha":463,"x_min":37,"x_max":425,"o":"m 37 921 l 58 921 q 110 863 81 880 q 233 833 159 833 q 355 862 307 833 q 403 921 389 882 l 425 921 q 363 784 419 837 q 231 731 307 731 q 100 784 156 731 q 37 921 45 836 z "},"˙":{"ha":463,"x_min":158,"x_max":306,"o":"m 232 907 q 284 885 262 907 q 306 833 306 863 q 284 781 306 802 q 232 759 262 759 q 180 781 201 759 q 158 833 158 802 q 179 885 158 863 q 232 907 201 907 z "},"˚":{"ha":463,"x_min":102,"x_max":361,"o":"m 231 966 q 323 928 286 966 q 361 836 361 890 q 323 744 361 782 q 231 706 286 706 q 140 744 178 706 q 102 836 102 782 q 139 928 102 890 q 231 966 177 966 m 231 919 q 173 895 197 919 q 149 836 149 871 q 173 778 149 802 q 231 753 197 753 q 290 778 266 753 q 314 836 314 802 q 290 895 314 871 q 231 919 266 919 z "},"¸":{"ha":463,"x_min":127,"x_max":336,"o":"m 245 11 l 286 11 l 252 -43 q 315 -79 294 -54 q 336 -142 336 -105 q 296 -228 336 -191 q 191 -264 255 -264 q 127 -260 165 -264 l 127 -231 q 159 -233 146 -233 q 218 -211 194 -233 q 241 -159 241 -188 q 226 -123 241 -138 q 187 -109 210 -109 q 170 -110 180 -109 l 245 11 z "},"˝":{"ha":463,"x_min":53,"x_max":437,"o":"m 98 943 l 224 943 l 75 708 l 53 708 l 98 943 m 310 943 l 437 943 l 289 708 l 266 708 l 310 943 z "},"˛":{"ha":463,"x_min":100,"x_max":412,"o":"m 155 11 l 190 11 q 172 -56 172 -24 q 208 -146 172 -113 q 317 -189 254 -189 q 398 -173 356 -189 l 412 -195 q 323 -237 353 -228 q 256 -246 293 -246 q 141 -210 182 -246 q 100 -121 100 -173 q 115 -49 100 -85 q 155 11 130 -13 z "},"ˇ":{"ha":463,"x_min":41,"x_max":422,"o":"m 294 715 l 170 715 l 41 939 l 62 939 l 247 795 l 402 939 l 422 939 l 294 715 z "},"Ł":{"ha":848,"x_min":15,"x_max":813,"o":"m 736 0 l 25 0 l 25 25 l 54 25 q 116 41 85 25 q 147 74 138 52 q 155 165 155 96 l 155 368 l 15 255 l 15 317 l 155 435 l 155 754 q 148 849 155 831 q 117 881 140 867 q 54 895 94 895 l 25 895 l 25 920 l 433 920 l 433 895 l 393 895 q 322 879 345 895 q 290 833 299 864 q 286 754 286 818 l 286 543 l 439 670 l 439 606 l 286 475 l 286 168 q 293 92 286 108 q 321 67 300 77 q 398 60 335 60 l 501 60 q 632 70 600 60 q 721 128 679 83 q 791 255 762 172 l 813 250 l 736 0 z "},"ł":{"ha":386,"x_min":20,"x_max":374,"o":"m 258 964 l 258 552 l 374 648 l 374 590 l 258 494 l 258 140 q 265 59 258 75 q 288 36 272 43 q 357 24 313 23 l 357 0 l 43 0 l 43 24 l 60 24 q 117 36 96 24 q 139 62 132 45 q 146 147 146 80 l 146 404 l 20 300 l 20 357 l 146 462 l 146 703 q 140 829 146 804 q 124 857 137 846 q 96 868 111 868 q 50 857 84 868 l 43 881 l 236 964 l 258 964 z "},"Š":{"ha":772,"x_min":87,"x_max":698,"o":"m 637 941 l 637 623 l 612 623 q 568 768 600 714 q 478 854 536 823 q 357 886 420 886 q 241 843 287 886 q 195 745 195 800 q 224 669 195 703 q 424 533 266 618 q 600 427 553 464 q 672 340 647 390 q 698 235 698 290 q 617 55 698 130 q 408 -21 536 -21 q 333 -15 368 -21 q 246 10 312 -12 q 162 31 180 31 q 135 21 145 31 q 121 -21 125 11 l 96 -21 l 96 294 l 121 294 q 168 146 138 195 q 259 64 198 97 q 394 32 321 32 q 528 77 479 32 q 577 182 577 121 q 558 251 577 216 q 500 315 540 286 q 356 402 474 336 q 188 507 238 468 q 113 594 138 547 q 87 699 87 642 q 163 869 87 798 q 356 941 239 941 q 511 905 429 941 q 565 888 549 888 q 594 898 583 888 q 612 941 605 909 l 637 941 m 446 991 l 321 991 l 192 1216 l 213 1216 l 398 1072 l 553 1216 l 574 1216 l 446 991 z "},"š":{"ha":541,"x_min":68,"x_max":492,"o":"m 445 640 l 445 428 l 422 428 q 356 564 397 528 q 254 600 316 600 q 177 574 206 600 q 148 519 148 549 q 170 454 148 481 q 255 395 191 426 l 354 347 q 492 170 492 279 q 428 33 492 85 q 284 -19 363 -19 q 154 1 227 -19 q 117 8 132 8 q 93 -9 102 8 l 71 -9 l 71 212 l 93 212 q 165 69 112 117 q 286 21 219 21 q 362 48 332 21 q 391 115 391 76 q 358 193 391 161 q 227 274 326 225 q 98 362 129 323 q 68 460 68 401 q 120 588 68 536 q 256 640 173 640 q 345 624 293 640 q 391 614 380 614 q 408 618 402 614 q 422 640 414 623 l 445 640 m 333 715 l 208 715 l 79 939 l 100 939 l 286 795 l 441 939 l 461 939 l 333 715 z "},"Ž":{"ha":848,"x_min":18,"x_max":810,"o":"m 799 920 l 195 56 l 572 56 q 705 94 659 56 q 787 248 751 132 l 810 243 l 766 0 l 18 0 l 18 25 l 608 865 l 313 865 q 207 849 240 865 q 157 803 174 833 q 125 690 140 772 l 100 690 l 119 920 l 799 920 m 498 991 l 373 991 l 244 1216 l 265 1216 l 450 1072 l 606 1216 l 626 1216 l 498 991 z "},"ž":{"ha":616,"x_min":28,"x_max":594,"o":"m 583 191 l 576 0 l 28 0 l 28 24 l 440 574 l 237 574 q 151 565 171 574 q 117 533 130 557 q 96 449 99 499 l 69 449 l 73 621 l 594 621 l 594 596 l 178 45 l 404 45 q 501 57 475 45 q 542 99 526 69 q 560 191 553 121 l 583 191 m 382 715 l 257 715 l 128 939 l 149 939 l 334 795 l 490 939 l 510 939 l 382 715 z "},"¦":{"ha":278,"x_min":109,"x_max":165,"o":"m 165 964 l 165 461 l 109 461 l 109 964 l 165 964 m 165 203 l 165 -300 l 109 -300 l 109 203 l 165 203 z "},"Ð":{"ha":1003,"x_min":24,"x_max":949,"o":"m 24 0 l 24 25 l 58 25 q 142 63 117 25 q 156 163 156 85 l 156 460 l 24 460 l 24 510 l 156 510 l 156 757 q 137 865 156 843 q 58 895 111 895 l 24 895 l 24 920 l 398 920 q 714 871 612 920 q 883 716 817 823 q 949 466 949 609 q 825 136 949 271 q 434 0 701 0 l 24 0 m 287 68 q 431 49 373 49 q 692 159 588 49 q 795 459 795 270 q 692 760 795 650 q 426 869 588 869 q 287 850 365 869 l 287 510 l 553 510 l 553 460 l 287 460 l 287 68 z "},"ð":{"ha":694,"x_min":46,"x_max":644,"o":"m 318 793 l 151 701 l 130 739 l 288 828 q 221 892 243 873 q 161 935 198 911 l 179 964 q 347 859 260 924 l 515 954 l 538 916 l 383 828 q 578 582 512 716 q 644 321 644 447 q 605 148 644 227 q 495 25 566 69 q 338 -19 425 -19 q 132 72 217 -19 q 46 299 46 162 q 140 547 46 442 q 331 634 220 634 q 391 625 364 634 q 446 594 412 618 q 318 793 391 706 m 325 593 q 216 538 260 593 q 172 351 172 483 q 199 181 172 259 q 273 66 227 104 q 371 28 320 28 q 475 82 433 28 q 518 256 518 136 q 465 500 518 408 q 325 593 411 593 z "},"Ý":{"ha":1003,"x_min":13,"x_max":983,"o":"m 662 920 l 983 920 l 983 895 l 965 895 q 913 879 947 895 q 852 834 880 863 q 783 739 824 805 l 562 390 l 562 159 q 581 54 562 75 q 662 25 606 25 l 692 25 l 692 0 l 301 0 l 301 25 l 334 25 q 416 60 392 25 q 431 159 431 82 l 431 377 l 179 762 q 118 847 134 830 q 52 888 102 864 q 13 895 39 895 l 13 920 l 406 920 l 406 895 l 386 895 q 327 880 354 895 q 300 835 300 865 q 342 747 300 810 l 534 450 l 714 734 q 755 829 755 798 q 745 863 755 848 q 717 886 735 878 q 662 895 699 895 l 662 920 m 675 1219 l 475 985 l 452 985 l 524 1219 l 675 1219 z "},"ý":{"ha":694,"x_min":8,"x_max":686,"o":"m 8 621 l 298 621 l 298 596 l 283 596 q 238 583 253 596 q 222 550 222 570 q 245 477 222 524 l 396 163 l 535 507 q 547 562 547 534 q 542 580 547 574 q 525 592 536 587 q 484 596 513 596 l 484 621 l 686 621 l 686 596 q 648 585 661 593 q 618 555 634 577 q 595 503 612 545 l 342 -117 q 246 -254 305 -208 q 132 -300 186 -300 q 66 -277 92 -300 q 40 -224 40 -254 q 59 -178 40 -195 q 110 -161 77 -161 q 171 -176 132 -161 q 205 -186 198 -186 q 249 -165 225 -186 q 298 -83 273 -144 l 342 24 l 119 493 q 86 545 109 514 q 58 577 69 569 q 8 596 43 588 l 8 621 m 496 943 l 296 709 l 273 709 l 345 943 l 496 943 z "},"Þ":{"ha":772,"x_min":24,"x_max":719,"o":"m 285 711 l 335 711 q 487 703 437 711 q 609 659 560 690 q 688 576 657 628 q 719 461 719 525 q 699 365 719 409 q 646 288 680 320 q 571 237 613 256 q 462 210 529 218 q 332 206 437 206 l 285 206 l 285 165 q 308 51 285 77 q 389 25 332 25 l 416 25 l 416 0 l 24 0 l 24 25 l 50 25 q 140 63 113 25 q 154 163 154 82 l 154 751 q 146 847 154 829 q 114 880 139 865 q 52 895 88 895 l 24 895 l 24 920 l 416 920 l 416 895 l 389 895 q 326 879 359 895 q 295 846 305 869 q 285 755 285 822 l 285 711 m 285 658 l 285 254 l 315 254 q 444 273 397 254 q 534 347 505 299 q 563 459 563 395 q 542 553 563 510 q 487 620 521 595 q 410 652 452 644 q 317 658 383 658 l 285 658 z "},"þ":{"ha":694,"x_min":-5,"x_max":647,"o":"m -1 887 l 190 964 l 216 964 l 216 492 q 312 607 264 574 q 414 640 361 640 q 570 566 508 640 q 647 333 647 477 q 555 67 647 172 q 363 -19 479 -19 q 277 -5 313 -19 q 216 36 250 5 l 216 -153 q 223 -233 216 -216 q 251 -260 231 -250 q 321 -271 270 -271 l 321 -296 l -5 -296 l -5 -271 l 12 -271 q 76 -257 50 -272 q 96 -233 89 -250 q 103 -149 103 -216 l 103 766 q 98 843 103 826 q 80 867 92 859 q 48 876 68 876 q 7 865 32 876 l -1 887 m 216 452 l 216 220 q 222 121 216 144 q 268 52 231 81 q 361 22 305 22 q 471 75 429 22 q 526 269 526 144 q 464 488 526 412 q 361 541 420 541 q 296 525 328 541 q 216 452 272 513 z "},"−":{"ha":783,"x_min":25,"x_max":756,"o":"m 756 434 l 25 434 l 25 490 l 756 490 l 756 434 z "},"×":{"ha":783,"x_min":112,"x_max":669,"o":"m 112 222 l 351 462 l 113 701 l 152 740 l 391 501 l 629 740 l 667 701 l 429 463 l 669 222 l 630 183 l 390 423 l 151 184 l 112 222 z "},"¹":{"ha":416,"x_min":92,"x_max":323,"o":"m 92 880 l 231 939 l 255 939 l 255 537 q 259 487 255 496 q 270 477 262 481 q 323 472 281 472 l 323 450 l 103 450 l 103 472 q 157 477 146 472 q 169 488 165 480 q 172 537 172 495 l 172 791 q 169 854 172 839 q 162 870 167 865 q 149 874 157 874 q 103 861 135 874 l 92 880 z "},"²":{"ha":416,"x_min":14,"x_max":390,"o":"m 390 553 l 349 450 l 14 450 l 14 470 q 236 682 181 600 q 270 779 270 732 q 242 849 270 821 q 171 877 214 877 q 103 857 132 877 q 59 797 74 837 l 28 797 q 81 901 38 863 q 193 939 124 939 q 310 899 264 939 q 355 811 355 860 q 322 715 355 766 q 122 515 271 636 l 248 515 q 327 524 307 515 q 359 553 346 532 l 390 553 z "},"³":{"ha":416,"x_min":30,"x_max":355,"o":"m 37 833 q 92 907 62 884 q 193 939 136 939 q 292 907 256 939 q 328 839 328 876 q 256 734 328 793 q 330 683 305 716 q 355 610 355 650 q 297 490 355 541 q 130 440 239 440 q 47 456 73 440 q 30 483 30 468 q 41 504 30 494 q 70 513 52 513 q 125 497 89 513 q 186 481 161 481 q 252 508 224 481 q 279 570 279 534 q 261 629 279 601 q 214 667 243 656 q 142 683 174 683 l 121 683 l 121 702 q 209 734 174 702 q 245 807 245 766 q 222 861 245 840 q 163 882 200 882 q 63 823 105 882 l 37 833 z "},"½":{"ha":1042,"x_min":91,"x_max":1013,"o":"m 91 880 l 230 939 l 254 939 l 254 537 q 258 487 254 496 q 269 477 261 481 q 322 472 279 472 l 322 450 l 102 450 l 102 472 q 156 477 145 472 q 168 488 164 480 q 171 537 171 495 l 171 791 q 168 854 171 839 q 160 870 165 865 q 147 874 155 874 q 102 861 134 874 l 91 880 m 860 939 l 226 -37 l 165 -37 l 800 939 l 860 939 m 1013 77 l 972 -27 l 637 -27 l 637 -7 q 859 205 804 123 q 893 302 893 256 q 865 372 893 344 q 794 400 837 400 q 726 380 755 400 q 682 320 697 360 l 652 320 q 704 424 661 386 q 816 462 747 462 q 933 422 888 462 q 978 334 978 382 q 945 238 978 290 q 745 39 895 159 l 872 39 q 950 46 930 39 q 983 77 969 54 l 1013 77 z "},"¼":{"ha":1042,"x_min":91,"x_max":1018,"o":"m 91 880 l 230 939 l 254 939 l 254 537 q 258 487 254 496 q 269 477 261 481 q 322 472 279 472 l 322 450 l 102 450 l 102 472 q 156 477 145 472 q 168 488 164 480 q 171 537 171 495 l 171 791 q 168 854 171 839 q 160 870 165 865 q 147 874 155 874 q 102 861 134 874 l 91 880 m 876 939 l 243 -37 l 182 -37 l 816 939 l 876 939 m 1018 152 l 1018 97 l 945 97 l 945 -27 l 865 -27 l 865 97 l 633 97 l 633 146 l 888 462 l 945 462 l 945 152 l 1018 152 m 865 152 l 865 366 l 689 152 l 865 152 z "},"¾":{"ha":1042,"x_min":28,"x_max":1018,"o":"m 866 939 l 235 -37 l 174 -37 l 808 939 l 866 939 m 36 833 q 91 907 60 884 q 192 939 134 939 q 290 907 254 939 q 326 839 326 876 q 255 734 326 793 q 329 683 304 716 q 353 610 353 650 q 295 490 353 541 q 128 440 237 440 q 46 456 71 440 q 28 483 28 468 q 40 504 28 494 q 68 513 51 513 q 123 497 87 513 q 185 481 159 481 q 250 508 223 481 q 277 570 277 534 q 239 652 277 619 q 120 683 201 684 l 120 702 q 208 734 172 702 q 243 807 243 766 q 221 861 243 840 q 161 882 199 882 q 62 823 104 882 l 36 833 m 1018 152 l 1018 97 l 945 97 l 945 -27 l 866 -27 l 866 97 l 633 97 l 633 146 l 888 462 l 945 462 l 945 152 l 1018 152 m 866 152 l 866 366 l 690 152 l 866 152 z "},"₣":{"ha":694,"x_min":22,"x_max":643,"o":"m 284 266 l 470 266 l 470 215 l 284 215 l 284 163 q 293 71 284 93 q 321 41 300 54 q 384 25 351 25 l 417 25 l 417 0 l 22 0 l 22 25 l 55 25 q 138 58 112 25 q 154 163 154 80 l 154 215 l 22 215 l 22 266 l 154 266 l 154 757 q 134 867 154 847 q 55 895 105 895 l 22 895 l 22 920 l 635 920 l 643 718 l 620 718 q 578 812 602 782 q 520 856 555 842 q 415 869 486 869 l 284 869 l 284 508 l 404 508 q 488 533 462 508 q 524 634 515 559 l 549 634 l 549 323 l 524 323 q 510 401 524 376 q 473 439 497 427 q 404 452 450 452 l 284 452 l 284 266 z "},"Ğ":{"ha":1003,"x_min":49,"x_max":983,"o":"m 852 941 l 876 650 l 852 650 q 760 814 817 759 q 549 893 677 893 q 281 754 373 893 q 205 475 205 637 q 256 235 205 343 q 389 76 307 126 q 558 25 471 25 q 656 38 609 25 q 748 76 704 51 l 748 342 q 738 432 748 411 q 705 465 727 454 q 627 476 683 476 l 627 502 l 983 502 l 983 476 l 966 476 q 894 441 913 476 q 880 342 880 416 l 880 60 q 726 -1 802 18 q 557 -21 650 -21 q 153 150 291 -21 q 49 446 49 278 q 107 678 49 567 q 297 882 176 810 q 536 941 398 941 q 627 932 586 941 q 743 897 668 924 q 794 882 781 882 q 816 894 807 882 q 827 941 825 906 l 852 941 m 355 1191 l 376 1191 q 427 1133 398 1149 q 550 1103 476 1103 q 672 1132 624 1103 q 720 1191 707 1152 l 743 1191 q 681 1054 736 1107 q 549 1001 625 1001 q 418 1054 473 1001 q 355 1191 362 1106 z "},"ğ":{"ha":694,"x_min":41,"x_max":669,"o":"m 210 227 q 122 304 153 254 q 92 414 92 354 q 161 573 92 507 q 339 640 231 640 q 493 596 428 640 l 625 596 q 659 594 654 596 q 665 589 663 593 q 669 567 669 583 q 666 543 669 549 q 659 537 664 539 q 625 535 654 535 l 544 535 q 582 410 582 486 q 515 262 582 323 q 337 200 449 200 q 243 214 291 200 q 202 169 213 188 q 192 136 192 149 q 203 113 192 124 q 247 98 214 102 q 342 93 266 95 q 523 83 481 90 q 624 37 586 75 q 661 -57 661 -1 q 589 -201 661 -134 q 313 -300 484 -300 q 92 -241 182 -300 q 41 -170 41 -207 q 49 -138 41 -154 q 96 -68 60 -113 q 165 5 101 -62 q 116 43 130 26 q 101 81 101 60 q 120 136 101 104 q 210 227 140 168 m 328 607 q 243 567 277 607 q 210 444 210 527 q 256 278 210 337 q 345 233 291 233 q 430 272 397 233 q 463 393 463 311 q 416 562 463 501 q 328 607 382 607 m 203 0 q 155 -64 171 -35 q 138 -119 138 -94 q 178 -176 138 -152 q 374 -218 245 -218 q 554 -175 496 -218 q 612 -83 612 -132 q 577 -33 612 -48 q 437 -16 542 -18 q 203 0 285 -12 m 161 921 l 182 921 q 234 863 205 880 q 357 833 283 833 q 479 862 431 833 q 527 921 513 882 l 549 921 q 487 784 543 837 q 355 731 431 731 q 224 784 280 731 q 161 921 169 836 z "},"İ":{"ha":463,"x_min":35,"x_max":429,"o":"m 429 25 l 429 0 l 35 0 l 35 25 l 67 25 q 150 58 124 25 q 166 163 166 80 l 166 757 q 157 849 166 827 q 130 878 151 866 q 67 895 100 895 l 35 895 l 35 920 l 429 920 l 429 895 l 395 895 q 313 861 339 895 q 296 757 296 840 l 296 163 q 305 71 296 93 q 334 41 312 54 q 395 25 363 25 l 429 25 m 231 1159 q 283 1137 262 1159 q 305 1085 305 1116 q 283 1033 305 1055 q 231 1011 262 1011 q 179 1033 201 1011 q 157 1085 157 1055 q 179 1137 157 1116 q 231 1159 200 1159 z "},"Ş":{"ha":772,"x_min":87,"x_max":698,"o":"m 637 941 l 637 623 l 612 623 q 568 768 600 714 q 478 854 536 823 q 357 886 420 886 q 241 843 287 886 q 195 745 195 800 q 224 669 195 703 q 424 533 266 618 q 600 427 553 464 q 672 340 647 390 q 698 235 698 290 q 617 55 698 130 q 408 -21 536 -21 q 333 -15 368 -21 q 246 10 312 -12 q 162 31 180 31 q 135 21 145 31 q 121 -21 125 11 l 96 -21 l 96 294 l 121 294 q 168 146 138 195 q 259 64 198 97 q 394 32 321 32 q 528 77 479 32 q 577 182 577 121 q 558 251 577 216 q 500 315 540 286 q 356 402 474 336 q 188 507 238 468 q 113 594 138 547 q 87 699 87 642 q 163 869 87 798 q 356 941 239 941 q 511 905 429 941 q 565 888 549 888 q 594 898 583 888 q 612 941 605 909 l 637 941 m 377 11 l 418 11 l 384 -43 q 448 -79 427 -54 q 469 -142 469 -105 q 428 -228 469 -191 q 323 -264 387 -264 q 259 -260 298 -264 l 259 -231 q 292 -233 278 -233 q 350 -211 326 -233 q 374 -159 374 -188 q 358 -123 374 -138 q 319 -109 342 -109 q 302 -110 313 -109 l 377 11 z "},"ş":{"ha":541,"x_min":68,"x_max":492,"o":"m 445 640 l 445 428 l 422 428 q 356 564 397 528 q 254 600 316 600 q 177 574 206 600 q 148 519 148 549 q 170 454 148 481 q 255 395 191 426 l 354 347 q 492 170 492 279 q 428 33 492 85 q 284 -19 363 -19 q 154 1 227 -19 q 117 8 132 8 q 93 -9 102 8 l 71 -9 l 71 212 l 93 212 q 165 69 112 117 q 286 21 219 21 q 362 48 332 21 q 391 115 391 76 q 358 193 391 161 q 227 274 326 225 q 98 362 129 323 q 68 460 68 401 q 120 588 68 536 q 256 640 173 640 q 345 624 293 640 q 391 614 380 614 q 408 618 402 614 q 422 640 414 623 l 445 640 m 273 11 l 313 11 l 279 -43 q 343 -79 322 -54 q 364 -142 364 -105 q 323 -228 364 -191 q 218 -264 283 -264 q 155 -260 193 -264 l 155 -231 q 187 -233 174 -233 q 245 -211 222 -233 q 269 -159 269 -188 q 254 -123 269 -138 q 215 -109 238 -109 q 197 -110 208 -109 l 273 11 z "},"Ć":{"ha":926,"x_min":50,"x_max":878,"o":"m 836 941 l 857 628 l 836 628 q 716 830 794 768 q 529 892 638 892 q 363 845 437 892 q 247 697 290 799 q 205 444 205 595 q 245 228 205 319 q 365 87 285 136 q 549 39 446 39 q 707 77 638 39 q 857 229 775 115 l 878 216 q 717 36 809 93 q 498 -21 625 -21 q 144 149 269 -21 q 50 446 50 275 q 112 699 50 583 q 282 877 174 814 q 518 941 390 941 q 715 892 618 941 q 755 877 743 877 q 787 890 774 877 q 812 941 805 908 l 836 941 m 663 1219 l 463 985 l 439 985 l 511 1219 l 663 1219 z "},"ć":{"ha":616,"x_min":47,"x_max":571,"o":"m 571 236 q 473 47 546 113 q 311 -19 399 -19 q 126 70 205 -19 q 47 310 47 159 q 135 548 47 456 q 344 640 222 640 q 494 591 435 640 q 553 490 553 543 q 537 449 553 465 q 490 433 520 433 q 430 458 450 433 q 415 513 418 473 q 387 574 411 553 q 321 594 363 594 q 212 544 254 594 q 157 368 157 477 q 212 172 157 257 q 359 87 267 87 q 479 132 426 87 q 551 245 516 163 l 571 236 m 483 943 l 283 709 l 260 709 l 331 943 l 483 943 z "},"Č":{"ha":926,"x_min":50,"x_max":878,"o":"m 836 941 l 857 628 l 836 628 q 716 830 794 768 q 529 892 638 892 q 363 845 437 892 q 247 697 290 799 q 205 444 205 595 q 245 228 205 319 q 365 87 285 136 q 549 39 446 39 q 707 77 638 39 q 857 229 775 115 l 878 216 q 717 36 809 93 q 498 -21 625 -21 q 144 149 269 -21 q 50 446 50 275 q 112 699 50 583 q 282 877 174 814 q 518 941 390 941 q 715 892 618 941 q 755 877 743 877 q 787 890 774 877 q 812 941 805 908 l 836 941 m 576 991 l 452 991 l 323 1216 l 344 1216 l 529 1072 l 684 1216 l 705 1216 l 576 991 z "},"č":{"ha":616,"x_min":47,"x_max":571,"o":"m 571 236 q 473 47 546 113 q 311 -19 399 -19 q 126 70 205 -19 q 47 310 47 159 q 135 548 47 456 q 344 640 222 640 q 494 591 435 640 q 553 490 553 543 q 537 449 553 465 q 490 433 520 433 q 430 458 450 433 q 415 513 418 473 q 387 574 411 553 q 321 594 363 594 q 212 544 254 594 q 157 368 157 477 q 212 172 157 257 q 359 87 267 87 q 479 132 426 87 q 551 245 516 163 l 571 236 m 397 715 l 272 715 l 143 939 l 164 939 l 349 795 l 505 939 l 525 939 l 397 715 z "},"đ":{"ha":694,"x_min":26,"x_max":677,"o":"m 462 724 l 264 724 l 264 780 l 461 780 q 447 860 458 845 q 414 876 436 876 q 367 865 396 876 l 358 888 l 543 964 l 574 964 l 574 780 l 677 780 l 677 724 l 574 724 l 574 246 q 579 113 574 137 q 595 79 584 89 q 621 70 606 70 q 670 81 640 70 l 677 58 l 493 -19 l 462 -19 l 462 70 q 373 2 416 22 q 279 -19 330 -19 q 102 66 178 -19 q 26 285 26 151 q 110 529 26 418 q 326 640 194 640 q 462 588 408 640 l 462 724 m 462 117 l 462 437 q 437 522 458 484 q 384 579 417 559 q 318 598 350 598 q 212 545 258 598 q 150 338 150 474 q 210 129 150 201 q 342 56 269 56 q 462 117 404 56 z "},"¯":{"ha":694,"x_min":-12,"x_max":707,"o":"m 707 991 l -12 991 l -12 1048 l 707 1048 l 707 991 z "},"Ă":{"ha":1003,"x_min":11,"x_max":987,"o":"m 635 308 l 279 308 l 217 163 q 194 83 194 109 q 214 46 194 62 q 300 25 234 30 l 300 0 l 11 0 l 11 25 q 85 52 68 35 q 162 184 120 84 l 486 941 l 509 941 l 829 176 q 900 56 868 83 q 987 25 931 28 l 987 0 l 625 0 l 625 25 q 699 43 680 28 q 718 81 718 59 q 691 176 718 111 l 635 308 m 616 358 l 460 730 l 300 358 l 616 358 m 305 1193 l 326 1193 q 378 1135 349 1152 q 500 1105 427 1105 q 623 1134 574 1105 q 671 1193 657 1154 l 693 1193 q 631 1056 687 1109 q 499 1003 575 1003 q 368 1056 424 1003 q 305 1193 313 1108 z "},"ă":{"ha":616,"x_min":50,"x_max":614,"o":"m 395 90 q 275 4 300 16 q 197 -13 239 -13 q 91 31 133 -13 q 50 147 50 75 q 70 226 50 193 q 166 313 98 272 q 395 412 235 353 l 395 436 q 366 564 395 529 q 280 598 336 598 q 212 575 237 598 q 186 522 186 552 l 188 483 q 172 435 188 452 q 130 418 156 418 q 89 435 105 418 q 73 484 73 453 q 133 591 73 542 q 300 640 193 640 q 436 612 383 640 q 495 546 476 591 q 507 427 507 517 l 507 216 q 511 107 507 127 q 522 80 514 87 q 540 73 530 73 q 559 78 551 73 q 614 127 573 87 l 614 90 q 469 -12 538 -12 q 416 11 435 -12 q 395 90 396 34 m 395 134 l 395 370 q 263 313 293 330 q 186 250 210 283 q 163 179 163 218 q 193 98 163 130 q 260 66 222 66 q 395 134 311 66 m 113 921 l 134 921 q 186 863 157 880 q 309 833 235 833 q 431 862 382 833 q 479 921 465 882 l 501 921 q 439 784 495 837 q 307 731 383 731 q 176 784 232 731 q 113 921 121 836 z "},"Ą":{"ha":1003,"x_min":11,"x_max":1008,"o":"m 635 308 l 279 308 l 217 163 q 194 83 194 109 q 214 46 194 62 q 300 25 234 30 l 300 0 l 11 0 l 11 25 q 85 52 68 35 q 162 184 120 84 l 486 941 l 509 941 l 829 176 q 900 56 868 83 q 987 25 931 28 l 987 0 l 625 0 l 625 25 q 699 43 680 28 q 718 81 718 59 q 691 176 718 111 l 635 308 m 616 358 l 460 730 l 300 358 l 616 358 m 750 11 l 785 11 q 768 -56 768 -24 q 803 -146 768 -113 q 913 -189 850 -189 q 994 -173 951 -189 l 1008 -195 q 918 -237 948 -228 q 851 -246 888 -246 q 736 -210 777 -246 q 696 -121 696 -173 q 710 -49 696 -85 q 750 11 725 -13 z "},"ą":{"ha":616,"x_min":50,"x_max":701,"o":"m 395 90 q 275 4 300 16 q 197 -13 239 -13 q 91 31 133 -13 q 50 147 50 75 q 70 226 50 193 q 166 313 98 272 q 395 412 235 353 l 395 436 q 366 564 395 529 q 280 598 336 598 q 212 575 237 598 q 186 522 186 552 l 188 483 q 172 435 188 452 q 130 418 156 418 q 89 435 105 418 q 73 484 73 453 q 133 591 73 542 q 300 640 193 640 q 436 612 383 640 q 495 546 476 591 q 507 427 507 517 l 507 216 q 511 107 507 127 q 522 80 514 87 q 540 73 530 73 q 559 78 551 73 q 614 127 573 87 l 614 90 q 469 -12 538 -12 q 416 11 435 -12 q 395 90 396 34 m 395 134 l 395 370 q 263 313 293 330 q 186 250 210 283 q 163 179 163 218 q 193 98 163 130 q 260 66 222 66 q 395 134 311 66 m 443 11 l 478 11 q 460 -56 460 -24 q 496 -146 460 -113 q 606 -189 543 -189 q 686 -173 644 -189 l 701 -195 q 611 -237 641 -228 q 544 -246 581 -246 q 429 -210 470 -246 q 389 -121 389 -173 q 403 -49 389 -85 q 443 11 418 -13 z "},"Ď":{"ha":1003,"x_min":24,"x_max":950,"o":"m 24 0 l 24 25 l 58 25 q 141 62 117 25 q 156 163 156 85 l 156 757 q 137 865 156 843 q 58 895 111 895 l 24 895 l 24 920 l 398 920 q 712 873 604 920 q 885 717 819 826 q 950 465 950 608 q 833 144 950 273 q 435 0 703 0 l 24 0 m 286 66 q 431 47 372 47 q 692 158 588 47 q 795 458 795 269 q 692 758 795 648 q 425 868 588 868 q 286 848 364 868 l 286 66 m 525 991 l 400 991 l 271 1216 l 292 1216 l 477 1072 l 633 1216 l 653 1216 l 525 991 z "},"ď":{"ha":898,"x_min":46,"x_max":886,"o":"m 710 613 l 710 645 q 805 722 779 686 q 823 784 823 748 q 815 815 823 805 q 798 825 807 825 q 778 821 790 825 q 747 814 760 814 q 700 834 721 814 q 680 886 680 855 q 701 939 680 920 q 768 964 729 964 q 850 926 814 964 q 886 831 886 888 q 826 685 886 751 q 710 613 786 642 m 482 70 q 393 2 437 22 q 300 -19 350 -19 q 122 66 198 -19 q 46 285 46 151 q 130 529 46 418 q 347 640 214 640 q 482 588 429 640 l 482 703 q 477 833 482 809 q 461 867 472 858 q 434 876 450 876 q 387 865 416 876 l 378 888 l 564 964 l 594 964 l 594 246 q 599 113 594 137 q 615 79 604 89 q 642 70 627 70 q 690 81 660 70 l 698 58 l 513 -19 l 482 -19 l 482 70 m 482 117 l 482 437 q 458 522 478 484 q 404 579 437 559 q 338 598 370 598 q 232 545 279 598 q 170 338 170 474 q 230 129 170 201 q 363 56 290 56 q 482 117 425 56 z "},"Đ":{"ha":1003,"x_min":24,"x_max":949,"o":"m 24 0 l 24 25 l 58 25 q 142 63 117 25 q 156 163 156 85 l 156 460 l 24 460 l 24 510 l 156 510 l 156 757 q 137 865 156 843 q 58 895 111 895 l 24 895 l 24 920 l 398 920 q 714 871 612 920 q 883 716 817 823 q 949 466 949 609 q 825 136 949 271 q 434 0 701 0 l 24 0 m 287 68 q 431 49 373 49 q 692 159 588 49 q 795 459 795 270 q 692 760 795 650 q 426 869 588 869 q 287 850 365 869 l 287 510 l 553 510 l 553 460 l 287 460 l 287 68 z "},"Ę":{"ha":848,"x_min":28,"x_max":817,"o":"m 290 869 l 290 506 l 492 506 q 597 530 571 506 q 637 640 633 561 l 662 640 l 662 319 l 637 319 q 618 406 627 387 q 578 443 606 429 q 492 456 550 456 l 290 456 l 290 153 q 296 79 290 92 q 315 58 301 66 q 366 50 328 50 l 522 50 q 635 61 600 50 q 703 104 671 72 q 789 231 745 146 l 817 231 l 737 0 l 28 0 l 28 25 l 61 25 q 123 41 94 25 q 152 73 144 52 q 160 162 160 95 l 160 760 q 142 867 160 847 q 61 895 118 895 l 28 895 l 28 920 l 737 920 l 747 718 l 721 718 q 689 818 707 791 q 638 859 672 845 q 543 869 611 869 l 290 869 m 551 11 l 586 11 q 568 -56 568 -24 q 604 -146 568 -113 q 713 -189 650 -189 q 794 -173 752 -189 l 808 -195 q 719 -237 749 -228 q 652 -246 689 -246 q 537 -210 578 -246 q 496 -121 496 -173 q 511 -49 496 -85 q 551 11 526 -13 z "},"ę":{"ha":616,"x_min":52,"x_max":643,"o":"m 148 387 q 215 170 147 249 q 374 92 283 92 q 480 125 435 92 q 556 240 526 159 l 577 227 q 494 57 563 134 q 323 -19 426 -19 q 131 68 211 -19 q 52 302 52 155 q 133 551 52 462 q 338 640 215 640 q 510 571 443 640 q 577 387 577 503 l 148 387 m 148 427 l 435 427 q 421 511 432 486 q 371 570 404 549 q 300 592 337 592 q 200 548 244 592 q 148 427 155 505 m 385 11 l 420 11 q 403 -56 403 -24 q 438 -146 403 -113 q 548 -189 485 -189 q 629 -173 587 -189 l 643 -195 q 553 -237 583 -228 q 486 -246 524 -246 q 372 -210 412 -246 q 331 -121 331 -173 q 346 -49 331 -85 q 385 11 360 -13 z "},"Ě":{"ha":848,"x_min":28,"x_max":817,"o":"m 290 869 l 290 506 l 492 506 q 597 530 571 506 q 637 640 633 561 l 662 640 l 662 319 l 637 319 q 618 406 627 387 q 578 443 606 429 q 492 456 550 456 l 290 456 l 290 153 q 296 79 290 92 q 315 58 301 66 q 366 50 328 50 l 522 50 q 635 61 600 50 q 703 104 671 72 q 789 231 745 146 l 817 231 l 737 0 l 28 0 l 28 25 l 61 25 q 123 41 94 25 q 152 73 144 52 q 160 162 160 95 l 160 760 q 142 867 160 847 q 61 895 118 895 l 28 895 l 28 920 l 737 920 l 747 718 l 721 718 q 689 818 707 791 q 638 859 672 845 q 543 869 611 869 l 290 869 m 485 991 l 360 991 l 231 1216 l 252 1216 l 437 1072 l 593 1216 l 613 1216 l 485 991 z "},"ě":{"ha":616,"x_min":52,"x_max":577,"o":"m 148 387 q 215 170 147 249 q 374 92 283 92 q 480 125 435 92 q 556 240 526 159 l 577 227 q 494 57 563 134 q 323 -19 426 -19 q 131 68 211 -19 q 52 302 52 155 q 133 551 52 462 q 338 640 215 640 q 510 571 443 640 q 577 387 577 503 l 148 387 m 148 427 l 435 427 q 421 511 432 486 q 371 570 404 549 q 300 592 337 592 q 200 548 244 592 q 148 427 155 505 m 393 715 l 269 715 l 140 939 l 161 939 l 346 795 l 501 939 l 522 939 l 393 715 z "},"Ĺ":{"ha":848,"x_min":28,"x_max":819,"o":"m 796 254 l 819 250 l 740 0 l 28 0 l 28 25 l 62 25 q 146 63 121 25 q 160 163 160 85 l 160 757 q 141 865 160 843 q 62 895 115 895 l 28 895 l 28 920 l 444 920 l 444 895 q 341 881 371 895 q 301 845 312 867 q 290 741 290 823 l 290 163 q 301 86 290 107 q 326 65 309 72 q 432 58 343 58 l 499 58 q 648 74 605 58 q 726 129 690 90 q 796 254 761 169 m 515 1219 l 315 985 l 292 985 l 363 1219 l 515 1219 z "},"ĺ":{"ha":386,"x_min":41,"x_max":357,"o":"m 257 964 l 257 140 q 266 63 257 82 q 292 34 274 44 q 357 24 309 24 l 357 0 l 53 0 l 53 24 q 111 33 96 24 q 136 62 127 42 q 144 140 144 83 l 144 705 q 140 834 144 810 q 124 867 135 858 q 98 876 114 876 q 53 865 80 876 l 41 888 l 227 964 l 257 964 m 349 1219 l 149 985 l 125 985 l 197 1219 l 349 1219 z "},"Ľ":{"ha":848,"x_min":28,"x_max":819,"o":"m 555 574 l 555 604 q 664 675 625 627 q 702 778 702 724 q 696 800 702 791 q 686 806 690 806 q 654 793 679 806 q 628 786 642 786 q 575 806 595 786 q 555 860 555 825 q 581 917 555 893 q 643 941 606 941 q 723 902 688 941 q 758 799 758 863 q 709 669 758 729 q 555 574 661 609 m 796 254 l 819 250 l 740 0 l 28 0 l 28 25 l 62 25 q 146 63 121 25 q 160 163 160 85 l 160 757 q 141 865 160 843 q 62 895 115 895 l 28 895 l 28 920 l 444 920 l 444 895 q 341 881 371 895 q 301 845 312 867 q 290 741 290 823 l 290 163 q 301 86 290 107 q 326 65 309 72 q 432 58 343 58 l 499 58 q 648 74 605 58 q 726 129 690 90 q 796 254 761 169 z "},"ľ":{"ha":564,"x_min":41,"x_max":552,"o":"m 376 613 l 376 645 q 471 722 446 686 q 489 784 489 748 q 481 815 489 805 q 463 825 473 825 q 444 821 456 825 q 414 814 426 814 q 366 834 387 814 q 345 886 345 855 q 366 939 345 920 q 434 964 395 964 q 516 926 480 964 q 552 831 552 888 q 492 685 552 751 q 376 613 452 642 m 256 964 l 256 140 q 265 63 256 82 q 291 34 273 44 q 357 24 309 24 l 357 0 l 52 0 l 52 24 q 111 33 95 24 q 135 62 126 42 q 144 140 144 83 l 144 705 q 139 834 144 810 q 124 867 134 858 q 97 876 113 876 q 52 865 79 876 l 41 888 l 226 964 l 256 964 z "},"Ŀ":{"ha":848,"x_min":28,"x_max":819,"o":"m 796 254 l 819 250 l 740 0 l 28 0 l 28 25 l 62 25 q 146 63 121 25 q 160 163 160 85 l 160 757 q 141 865 160 843 q 62 895 115 895 l 28 895 l 28 920 l 444 920 l 444 895 q 341 881 371 895 q 301 845 312 867 q 290 741 290 823 l 290 163 q 301 86 290 107 q 326 65 309 72 q 432 58 343 58 l 499 58 q 648 74 605 58 q 726 129 690 90 q 796 254 761 169 m 556 551 q 607 531 586 551 q 627 480 627 510 q 606 430 627 451 q 556 409 585 409 q 506 430 527 409 q 485 480 485 451 q 506 531 485 510 q 556 551 526 551 z "},"ŀ":{"ha":477,"x_min":41,"x_max":486,"o":"m 257 964 l 257 140 q 266 63 257 82 q 292 34 274 44 q 357 24 309 24 l 357 0 l 53 0 l 53 24 q 111 33 96 24 q 136 62 127 42 q 144 140 144 83 l 144 705 q 140 834 144 810 q 124 867 135 858 q 98 876 114 876 q 53 865 80 876 l 41 888 l 227 964 l 257 964 m 414 548 q 465 527 444 548 q 486 477 486 507 q 465 427 486 448 q 414 406 444 406 q 364 427 385 406 q 343 477 343 448 q 364 527 343 507 q 414 548 385 548 z "},"Ń":{"ha":1003,"x_min":-18,"x_max":983,"o":"m -18 920 l 231 920 l 793 230 l 793 760 q 774 866 793 845 q 695 895 749 895 l 663 895 l 663 920 l 983 920 l 983 895 l 951 895 q 868 859 892 895 q 853 760 853 838 l 853 -15 l 829 -15 l 222 726 l 222 159 q 241 54 222 75 q 320 25 267 25 l 353 25 l 353 0 l 33 0 l 33 25 l 64 25 q 148 60 123 25 q 163 159 163 82 l 163 799 q 102 861 123 846 q 41 888 81 876 q -18 895 22 895 l -18 920 m 631 1219 l 431 985 l 408 985 l 479 1219 l 631 1219 z "},"ń":{"ha":694,"x_min":8,"x_max":688,"o":"m 224 508 q 433 640 334 640 q 520 614 484 640 q 578 530 557 589 q 593 406 593 490 l 593 140 q 603 60 593 81 q 627 34 610 43 q 688 24 644 24 l 688 0 l 381 0 l 381 24 l 394 24 q 455 38 437 24 q 479 77 472 51 q 481 140 481 87 l 481 395 q 459 518 481 479 q 385 556 437 556 q 224 468 304 556 l 224 140 q 232 62 224 77 q 258 34 241 43 q 326 24 275 24 l 326 0 l 18 0 l 18 24 l 32 24 q 96 48 79 24 q 113 140 113 73 l 113 371 q 107 507 113 483 q 92 541 102 532 q 64 549 81 549 q 18 539 45 549 l 8 564 l 195 640 l 224 640 l 224 508 m 481 943 l 281 709 l 258 709 l 329 943 l 481 943 z "},"Ň":{"ha":1003,"x_min":-18,"x_max":983,"o":"m -18 920 l 231 920 l 793 230 l 793 760 q 774 866 793 845 q 695 895 749 895 l 663 895 l 663 920 l 983 920 l 983 895 l 951 895 q 868 859 892 895 q 853 760 853 838 l 853 -15 l 829 -15 l 222 726 l 222 159 q 241 54 222 75 q 320 25 267 25 l 353 25 l 353 0 l 33 0 l 33 25 l 64 25 q 148 60 123 25 q 163 159 163 82 l 163 799 q 102 861 123 846 q 41 888 81 876 q -18 895 22 895 l -18 920 m 570 991 l 445 991 l 316 1216 l 337 1216 l 522 1072 l 677 1216 l 698 1216 l 570 991 z "},"ň":{"ha":694,"x_min":8,"x_max":688,"o":"m 224 508 q 433 640 334 640 q 520 614 484 640 q 578 530 557 589 q 593 406 593 490 l 593 140 q 603 60 593 81 q 627 34 610 43 q 688 24 644 24 l 688 0 l 381 0 l 381 24 l 394 24 q 455 38 437 24 q 479 77 472 51 q 481 140 481 87 l 481 395 q 459 518 481 479 q 385 556 437 556 q 224 468 304 556 l 224 140 q 232 62 224 77 q 258 34 241 43 q 326 24 275 24 l 326 0 l 18 0 l 18 24 l 32 24 q 96 48 79 24 q 113 140 113 73 l 113 371 q 107 507 113 483 q 92 541 102 532 q 64 549 81 549 q 18 539 45 549 l 8 564 l 195 640 l 224 640 l 224 508 m 395 715 l 270 715 l 141 939 l 162 939 l 347 795 l 503 939 l 523 939 l 395 715 z "},"Ő":{"ha":1003,"x_min":49,"x_max":949,"o":"m 508 941 q 818 805 687 941 q 949 465 949 669 q 817 117 949 256 q 497 -21 685 -21 q 178 114 307 -21 q 49 463 49 249 q 198 821 49 682 q 508 941 328 941 m 495 891 q 297 800 372 891 q 204 466 204 686 q 300 119 204 241 q 496 27 374 27 q 710 128 625 27 q 794 447 794 229 q 701 799 794 683 q 495 891 627 891 m 398 1219 l 525 1219 l 376 984 l 353 984 l 398 1219 m 610 1219 l 737 1219 l 589 984 l 566 984 l 610 1219 z "},"ő":{"ha":694,"x_min":47,"x_max":646,"o":"m 347 640 q 574 532 488 640 q 646 322 646 441 q 606 153 646 239 q 496 24 566 68 q 340 -19 426 -19 q 117 93 199 -19 q 47 304 47 187 q 89 474 47 390 q 201 599 132 559 q 347 640 270 640 m 326 595 q 254 574 290 595 q 195 499 218 553 q 173 361 173 446 q 227 127 173 226 q 369 29 281 29 q 477 83 435 29 q 520 270 520 138 q 449 530 520 435 q 326 595 401 595 m 237 943 l 364 943 l 215 708 l 193 708 l 237 943 m 450 943 l 576 943 l 429 708 l 406 708 l 450 943 z "},"Ŕ":{"ha":926,"x_min":24,"x_max":939,"o":"m 939 0 l 693 0 l 382 430 q 326 429 347 429 q 307 429 317 429 q 286 430 296 429 l 286 163 q 304 55 286 76 q 382 25 330 25 l 418 25 l 418 0 l 24 0 l 24 25 l 58 25 q 142 63 117 25 q 156 163 156 84 l 156 757 q 137 865 156 844 q 58 895 111 895 l 24 895 l 24 920 l 359 920 q 575 898 505 920 q 693 820 644 877 q 741 683 741 762 q 686 536 741 598 q 515 448 631 473 l 705 184 q 817 63 770 93 q 939 25 863 33 l 939 0 m 286 473 q 308 472 298 473 q 323 472 317 472 q 522 529 455 472 q 589 674 589 586 q 535 814 589 760 q 392 868 481 868 q 286 855 353 868 l 286 473 m 549 1219 l 349 985 l 326 985 l 397 1219 l 549 1219 z "},"ŕ":{"ha":463,"x_min":9,"x_max":471,"o":"m 225 640 l 225 500 q 385 640 303 640 q 447 617 422 640 q 471 564 471 594 q 454 519 471 538 q 412 501 436 501 q 358 525 388 501 q 315 548 329 548 q 288 534 302 548 q 225 443 258 507 l 225 145 q 238 67 225 94 q 269 37 247 49 q 334 24 292 24 l 334 0 l 16 0 l 16 24 q 86 39 63 24 q 110 74 103 50 q 113 140 113 85 l 113 380 q 109 510 113 489 q 93 540 104 530 q 63 549 81 549 q 16 539 42 549 l 9 564 l 197 640 l 225 640 m 389 943 l 189 709 l 166 709 l 237 943 l 389 943 z "},"Ř":{"ha":926,"x_min":24,"x_max":939,"o":"m 939 0 l 693 0 l 382 430 q 326 429 347 429 q 307 429 317 429 q 286 430 296 429 l 286 163 q 304 55 286 76 q 382 25 330 25 l 418 25 l 418 0 l 24 0 l 24 25 l 58 25 q 142 63 117 25 q 156 163 156 84 l 156 757 q 137 865 156 844 q 58 895 111 895 l 24 895 l 24 920 l 359 920 q 575 898 505 920 q 693 820 644 877 q 741 683 741 762 q 686 536 741 598 q 515 448 631 473 l 705 184 q 817 63 770 93 q 939 25 863 33 l 939 0 m 286 473 q 308 472 298 473 q 323 472 317 472 q 522 529 455 472 q 589 674 589 586 q 535 814 589 760 q 392 868 481 868 q 286 855 353 868 l 286 473 m 473 991 l 349 991 l 220 1216 l 241 1216 l 426 1072 l 581 1216 l 602 1216 l 473 991 z "},"ř":{"ha":463,"x_min":9,"x_max":471,"o":"m 225 640 l 225 500 q 385 640 303 640 q 447 617 422 640 q 471 564 471 594 q 454 519 471 538 q 412 501 436 501 q 358 525 388 501 q 315 548 329 548 q 288 534 302 548 q 225 443 258 507 l 225 145 q 238 67 225 94 q 269 37 247 49 q 334 24 292 24 l 334 0 l 16 0 l 16 24 q 86 39 63 24 q 110 74 103 50 q 113 140 113 85 l 113 380 q 109 510 113 489 q 93 540 104 530 q 63 549 81 549 q 16 539 42 549 l 9 564 l 197 640 l 225 640 m 303 715 l 178 715 l 50 939 l 71 939 l 256 795 l 411 939 l 431 939 l 303 715 z "},"Ś":{"ha":772,"x_min":87,"x_max":698,"o":"m 637 941 l 637 623 l 612 623 q 568 768 600 714 q 478 854 536 823 q 357 886 420 886 q 241 843 287 886 q 195 745 195 800 q 224 669 195 703 q 424 533 266 618 q 600 427 553 464 q 672 340 647 390 q 698 235 698 290 q 617 55 698 130 q 408 -21 536 -21 q 333 -15 368 -21 q 246 10 312 -12 q 162 31 180 31 q 135 21 145 31 q 121 -21 125 11 l 96 -21 l 96 294 l 121 294 q 168 146 138 195 q 259 64 198 97 q 394 32 321 32 q 528 77 479 32 q 577 182 577 121 q 558 251 577 216 q 500 315 540 286 q 356 402 474 336 q 188 507 238 468 q 113 594 138 547 q 87 699 87 642 q 163 869 87 798 q 356 941 239 941 q 511 905 429 941 q 565 888 549 888 q 594 898 583 888 q 612 941 605 909 l 637 941 m 517 1219 l 317 985 l 294 985 l 365 1219 l 517 1219 z "},"ś":{"ha":541,"x_min":68,"x_max":492,"o":"m 445 640 l 445 428 l 422 428 q 356 564 397 528 q 254 600 316 600 q 177 574 206 600 q 148 519 148 549 q 170 454 148 481 q 255 395 191 426 l 354 347 q 492 170 492 279 q 428 33 492 85 q 284 -19 363 -19 q 154 1 227 -19 q 117 8 132 8 q 93 -9 102 8 l 71 -9 l 71 212 l 93 212 q 165 69 112 117 q 286 21 219 21 q 362 48 332 21 q 391 115 391 76 q 358 193 391 161 q 227 274 326 225 q 98 362 129 323 q 68 460 68 401 q 120 588 68 536 q 256 640 173 640 q 345 624 293 640 q 391 614 380 614 q 408 618 402 614 q 422 640 414 623 l 445 640 m 429 943 l 229 709 l 205 709 l 277 943 l 429 943 z "},"Ţ":{"ha":848,"x_min":42,"x_max":814,"o":"m 804 920 l 814 704 l 788 704 q 768 785 781 761 q 712 843 747 825 q 620 862 677 862 l 490 862 l 490 159 q 509 54 490 75 q 588 25 534 25 l 620 25 l 620 0 l 230 0 l 230 25 l 262 25 q 345 60 321 25 q 360 159 360 82 l 360 862 l 250 862 q 158 852 185 862 q 98 803 123 840 q 68 704 73 766 l 42 704 l 53 920 l 804 920 m 346 -313 l 346 -289 q 406 -275 378 -289 q 448 -237 433 -260 q 463 -192 463 -213 q 459 -174 463 -180 q 449 -169 454 -169 q 432 -175 444 -169 q 403 -184 415 -184 q 361 -169 377 -184 q 346 -125 346 -153 q 366 -79 346 -97 q 417 -60 385 -60 q 481 -90 454 -60 q 507 -170 507 -119 q 450 -288 507 -245 q 346 -313 420 -311 z "},"ţ":{"ha":386,"x_min":14,"x_max":388,"o":"m 224 825 l 224 621 l 369 621 l 369 574 l 224 574 l 224 171 q 241 90 224 111 q 286 68 258 68 q 329 82 308 68 q 361 123 350 96 l 388 123 q 321 23 364 57 q 231 -10 277 -10 q 170 7 200 -10 q 126 57 140 24 q 112 156 112 89 l 112 574 l 14 574 l 14 596 q 90 647 51 611 q 159 731 129 682 q 203 825 175 757 l 224 825 m 123 -313 l 123 -289 q 182 -275 155 -289 q 225 -237 210 -260 q 241 -192 241 -213 q 236 -174 241 -180 q 226 -169 231 -169 q 209 -175 221 -169 q 180 -184 192 -184 q 138 -169 154 -184 q 123 -125 123 -153 q 142 -79 123 -97 q 194 -60 162 -60 q 258 -90 231 -60 q 284 -170 284 -119 q 227 -288 284 -245 q 123 -313 197 -311 z "},"Ť":{"ha":848,"x_min":42,"x_max":814,"o":"m 804 920 l 814 704 l 788 704 q 768 785 781 761 q 712 843 747 825 q 620 862 677 862 l 490 862 l 490 159 q 509 54 490 75 q 588 25 534 25 l 620 25 l 620 0 l 230 0 l 230 25 l 262 25 q 345 60 321 25 q 360 159 360 82 l 360 862 l 250 862 q 158 852 185 862 q 98 803 123 840 q 68 704 73 766 l 42 704 l 53 920 l 804 920 m 491 991 l 366 991 l 237 1216 l 258 1216 l 444 1072 l 599 1216 l 619 1216 l 491 991 z "},"ť":{"ha":593,"x_min":13,"x_max":581,"o":"m 406 613 l 406 645 q 500 722 475 686 q 518 784 518 748 q 511 815 518 805 q 492 825 503 825 q 473 821 486 825 q 444 814 455 814 q 395 834 416 814 q 374 886 374 855 q 395 939 374 920 q 463 964 425 964 q 545 926 509 964 q 581 831 581 888 q 522 685 581 751 q 406 613 481 642 m 223 825 l 223 621 l 368 621 l 368 574 l 223 574 l 223 171 q 240 90 223 111 q 285 68 258 68 q 328 82 307 68 q 361 123 349 96 l 387 123 q 320 23 363 57 q 231 -10 277 -10 q 170 7 199 -10 q 125 57 140 24 q 111 156 111 89 l 111 574 l 13 574 l 13 596 q 89 647 50 611 q 159 731 128 682 q 202 825 174 757 l 223 825 z "},"Ů":{"ha":1003,"x_min":7,"x_max":988,"o":"m 663 895 l 663 920 l 988 920 l 988 895 l 954 895 q 870 849 899 895 q 856 751 856 828 l 856 378 q 828 164 856 240 q 721 33 801 87 q 502 -22 640 -22 q 273 31 351 -22 q 163 171 195 83 q 141 397 141 231 l 141 757 q 118 868 141 842 q 42 895 94 895 l 7 895 l 7 920 l 405 920 l 405 895 l 370 895 q 288 859 313 895 q 271 757 271 834 l 271 356 q 281 233 271 302 q 317 125 291 164 q 391 62 342 87 q 510 37 439 37 q 671 76 600 37 q 769 177 743 115 q 795 385 795 238 l 795 757 q 776 865 795 843 q 697 895 749 895 l 663 895 m 531 1230 q 623 1192 585 1230 q 661 1101 661 1154 q 623 1008 661 1046 q 531 970 585 970 q 439 1008 477 970 q 401 1101 401 1046 q 439 1192 401 1154 q 531 1230 477 1230 m 531 1183 q 472 1159 496 1183 q 448 1101 448 1135 q 472 1042 448 1067 q 531 1018 496 1018 q 590 1042 566 1018 q 614 1101 614 1067 q 590 1159 614 1135 q 531 1183 566 1183 z "},"ů":{"ha":694,"x_min":1,"x_max":692,"o":"m 588 621 l 588 245 q 593 113 588 137 q 609 79 598 89 q 635 70 621 70 q 683 81 656 70 l 692 58 l 507 -19 l 476 -19 l 476 113 q 354 3 396 26 q 265 -19 312 -19 q 175 11 213 -19 q 121 89 136 41 q 106 223 106 136 l 106 500 q 97 562 106 545 q 69 588 87 578 q 1 596 50 597 l 1 621 l 219 621 l 219 205 q 249 92 219 119 q 322 64 279 64 q 388 83 351 64 q 476 153 425 101 l 476 505 q 457 576 476 557 q 376 596 437 595 l 376 621 l 588 621 m 332 966 q 425 928 387 966 q 463 836 463 890 q 425 744 463 782 q 332 706 387 706 q 241 744 279 706 q 203 836 203 782 q 240 928 203 890 q 332 966 278 966 m 332 919 q 274 895 298 919 q 250 836 250 871 q 274 778 250 802 q 332 753 298 753 q 391 778 367 753 q 415 836 415 802 q 391 895 415 871 q 332 919 367 919 z "},"Ű":{"ha":1003,"x_min":7,"x_max":988,"o":"m 663 895 l 663 920 l 988 920 l 988 895 l 954 895 q 870 849 899 895 q 856 751 856 828 l 856 378 q 828 164 856 240 q 721 33 801 87 q 502 -22 640 -22 q 273 31 351 -22 q 163 171 195 83 q 141 397 141 231 l 141 757 q 118 868 141 842 q 42 895 94 895 l 7 895 l 7 920 l 405 920 l 405 895 l 370 895 q 288 859 313 895 q 271 757 271 834 l 271 356 q 281 233 271 302 q 317 125 291 164 q 391 62 342 87 q 510 37 439 37 q 671 76 600 37 q 769 177 743 115 q 795 385 795 238 l 795 757 q 776 865 795 843 q 697 895 749 895 l 663 895 m 413 1219 l 540 1219 l 391 984 l 368 984 l 413 1219 m 625 1219 l 752 1219 l 604 984 l 581 984 l 625 1219 z "},"ű":{"ha":694,"x_min":1,"x_max":692,"o":"m 588 621 l 588 245 q 593 113 588 137 q 609 79 598 89 q 635 70 621 70 q 683 81 656 70 l 692 58 l 507 -19 l 476 -19 l 476 113 q 354 3 396 26 q 265 -19 312 -19 q 175 11 213 -19 q 121 89 136 41 q 106 223 106 136 l 106 500 q 97 562 106 545 q 69 588 87 578 q 1 596 50 597 l 1 621 l 219 621 l 219 205 q 249 92 219 119 q 322 64 279 64 q 388 83 351 64 q 476 153 425 101 l 476 505 q 457 576 476 557 q 376 596 437 595 l 376 621 l 588 621 m 213 943 l 340 943 l 191 708 l 168 708 l 213 943 m 425 943 l 552 943 l 404 708 l 381 708 l 425 943 z "},"Ź":{"ha":848,"x_min":18,"x_max":810,"o":"m 799 920 l 195 56 l 572 56 q 705 94 659 56 q 787 248 751 132 l 810 243 l 766 0 l 18 0 l 18 25 l 608 865 l 313 865 q 207 849 240 865 q 157 803 174 833 q 125 690 140 772 l 100 690 l 119 920 l 799 920 m 579 1219 l 379 985 l 356 985 l 427 1219 l 579 1219 z "},"ź":{"ha":616,"x_min":28,"x_max":594,"o":"m 583 191 l 576 0 l 28 0 l 28 24 l 440 574 l 237 574 q 151 565 171 574 q 117 533 130 557 q 96 449 99 499 l 69 449 l 73 621 l 594 621 l 594 596 l 178 45 l 404 45 q 501 57 475 45 q 542 99 526 69 q 560 191 553 121 l 583 191 m 460 943 l 260 709 l 237 709 l 308 943 l 460 943 z "},"Ż":{"ha":848,"x_min":18,"x_max":810,"o":"m 799 920 l 195 56 l 572 56 q 705 94 659 56 q 787 248 751 132 l 810 243 l 766 0 l 18 0 l 18 25 l 608 865 l 313 865 q 207 849 240 865 q 157 803 174 833 q 125 690 140 772 l 100 690 l 119 920 l 799 920 m 438 1159 q 490 1137 469 1159 q 512 1085 512 1116 q 490 1033 512 1055 q 438 1011 469 1011 q 386 1033 408 1011 q 364 1085 364 1055 q 386 1137 364 1116 q 438 1159 407 1159 z "},"ż":{"ha":616,"x_min":28,"x_max":594,"o":"m 583 191 l 576 0 l 28 0 l 28 24 l 440 574 l 237 574 q 151 565 171 574 q 117 533 130 557 q 96 449 99 499 l 69 449 l 73 621 l 594 621 l 594 596 l 178 45 l 404 45 q 501 57 475 45 q 542 99 526 69 q 560 191 553 121 l 583 191 m 330 907 q 382 885 360 907 q 404 833 404 863 q 382 781 404 802 q 330 759 360 759 q 277 781 299 759 q 256 833 256 802 q 277 885 256 863 q 330 907 298 907 z "},"Γ":{"ha":803,"x_min":25,"x_max":766,"o":"m 763 920 l 766 705 l 740 705 q 712 809 737 770 q 651 859 687 848 q 546 869 614 869 l 288 869 l 288 168 q 312 52 288 77 q 420 25 335 28 l 420 0 l 25 0 l 25 25 q 134 52 111 28 q 158 168 158 77 l 158 752 q 134 867 158 843 q 25 895 111 892 l 25 920 l 763 920 z "},"Θ":{"ha":1003,"x_min":52,"x_max":952,"o":"m 511 941 q 816 810 680 941 q 952 465 952 680 q 818 115 952 251 q 500 -21 684 -21 q 174 122 296 -21 q 52 463 52 265 q 189 809 52 677 q 511 941 326 941 m 498 891 q 287 782 366 891 q 207 466 207 673 q 281 150 207 272 q 498 27 356 27 q 717 135 637 27 q 797 447 797 242 q 722 773 797 654 q 498 891 647 891 m 338 624 l 364 624 q 388 541 364 566 q 475 515 412 515 l 530 515 q 615 540 591 515 q 640 624 640 565 l 665 624 l 665 296 l 640 296 q 616 379 640 354 q 529 404 592 404 l 473 404 q 388 379 412 404 q 364 296 364 354 l 338 296 l 338 624 z "},"Φ":{"ha":1015,"x_min":48,"x_max":966,"o":"m 572 130 q 703 25 581 25 l 703 0 l 312 0 l 312 25 q 442 130 433 25 q 156 226 263 130 q 48 460 48 322 q 157 695 48 607 q 442 790 267 783 q 312 895 434 895 l 312 920 l 703 920 l 703 895 q 572 790 581 895 q 866 688 766 784 q 966 460 966 592 q 859 226 966 322 q 572 130 752 130 m 442 753 q 260 681 326 746 q 195 448 195 615 q 442 167 195 181 l 442 753 m 572 753 l 572 167 q 752 236 684 172 q 821 471 821 300 q 572 753 821 739 z "},"α":{"ha":728,"x_min":59,"x_max":718,"o":"m 534 621 l 650 621 l 580 307 q 552 197 559 218 q 631 73 579 73 q 694 157 692 73 l 718 157 q 689 30 716 78 q 619 -19 663 -19 q 566 10 583 -19 q 528 130 548 39 q 297 -19 457 -19 q 123 66 188 -19 q 59 310 59 151 q 130 553 59 466 q 299 640 200 640 q 414 590 369 640 q 493 429 458 541 l 534 621 m 475 355 q 404 526 443 465 q 309 587 364 587 q 185 297 185 587 q 304 22 185 22 q 456 264 407 22 l 475 355 z "},"δ":{"ha":654,"x_min":47,"x_max":607,"o":"m 335 578 q 241 669 301 616 q 151 761 174 728 q 128 835 128 795 q 184 929 128 895 q 329 963 239 963 q 485 932 418 963 q 552 848 552 902 q 536 806 552 823 q 498 789 519 789 q 425 836 467 789 q 352 902 382 883 q 283 922 323 922 q 201 899 233 922 q 169 842 169 877 q 195 781 169 810 q 332 677 222 753 q 497 551 449 597 q 576 441 546 506 q 607 303 607 376 q 517 78 607 176 q 307 -19 427 -19 q 123 59 198 -19 q 47 267 47 137 q 131 477 47 393 q 335 578 214 561 m 365 547 q 170 280 170 515 q 219 92 170 159 q 332 24 267 24 q 442 89 399 24 q 486 264 486 154 q 365 547 486 425 z "},"ε":{"ha":583,"x_min":48,"x_max":560,"o":"m 214 329 q 81 473 81 376 q 152 594 81 549 q 328 640 222 640 q 479 608 423 640 q 536 532 536 576 q 518 492 536 509 q 477 475 500 475 q 415 528 439 475 q 313 601 381 601 q 225 566 260 601 q 191 467 191 530 q 319 343 191 343 q 350 346 332 343 q 397 350 380 350 q 439 326 439 350 q 397 300 439 300 q 352 304 382 300 q 317 309 330 309 q 182 170 182 309 q 218 62 182 103 q 318 21 254 21 q 425 104 399 21 q 455 165 439 149 q 500 182 472 182 q 542 166 523 182 q 560 123 560 149 q 491 21 560 62 q 323 -19 422 -19 q 132 33 216 -19 q 48 170 48 84 q 214 329 48 278 z "},"σ":{"ha":749,"x_min":47,"x_max":721,"o":"m 721 621 l 721 522 l 456 522 q 598 397 543 473 q 653 237 653 321 q 566 54 653 126 q 368 -19 479 -19 q 142 84 237 -19 q 47 323 47 186 q 97 493 47 419 q 213 594 147 567 q 392 621 279 621 l 721 621 m 411 522 l 387 522 q 225 472 286 522 q 164 313 164 421 q 228 111 164 199 q 377 23 292 23 q 490 89 446 23 q 535 249 535 155 q 411 522 535 397 z "},"τ":{"ha":558,"x_min":8,"x_max":531,"o":"m 334 522 l 315 328 q 310 226 310 277 q 333 108 310 129 q 385 87 355 87 q 462 170 450 87 l 487 170 q 337 -19 465 -19 q 203 134 203 -19 q 218 327 203 212 l 243 522 l 176 522 q 90 504 121 522 q 33 429 59 485 l 8 429 q 60 547 30 503 q 117 606 90 591 q 197 621 144 621 l 531 621 l 531 522 l 334 522 z "},"φ":{"ha":802,"x_min":47,"x_max":754,"o":"m 321 640 l 321 615 q 172 332 172 576 q 358 20 172 66 l 358 414 q 369 539 358 500 q 417 609 380 579 q 506 640 454 640 q 676 553 597 640 q 754 329 754 467 q 674 98 754 199 q 431 -18 593 -4 l 431 -297 l 358 -297 l 358 -18 q 132 87 217 -6 q 47 330 47 180 q 124 549 47 464 q 321 640 201 634 m 431 20 q 645 296 645 52 q 599 485 645 408 q 492 561 553 561 q 454 545 469 561 q 435 507 439 529 q 431 422 431 486 l 431 20 z "},"‗":{"ha":694,"x_min":-12,"x_max":707,"o":"m 707 -193 l -12 -193 l -12 -136 l 707 -136 l 707 -193 m 707 -300 l -12 -300 l -12 -243 l 707 -243 l 707 -300 z "},"‼":{"ha":795,"x_min":155,"x_max":641,"o":"m 244 243 l 218 243 l 159 793 q 155 846 155 829 q 177 915 155 889 q 232 941 200 941 q 286 915 264 941 q 308 838 308 889 q 305 793 308 822 l 244 243 m 231 131 q 284 109 262 131 q 306 56 306 87 q 284 3 306 25 q 231 -19 262 -19 q 177 3 199 -19 q 155 56 155 25 q 177 109 155 87 q 231 131 199 131 m 577 243 l 551 243 l 492 793 q 488 846 488 829 q 510 915 488 889 q 565 941 533 941 q 619 915 597 941 q 641 838 641 889 q 638 793 641 822 l 577 243 m 564 131 q 617 109 595 131 q 639 56 639 87 q 617 3 639 25 q 564 -19 595 -19 q 510 3 532 -19 q 488 56 488 25 q 510 109 488 87 q 564 131 532 131 z "},"ⁿ":{"ha":437,"x_min":1,"x_max":434,"o":"m 142 696 q 272 773 208 773 q 347 740 319 773 q 375 630 375 707 l 375 473 q 380 430 375 440 q 394 415 385 420 q 434 410 404 410 l 434 386 l 238 386 l 238 410 q 283 416 271 410 q 298 431 292 420 q 302 473 302 439 l 302 624 q 287 696 302 677 q 241 714 272 714 q 142 664 191 714 l 142 473 q 146 431 142 439 q 162 415 152 420 q 206 410 172 410 l 206 386 l 10 386 l 10 410 q 51 416 38 410 q 64 429 60 421 q 69 473 69 441 l 69 610 q 66 688 69 674 q 58 706 64 701 q 39 710 52 710 q 11 704 27 710 l 1 726 l 123 773 l 142 773 l 142 696 z "},"₧":{"ha":1345,"x_min":30,"x_max":1327,"o":"m 30 920 l 378 920 q 560 885 481 920 q 682 785 639 851 q 718 669 711 742 q 767 732 751 704 q 804 817 784 760 l 827 817 l 827 620 l 943 620 l 943 581 l 827 581 l 827 164 q 832 100 827 115 q 849 76 838 84 q 873 68 860 68 q 896 75 883 68 q 940 112 909 81 l 940 208 l 965 208 q 998 104 977 142 q 1058 45 1019 67 q 1131 22 1097 22 q 1204 51 1174 22 q 1234 119 1234 79 q 1206 190 1234 156 q 1088 275 1178 224 q 968 366 998 327 q 939 458 939 404 q 988 584 939 533 q 1112 635 1038 635 q 1204 618 1145 635 q 1232 612 1225 612 q 1255 618 1240 612 l 1284 618 l 1284 432 l 1260 432 q 1205 559 1246 520 q 1108 597 1164 597 q 1042 571 1069 597 q 1015 510 1015 545 q 1046 441 1015 474 q 1166 364 1069 418 q 1295 266 1262 309 q 1327 168 1327 222 q 1271 36 1327 90 q 1129 -18 1215 -18 q 1042 -2 1097 -18 q 993 9 1008 9 q 970 0 981 9 l 940 0 l 940 58 q 874 -2 901 14 q 819 -18 847 -18 q 747 17 775 -18 q 718 130 718 52 l 719 162 l 719 581 l 705 581 q 615 463 668 500 q 441 412 541 412 q 378 419 414 412 q 295 441 341 427 l 295 140 q 324 51 295 79 q 416 24 353 22 l 416 0 l 30 0 l 30 24 q 103 37 79 24 q 139 73 127 50 q 151 150 151 96 l 151 787 q 124 868 151 841 q 30 896 98 895 l 30 920 m 295 484 q 344 466 321 472 q 387 459 367 459 q 503 514 454 459 q 553 661 553 569 q 500 812 553 757 q 364 867 447 867 q 295 854 334 867 l 295 484 z "},"←":{"ha":1389,"x_min":54,"x_max":1335,"o":"m 334 594 l 385 594 q 325 482 345 514 q 253 385 305 450 l 1335 385 l 1335 316 l 253 316 q 387 106 323 243 l 334 106 q 184 255 247 204 q 54 338 121 305 l 54 368 q 178 445 113 393 q 334 594 244 496 z "},"↑":{"ha":694,"x_min":104,"x_max":591,"o":"m 104 628 q 253 784 202 718 q 330 908 304 850 l 361 908 q 443 778 393 841 q 591 627 494 715 l 591 575 q 382 709 455 639 l 382 -291 l 313 -291 l 313 709 q 216 637 248 657 q 104 576 184 616 l 104 628 z "},"→":{"ha":1389,"x_min":54,"x_max":1335,"o":"m 1055 594 q 1211 445 1145 496 q 1335 368 1276 393 l 1335 338 q 1204 255 1267 305 q 1054 106 1141 204 l 1002 106 q 1135 316 1065 243 l 54 316 l 54 385 l 1135 385 q 1063 482 1084 450 q 1003 594 1043 514 l 1055 594 z "},"↓":{"ha":694,"x_min":104,"x_max":591,"o":"m 104 -11 l 104 41 q 216 -20 184 1 q 313 -92 248 -40 l 313 908 l 382 908 l 382 -92 q 591 42 455 -22 l 591 -10 q 443 -161 494 -98 q 361 -291 393 -224 l 330 -291 q 253 -167 304 -233 q 104 -11 202 -101 z "},"↔":{"ha":1389,"x_min":54,"x_max":1335,"o":"m 1335 366 l 1335 336 q 1209 257 1271 307 q 1059 107 1147 208 l 1005 107 q 1137 318 1052 224 l 252 318 q 383 107 336 224 l 329 107 q 179 257 241 208 q 54 336 117 307 l 54 366 q 179 445 117 396 q 329 595 241 494 l 383 595 q 252 385 336 479 l 1137 385 q 1005 595 1052 479 l 1059 595 q 1209 445 1147 494 q 1335 366 1271 396 z "},"↕":{"ha":694,"x_min":103,"x_max":591,"o":"m 332 992 l 362 992 q 441 866 392 928 q 591 716 490 804 l 591 662 q 380 794 475 709 l 380 -92 q 591 40 475 -6 l 591 -14 q 441 -164 490 -102 q 362 -290 392 -226 l 332 -290 q 253 -164 302 -226 q 103 -14 203 -102 l 103 40 q 314 -92 219 -6 l 314 794 q 103 662 219 709 l 103 716 q 253 866 203 804 q 332 992 302 928 z "},"↨":{"ha":694,"x_min":103,"x_max":591,"o":"m 332 992 l 362 992 q 441 866 392 928 q 591 716 490 804 l 591 662 q 380 794 475 709 l 380 -92 q 591 40 475 -6 l 591 -14 q 441 -164 490 -102 q 362 -290 392 -226 l 332 -290 q 253 -164 302 -226 q 103 -14 203 -102 l 103 40 q 314 -92 219 -6 l 314 794 q 103 662 219 709 l 103 716 q 253 866 203 804 q 332 992 302 928 m 104 -354 l 591 -354 l 591 -420 l 104 -420 l 104 -354 z "},"∟":{"ha":1360,"x_min":245,"x_max":1114,"o":"m 245 867 l 313 867 l 313 68 l 1114 68 l 1114 0 l 245 0 l 245 867 z "},"∩":{"ha":1003,"x_min":130,"x_max":869,"o":"m 205 0 l 130 0 l 130 380 q 134 593 130 548 q 164 725 142 673 q 233 826 186 777 q 351 907 281 876 q 500 939 421 939 q 645 909 576 939 q 765 828 714 879 q 838 719 816 777 q 866 575 859 661 q 869 380 869 541 l 869 0 l 795 0 l 795 384 q 791 574 795 532 q 766 694 783 650 q 712 778 749 739 q 617 842 675 817 q 499 867 560 867 q 402 849 449 867 q 321 807 355 832 q 267 754 288 781 q 237 704 246 728 q 212 605 220 663 q 205 384 205 546 l 205 0 z "},"≡":{"ha":783,"x_min":26,"x_max":758,"o":"m 26 709 l 758 709 l 758 654 l 26 654 l 26 709 m 26 488 l 758 488 l 758 433 l 26 433 l 26 488 m 26 267 l 758 267 l 758 212 l 26 212 l 26 267 z "},"⌂":{"ha":833,"x_min":104,"x_max":730,"o":"m 104 0 l 104 430 l 416 782 l 730 430 l 730 0 l 104 0 m 159 55 l 675 55 l 675 407 l 416 696 l 159 407 l 159 55 z "},"⌐":{"ha":783,"x_min":26,"x_max":758,"o":"m 758 595 l 758 541 l 79 541 l 79 320 l 26 320 l 26 595 l 758 595 z "},"⌠":{"ha":839,"x_min":370,"x_max":662,"o":"m 469 -349 l 370 -349 l 370 879 q 431 1103 370 1027 q 568 1178 492 1178 q 638 1156 614 1178 q 662 1104 662 1134 q 645 1059 662 1077 q 602 1042 627 1042 q 564 1052 582 1042 q 535 1083 551 1059 q 504 1108 519 1108 q 483 1100 492 1108 q 473 1082 476 1095 q 469 987 469 1059 l 469 -349 z "},"⌡":{"ha":839,"x_min":177,"x_max":469,"o":"m 370 1178 l 469 1178 l 469 -50 q 408 -274 469 -199 q 271 -349 347 -349 q 201 -327 225 -349 q 177 -275 177 -305 q 194 -231 177 -248 q 236 -213 212 -213 q 276 -224 257 -213 q 304 -255 288 -231 q 335 -279 319 -279 q 356 -272 347 -279 q 366 -252 363 -267 q 370 -159 370 -231 l 370 1178 z "},"─":{"ha":984,"x_min":-16,"x_max":999,"o":"m 999 362 l -16 362 l -16 481 l 999 481 l 999 362 z "},"│":{"ha":984,"x_min":304,"x_max":422,"o":"m 304 -421 l 304 1264 l 422 1264 l 422 -421 l 304 -421 z "},"┌":{"ha":984,"x_min":433,"x_max":1000,"o":"m 1000 481 l 1000 362 l 551 362 l 551 -421 l 433 -421 l 433 481 l 1000 481 z "},"┐":{"ha":984,"x_min":-16,"x_max":551,"o":"m 432 362 l -16 362 l -16 481 l 551 481 l 551 -421 l 432 -421 l 432 362 z "},"└":{"ha":984,"x_min":433,"x_max":1000,"o":"m 433 362 l 433 1264 l 551 1264 l 551 481 l 1000 481 l 1000 362 l 433 362 z "},"┘":{"ha":984,"x_min":-16,"x_max":551,"o":"m 551 362 l -16 362 l -16 481 l 432 481 l 432 1264 l 551 1264 l 551 362 z "},"├":{"ha":984,"x_min":433,"x_max":1000,"o":"m 433 -421 l 433 1264 l 551 1264 l 551 481 l 1000 481 l 1000 362 l 551 362 l 551 -421 l 433 -421 z "},"┤":{"ha":984,"x_min":-16,"x_max":551,"o":"m 432 -421 l 432 362 l -16 362 l -16 481 l 432 481 l 432 1264 l 551 1264 l 551 -421 l 432 -421 z "},"┬":{"ha":984,"x_min":-16,"x_max":999,"o":"m 432 362 l -16 362 l -16 481 l 999 481 l 999 362 l 551 362 l 551 -421 l 432 -421 l 432 362 z "},"┴":{"ha":984,"x_min":-16,"x_max":999,"o":"m 999 362 l -16 362 l -16 481 l 432 481 l 432 1264 l 551 1264 l 551 481 l 999 481 l 999 362 z "},"┼":{"ha":984,"x_min":-16,"x_max":999,"o":"m 432 362 l -16 362 l -16 481 l 432 481 l 432 1264 l 551 1264 l 551 481 l 999 481 l 999 362 l 551 362 l 551 -421 l 432 -421 l 432 362 z "},"═":{"ha":984,"x_min":-16,"x_max":999,"o":"m 999 491 l -16 491 l -16 610 l 999 610 l 999 491 m 999 233 l -16 233 l -16 352 l 999 352 l 999 233 z "},"║":{"ha":984,"x_min":304,"x_max":680,"o":"m 562 -421 l 562 1264 l 680 1264 l 680 -421 l 562 -421 m 304 -421 l 304 1264 l 422 1264 l 422 -421 l 304 -421 z "},"╒":{"ha":984,"x_min":433,"x_max":1000,"o":"m 433 -421 l 433 610 l 1000 610 l 1000 491 l 551 491 l 551 352 l 1000 352 l 1000 233 l 551 233 l 551 -421 l 433 -421 z "},"╓":{"ha":984,"x_min":304,"x_max":1000,"o":"m 304 -421 l 304 481 l 1000 481 l 1000 362 l 680 362 l 680 -421 l 562 -421 l 562 352 l 422 352 l 422 -421 l 304 -421 z "},"╔":{"ha":984,"x_min":304,"x_max":999,"o":"m 422 -421 l 304 -421 l 304 610 l 999 610 l 999 491 l 422 491 l 422 -421 m 680 233 l 680 -421 l 562 -421 l 562 352 l 999 352 l 999 233 l 680 233 z "},"╕":{"ha":984,"x_min":-16,"x_max":551,"o":"m 432 233 l -16 233 l -16 352 l 432 352 l 432 491 l -16 491 l -16 610 l 551 610 l 551 -421 l 432 -421 l 432 233 z "},"╖":{"ha":984,"x_min":-16,"x_max":680,"o":"m 303 -421 l 304 362 l -16 362 l -16 481 l 680 481 l 680 -421 l 561 -421 l 561 362 l 422 362 l 422 -421 l 303 -421 z "},"╗":{"ha":984,"x_min":-16,"x_max":680,"o":"m 561 -421 l 561 491 l -16 491 l -16 610 l 680 610 l 680 -421 l 561 -421 m 303 233 l -16 233 l -16 352 l 422 352 l 422 -421 l 303 -421 l 303 233 z "},"╘":{"ha":984,"x_min":433,"x_max":1000,"o":"m 433 233 l 433 1264 l 551 1264 l 551 610 l 1000 610 l 1000 491 l 551 491 l 551 352 l 1000 352 l 1000 233 l 433 233 z "},"╙":{"ha":984,"x_min":304,"x_max":1000,"o":"m 1000 362 l 304 362 l 304 1264 l 422 1264 l 422 481 l 562 481 l 562 1264 l 680 1264 l 680 481 l 1000 481 l 1000 362 z "},"╚":{"ha":984,"x_min":304,"x_max":999,"o":"m 422 1264 l 422 352 l 999 352 l 999 233 l 304 233 l 304 1264 l 422 1264 m 680 610 l 999 610 l 999 491 l 562 491 l 562 1264 l 680 1264 l 680 610 z "},"╛":{"ha":984,"x_min":-16,"x_max":551,"o":"m 551 233 l -16 233 l -16 352 l 432 352 l 432 491 l -16 491 l -16 610 l 432 610 l 432 1264 l 551 1264 l 551 233 z "},"╜":{"ha":984,"x_min":-16,"x_max":680,"o":"m 680 362 l -16 362 l -16 481 l 303 481 l 303 1264 l 422 1264 l 422 481 l 561 481 l 561 1264 l 680 1264 l 680 362 z "},"╝":{"ha":984,"x_min":-16,"x_max":680,"o":"m 561 1264 l 680 1264 l 680 233 l -16 233 l -16 352 l 561 352 l 561 1264 m 303 610 l 303 1264 l 422 1264 l 422 491 l -16 491 l -16 610 l 303 610 z "},"╞":{"ha":984,"x_min":433,"x_max":1000,"o":"m 433 -421 l 433 1264 l 551 1264 l 551 610 l 1000 610 l 1000 491 l 551 491 l 551 352 l 1000 352 l 1000 233 l 551 233 l 551 -421 l 433 -421 z "},"╟":{"ha":984,"x_min":304,"x_max":1000,"o":"m 562 -421 l 562 1264 l 680 1264 l 680 481 l 1000 481 l 1000 362 l 680 362 l 680 -421 l 562 -421 m 304 -421 l 304 1264 l 422 1264 l 422 -421 l 304 -421 z "},"╠":{"ha":984,"x_min":304,"x_max":1000,"o":"m 304 -421 l 304 1264 l 422 1264 l 422 -421 l 304 -421 m 562 491 l 562 1264 l 680 1264 l 680 610 l 1000 610 l 1000 491 l 562 491 m 562 -421 l 562 352 l 1000 352 l 1000 233 l 680 233 l 680 -421 l 562 -421 z "},"╡":{"ha":984,"x_min":-16,"x_max":551,"o":"m 432 233 l -16 233 l -16 352 l 433 352 l 432 491 l -16 491 l -16 610 l 432 610 l 432 1264 l 551 1264 l 551 -421 l 432 -421 l 432 233 z "},"╢":{"ha":984,"x_min":-16,"x_max":680,"o":"m 303 -421 l 304 362 l -16 362 l -16 481 l 303 481 l 303 1264 l 422 1264 l 422 -421 l 303 -421 m 561 -421 l 561 1264 l 680 1264 l 680 -421 l 561 -421 z "},"╣":{"ha":984,"x_min":-16,"x_max":680,"o":"m 561 -421 l 561 1264 l 680 1264 l 680 -421 l 561 -421 m 422 1264 l 422 491 l -16 491 l -16 610 l 303 610 l 303 1264 l 422 1264 m 303 233 l -16 233 l -16 352 l 422 352 l 422 -421 l 303 -421 l 303 233 z "},"╤":{"ha":984,"x_min":-16,"x_max":999,"o":"m 999 491 l -16 491 l -16 610 l 999 610 l 999 491 m 432 233 l -16 233 l -16 352 l 999 352 l 999 233 l 551 233 l 551 -421 l 432 -421 l 432 233 z "},"╥":{"ha":984,"x_min":-16,"x_max":999,"o":"m 303 -421 l 304 362 l -16 362 l -16 481 l 999 481 l 999 362 l 680 362 l 680 -421 l 561 -421 l 561 352 l 422 352 l 422 -421 l 303 -421 z "},"╦":{"ha":984,"x_min":-16,"x_max":999,"o":"m 999 491 l -16 491 l -16 610 l 999 610 l 999 491 m 303 233 l -16 233 l -16 352 l 422 352 l 422 -421 l 303 -421 l 303 233 m 561 -421 l 561 352 l 999 352 l 999 233 l 680 233 l 680 -421 l 561 -421 z "},"╧":{"ha":984,"x_min":-16,"x_max":999,"o":"m 999 491 l -16 491 l -16 610 l 432 610 l 432 1264 l 551 1264 l 551 610 l 999 610 l 999 491 m 999 233 l -16 233 l -16 352 l 999 352 l 999 233 z "},"╨":{"ha":984,"x_min":-16,"x_max":999,"o":"m 999 362 l -16 362 l -16 481 l 303 481 l 303 1264 l 422 1264 l 422 481 l 561 481 l 561 1264 l 680 1264 l 680 481 l 999 481 l 999 362 z "},"╩":{"ha":984,"x_min":-16,"x_max":999,"o":"m 422 491 l -16 491 l -16 610 l 303 610 l 303 1264 l 422 1264 l 422 491 m 999 491 l 561 491 l 561 1264 l 680 1264 l 680 610 l 999 610 l 999 491 m 999 233 l -16 233 l -16 352 l 999 352 l 999 233 z "},"╪":{"ha":984,"x_min":-16,"x_max":999,"o":"m 432 233 l -16 233 l -16 352 l 432 352 l 432 491 l -16 491 l -16 610 l 432 610 l 432 1264 l 551 1264 l 551 610 l 999 610 l 999 491 l 551 491 l 551 352 l 999 352 l 999 233 l 551 233 l 551 -421 l 432 -421 l 432 233 z "},"╫":{"ha":984,"x_min":-16,"x_max":999,"o":"m 303 -421 l 304 362 l -16 362 l -16 481 l 303 481 l 303 1264 l 422 1264 l 422 481 l 561 481 l 561 1264 l 680 1264 l 680 481 l 999 481 l 999 362 l 680 362 l 680 -421 l 561 -421 l 561 362 l 422 362 l 422 -421 l 303 -421 z "},"╬":{"ha":984,"x_min":-16,"x_max":999,"o":"m 680 610 l 999 610 l 999 491 l 562 491 l 562 1264 l 680 1264 l 680 610 m 303 610 l 303 1264 l 422 1264 l 422 491 l -16 491 l -16 610 l 303 610 m 303 233 l -16 233 l -16 352 l 422 352 l 422 -421 l 303 -421 l 303 233 m 680 233 l 680 -421 l 562 -421 l 562 352 l 999 352 l 999 233 l 680 233 z "},"▀":{"ha":984,"x_min":-16,"x_max":999,"o":"m 999 421 l -16 421 l -16 1264 l 999 1264 l 999 421 z "},"▄":{"ha":984,"x_min":-16,"x_max":999,"o":"m 999 -421 l -16 -421 l -16 421 l 999 421 l 999 -421 z "},"█":{"ha":984,"x_min":-16,"x_max":999,"o":"m -16 -421 l -16 1264 l 999 1264 l 999 -421 l -16 -421 z "},"▌":{"ha":984,"x_min":-16,"x_max":492,"o":"m -16 -421 l -16 1264 l 492 1264 l 492 -421 l -16 -421 z "},"▐":{"ha":984,"x_min":492,"x_max":1000,"o":"m 492 -421 l 492 1264 l 1000 1264 l 1000 -421 l 492 -421 z "},"░":{"ha":984,"x_min":69,"x_max":999,"o":"m 69 1264 l 154 1264 l 154 1179 l 69 1179 l 69 1264 m 407 1264 l 492 1264 l 492 1179 l 407 1179 l 407 1264 m 745 1264 l 830 1264 l 830 1179 l 745 1179 l 745 1264 m 238 1095 l 323 1095 l 323 1010 l 238 1010 l 238 1095 m 576 1095 l 661 1095 l 661 1010 l 576 1010 l 576 1095 m 914 1095 l 999 1095 l 999 1010 l 914 1010 l 914 1095 m 745 926 l 830 926 l 830 842 l 745 842 l 745 926 m 407 926 l 492 926 l 492 842 l 407 842 l 407 926 m 69 926 l 154 926 l 154 842 l 69 842 l 69 926 m 914 757 l 999 757 l 999 673 l 914 673 l 914 757 m 576 757 l 661 757 l 661 673 l 576 673 l 576 757 m 238 757 l 323 757 l 323 673 l 238 673 l 238 757 m 69 588 l 154 588 l 154 503 l 69 503 l 69 588 m 407 588 l 492 588 l 492 503 l 407 503 l 407 588 m 745 588 l 830 588 l 830 503 l 745 503 l 745 588 m 914 419 l 999 419 l 999 334 l 914 334 l 914 419 m 576 419 l 661 419 l 661 334 l 576 334 l 576 419 m 238 419 l 323 419 l 323 334 l 238 334 l 238 419 m 69 250 l 154 250 l 154 165 l 69 165 l 69 250 m 407 250 l 492 250 l 492 165 l 407 165 l 407 250 m 745 250 l 830 250 l 830 165 l 745 165 l 745 250 m 238 81 l 323 81 l 323 -3 l 238 -3 l 238 81 m 576 81 l 661 81 l 661 -3 l 576 -3 l 576 81 m 914 81 l 999 81 l 999 -3 l 914 -3 l 914 81 m 745 -88 l 830 -88 l 830 -173 l 745 -173 l 745 -88 m 407 -88 l 492 -88 l 492 -173 l 407 -173 l 407 -88 m 69 -88 l 154 -88 l 154 -173 l 69 -173 l 69 -88 m 238 -257 l 323 -257 l 323 -342 l 238 -342 l 238 -257 m 576 -257 l 661 -257 l 661 -342 l 576 -342 l 576 -257 m 914 -257 l 999 -257 l 999 -342 l 914 -342 l 914 -257 z "},"▒":{"ha":984,"x_min":-15,"x_max":999,"o":"m 70 1264 l 154 1264 l 154 1179 l 70 1179 l 70 1264 m 239 1264 l 323 1264 l 323 1179 l 239 1179 l 239 1264 m 408 1264 l 492 1264 l 492 1179 l 408 1179 l 408 1264 m 576 1264 l 661 1264 l 661 1179 l 576 1179 l 576 1264 m 746 1264 l 830 1264 l 830 1179 l 746 1179 l 746 1264 m 915 1264 l 999 1264 l 999 1179 l 915 1179 l 915 1264 m -15 1095 l 70 1095 l 70 1010 l -15 1010 l -15 1095 m 154 1095 l 239 1095 l 239 1010 l 154 1010 l 154 1095 m 323 1095 l 408 1095 l 408 1010 l 323 1010 l 323 1095 m 492 1095 l 576 1095 l 576 1010 l 492 1010 l 492 1095 m 661 1095 l 746 1095 l 746 1010 l 661 1010 l 661 1095 m 830 1095 l 915 1095 l 915 1010 l 830 1010 l 830 1095 m 70 926 l 154 926 l 154 842 l 70 842 l 70 926 m 239 926 l 323 926 l 323 842 l 239 842 l 239 926 m 408 926 l 492 926 l 492 842 l 408 842 l 408 926 m 576 926 l 661 926 l 661 842 l 576 842 l 576 926 m 746 926 l 830 926 l 830 842 l 746 842 l 746 926 m 915 926 l 999 926 l 999 842 l 915 842 l 915 926 m 154 757 l 239 757 l 239 673 l 154 673 l 154 757 m 323 757 l 408 757 l 408 673 l 323 673 l 323 757 m 492 757 l 576 757 l 576 673 l 492 673 l 492 757 m 661 757 l 746 757 l 746 673 l 661 673 l 661 757 m 830 757 l 915 757 l 915 673 l 830 673 l 830 757 m -15 757 l 70 757 l 70 673 l -15 673 l -15 757 m 70 588 l 154 588 l 154 503 l 70 503 l 70 588 m 239 588 l 323 588 l 323 503 l 239 503 l 239 588 m 408 588 l 492 588 l 492 503 l 408 503 l 408 588 m 576 588 l 661 588 l 661 503 l 576 503 l 576 588 m 746 588 l 830 588 l 830 503 l 746 503 l 746 588 m 915 588 l 999 588 l 999 503 l 915 503 l 915 588 m -15 419 l 70 419 l 70 334 l -15 334 l -15 419 m 323 419 l 408 419 l 408 334 l 323 334 l 323 419 m 492 419 l 576 419 l 576 334 l 492 334 l 492 419 m 661 419 l 746 419 l 746 334 l 661 334 l 661 419 m 830 419 l 915 419 l 915 334 l 830 334 l 830 419 m 154 419 l 239 419 l 239 334 l 154 334 l 154 419 m 915 250 l 999 250 l 999 165 l 915 165 l 915 250 m 746 250 l 830 250 l 830 165 l 746 165 l 746 250 m 576 250 l 661 250 l 661 165 l 576 165 l 576 250 m 408 250 l 492 250 l 492 165 l 408 165 l 408 250 m 239 250 l 323 250 l 323 165 l 239 165 l 239 250 m 70 250 l 154 250 l 154 165 l 70 165 l 70 250 m -15 81 l 70 81 l 70 -3 l -15 -3 l -15 81 m 154 81 l 239 81 l 239 -3 l 154 -3 l 154 81 m 323 81 l 408 81 l 408 -3 l 323 -3 l 323 81 m 492 81 l 576 81 l 576 -3 l 492 -3 l 492 81 m 661 81 l 746 81 l 746 -3 l 661 -3 l 661 81 m 830 81 l 915 81 l 915 -3 l 830 -3 l 830 81 m 915 -88 l 999 -88 l 999 -173 l 915 -173 l 915 -88 m 746 -88 l 830 -88 l 830 -173 l 746 -173 l 746 -88 m 576 -88 l 661 -88 l 661 -173 l 576 -173 l 576 -88 m 408 -88 l 492 -88 l 492 -173 l 408 -173 l 408 -88 m 239 -88 l 323 -88 l 323 -173 l 239 -173 l 239 -88 m 70 -88 l 154 -88 l 154 -173 l 70 -173 l 70 -88 m -15 -257 l 70 -257 l 70 -342 l -15 -342 l -15 -257 m 154 -257 l 239 -257 l 239 -342 l 154 -342 l 154 -257 m 323 -257 l 408 -257 l 408 -342 l 323 -342 l 323 -257 m 492 -257 l 576 -257 l 576 -342 l 492 -342 l 492 -257 m 661 -257 l 746 -257 l 746 -342 l 661 -342 l 661 -257 m 830 -257 l 915 -257 l 915 -342 l 830 -342 l 830 -257 z "},"▓":{"ha":1013,"x_min":-1,"x_max":1013,"o":"m 1013 1010 l 1013 757 l 929 757 l 929 673 l 1013 673 l 1013 419 l 929 419 l 929 334 l 1013 334 l 1013 81 l 929 81 l 929 -3 l 1013 -3 l 1013 -257 l 929 -257 l 929 -342 l 1013 -342 l 1013 -426 l -1 -426 l -1 -173 l 84 -173 l 84 -88 l -1 -88 l -1 165 l 84 165 l 84 250 l -1 250 l -1 503 l 84 503 l 84 588 l -1 588 l -1 842 l 84 842 l 84 926 l -1 926 l -1 1179 l 84 1179 l 84 1264 l 168 1264 l 168 1179 l 253 1179 l 253 1264 l 337 1264 l 337 1179 l 422 1179 l 422 1264 l 507 1264 l 507 1179 l 591 1179 l 591 1264 l 675 1264 l 675 1179 l 760 1179 l 760 1264 l 844 1264 l 844 1179 l 929 1179 l 929 1264 l 1013 1264 l 1013 1095 l 929 1095 l 929 1010 l 1013 1010 m 84 1095 l 84 1010 l 168 1010 l 168 1095 l 84 1095 m 253 1095 l 253 1010 l 337 1010 l 337 1095 l 253 1095 m 422 1095 l 422 1010 l 507 1010 l 507 1095 l 422 1095 m 591 1095 l 591 1010 l 675 1010 l 675 1095 l 591 1095 m 760 1095 l 760 1010 l 844 1010 l 844 1095 l 760 1095 m 929 926 l 844 926 l 844 842 l 929 842 l 929 926 m 760 926 l 675 926 l 675 842 l 760 842 l 760 926 m 591 926 l 507 926 l 507 842 l 591 842 l 591 926 m 422 926 l 337 926 l 337 842 l 422 842 l 422 926 m 253 926 l 168 926 l 168 842 l 253 842 l 253 926 m 84 757 l 84 673 l 168 673 l 168 757 l 84 757 m 253 757 l 253 673 l 337 673 l 337 757 l 253 757 m 422 757 l 422 673 l 507 673 l 507 757 l 422 757 m 591 757 l 591 673 l 675 673 l 675 757 l 591 757 m 760 757 l 760 673 l 844 673 l 844 757 l 760 757 m 253 588 l 168 588 l 168 503 l 253 503 l 253 588 m 337 588 l 337 503 l 422 503 l 422 588 l 337 588 m 507 588 l 507 503 l 591 503 l 591 588 l 507 588 m 675 588 l 675 503 l 760 503 l 760 588 l 675 588 m 844 588 l 844 503 l 929 503 l 929 588 l 844 588 m 84 419 l 84 334 l 168 334 l 168 419 l 84 419 m 422 419 l 422 334 l 507 334 l 507 419 l 422 419 m 337 334 l 337 419 l 253 419 l 253 334 l 337 334 m 591 419 l 591 334 l 675 334 l 675 419 l 591 419 m 760 419 l 760 334 l 844 334 l 844 419 l 760 419 m 929 165 l 929 250 l 844 250 l 844 165 l 929 165 m 760 165 l 760 250 l 675 250 l 675 165 l 760 165 m 591 165 l 591 250 l 507 250 l 507 165 l 591 165 m 422 165 l 422 250 l 337 250 l 337 165 l 422 165 m 253 165 l 253 250 l 168 250 l 168 165 l 253 165 m 84 81 l 84 -3 l 168 -3 l 168 81 l 84 81 m 253 81 l 253 -3 l 337 -3 l 337 81 l 253 81 m 422 81 l 422 -3 l 507 -3 l 507 81 l 422 81 m 591 81 l 591 -3 l 675 -3 l 675 81 l 591 81 m 760 81 l 760 -3 l 844 -3 l 844 81 l 760 81 m 929 -173 l 929 -88 l 844 -88 l 844 -173 l 929 -173 m 760 -173 l 760 -88 l 675 -88 l 675 -173 l 760 -173 m 591 -173 l 591 -88 l 507 -88 l 507 -173 l 591 -173 m 422 -173 l 422 -88 l 337 -88 l 337 -173 l 422 -173 m 253 -173 l 253 -88 l 168 -88 l 168 -173 l 253 -173 m 84 -257 l 84 -342 l 168 -342 l 168 -257 l 84 -257 m 253 -257 l 253 -342 l 337 -342 l 337 -257 l 253 -257 m 422 -257 l 422 -342 l 507 -342 l 507 -257 l 422 -257 m 591 -257 l 591 -342 l 675 -342 l 675 -257 l 591 -257 m 760 -257 l 760 -342 l 844 -342 l 844 -257 l 760 -257 z "},"■":{"ha":839,"x_min":99,"x_max":739,"o":"m 99 640 l 739 640 l 739 0 l 99 0 l 99 640 z "},"▬":{"ha":1389,"x_min":0,"x_max":1388,"o":"m 0 477 l 1388 477 l 1388 215 l 0 215 l 0 477 z "},"▲":{"ha":1375,"x_min":206,"x_max":1169,"o":"m 206 0 l 688 962 l 1169 0 l 206 0 z "},"►":{"ha":1375,"x_min":195,"x_max":1179,"o":"m 195 961 l 1179 470 l 195 -21 l 195 961 z "},"▼":{"ha":1375,"x_min":206,"x_max":1169,"o":"m 1169 941 l 688 -21 l 206 941 l 1169 941 z "},"◄":{"ha":1375,"x_min":195,"x_max":1179,"o":"m 1179 961 l 1179 -21 l 195 470 l 1179 961 z "},"○":{"ha":839,"x_min":121,"x_max":718,"o":"m 420 690 q 566 652 494 690 q 678 541 638 613 q 718 392 718 469 q 631 180 718 268 q 420 93 543 93 q 208 180 296 93 q 121 392 121 268 q 161 542 121 470 q 273 652 201 613 q 420 690 345 690 m 420 639 q 298 607 357 639 q 205 515 239 575 q 172 392 172 456 q 245 217 172 290 q 420 144 317 144 q 594 217 522 144 q 667 392 667 290 q 633 515 667 456 q 541 607 600 575 q 420 639 482 639 z "},"◘":{"ha":839,"x_min":87,"x_max":751,"o":"m 87 0 l 87 665 l 751 665 l 751 0 l 87 0 m 419 469 q 322 429 362 469 q 282 332 282 389 q 322 236 282 276 q 419 195 363 195 q 516 236 476 195 q 556 332 556 276 q 516 429 556 389 q 419 469 476 469 z "},"◙":{"ha":839,"x_min":28,"x_max":812,"o":"m 28 0 l 28 783 l 812 783 l 812 0 l 28 0 m 420 690 q 273 652 345 690 q 161 541 201 613 q 121 391 121 469 q 209 180 121 268 q 420 93 296 93 q 631 180 544 93 q 719 391 719 268 q 679 541 719 469 q 567 652 639 613 q 420 690 496 690 m 420 639 q 542 607 482 639 q 634 516 601 575 q 667 391 667 456 q 595 217 667 289 q 420 144 523 144 q 245 217 317 144 q 173 391 173 289 q 206 516 173 456 q 299 607 239 575 q 420 639 358 639 z "},"☺":{"ha":1418,"x_min":277,"x_max":1142,"o":"m 709 784 q 922 728 818 784 q 1084 568 1025 672 q 1142 351 1142 464 q 1085 137 1142 239 q 924 -23 1027 34 q 709 -81 821 -81 q 494 -23 597 -81 q 334 137 391 34 q 277 351 277 239 q 335 568 277 464 q 496 728 393 672 q 709 784 600 784 m 709 721 q 528 673 616 721 q 390 536 439 625 q 340 351 340 448 q 389 168 340 256 q 526 31 437 80 q 709 -18 614 -18 q 893 31 805 -18 q 1030 168 981 80 q 1079 351 1079 256 q 1029 536 1079 448 q 891 673 979 625 q 709 721 802 721 m 543 496 q 582 480 566 496 q 598 441 598 464 q 582 402 598 418 q 543 386 566 386 q 505 402 521 386 q 488 441 488 418 q 505 480 488 464 q 543 496 521 496 m 875 496 q 914 480 898 496 q 930 441 930 464 q 914 402 930 418 q 875 386 898 386 q 836 402 852 386 q 820 441 820 418 q 836 480 820 464 q 875 496 852 496 m 510 212 l 552 237 q 709 139 606 139 q 866 237 813 139 l 909 212 q 825 114 875 148 q 709 80 775 80 q 593 114 643 80 q 510 212 544 148 z "},"☻":{"ha":1461,"x_min":298,"x_max":1164,"o":"m 731 784 q 943 728 840 784 q 1105 568 1047 672 q 1164 351 1164 464 q 1106 137 1164 239 q 946 -23 1049 34 q 731 -81 843 -81 q 516 -23 618 -81 q 356 137 413 34 q 298 351 298 239 q 356 568 298 464 q 518 728 414 672 q 731 784 622 784 m 565 496 q 526 480 543 496 q 510 441 510 464 q 526 402 510 418 q 565 386 543 386 q 604 402 588 386 q 620 441 620 418 q 604 480 620 464 q 565 496 588 496 m 897 496 q 858 480 873 496 q 842 441 842 464 q 858 402 842 418 q 897 386 874 386 q 936 402 920 386 q 951 441 951 418 q 936 480 951 464 q 897 496 920 496 m 532 212 q 615 114 566 148 q 731 80 665 80 q 847 114 797 80 q 930 212 897 148 l 888 237 q 731 139 835 139 q 574 237 627 139 l 532 212 z "},"☼":{"ha":1273,"x_min":11,"x_max":1263,"o":"m 612 1099 l 663 1099 l 663 871 q 786 845 732 866 q 900 775 840 823 l 1097 968 l 1132 932 l 938 738 q 1008 623 987 673 q 1035 495 1034 558 l 1263 495 l 1263 448 l 1036 448 q 939 213 1023 320 l 1132 16 l 1093 -18 l 901 173 q 785 105 835 124 q 663 77 736 85 l 663 -151 l 612 -151 l 612 77 q 484 109 536 87 q 378 171 432 130 l 178 -18 l 144 17 l 337 211 q 269 323 292 268 q 239 451 246 379 l 11 451 l 11 498 l 239 498 q 267 624 245 570 q 336 734 290 677 l 144 929 l 176 968 l 374 777 q 496 845 443 824 q 612 871 549 865 l 612 1099 m 635 821 q 465 777 548 821 q 335 648 381 732 q 288 474 288 564 q 334 301 288 384 q 463 172 380 218 q 635 126 545 126 q 808 172 726 126 q 937 301 891 218 q 983 474 983 384 q 937 648 983 564 q 806 777 890 732 q 635 821 723 821 z "},"♀":{"ha":1042,"x_min":165,"x_max":876,"o":"m 540 313 l 540 40 l 851 40 l 851 0 l 540 0 l 540 -298 l 500 -298 l 500 0 l 188 0 l 188 40 l 500 40 l 500 313 q 347 357 430 313 q 215 487 264 401 q 165 667 165 572 q 213 844 165 759 q 344 975 260 928 q 521 1022 428 1022 q 697 975 613 1022 q 829 843 782 928 q 876 667 876 759 q 778 422 876 525 q 540 313 681 319 m 520 984 q 364 943 440 984 q 245 825 288 902 q 202 666 202 749 q 295 440 202 534 q 520 347 389 347 q 746 440 652 347 q 839 666 839 534 q 796 825 839 749 q 677 943 753 902 q 520 984 601 984 z "},"♂":{"ha":1042,"x_min":75,"x_max":960,"o":"m 825 1099 l 849 1088 l 960 636 l 921 626 l 825 1020 l 582 499 q 734 362 682 448 q 785 178 785 276 q 739 1 785 85 q 607 -131 692 -83 q 430 -178 523 -178 q 253 -131 338 -178 q 122 1 169 -83 q 75 178 75 85 q 179 429 75 325 q 432 532 283 532 q 545 514 485 532 l 789 1037 l 425 857 l 408 893 l 825 1099 m 430 496 q 274 455 350 496 q 155 337 197 414 q 112 178 112 260 q 205 -48 112 45 q 430 -141 298 -141 q 655 -48 562 -141 q 749 178 749 45 q 706 337 749 260 q 587 455 663 414 q 430 496 511 496 z "},"♠":{"ha":738,"x_min":39,"x_max":699,"o":"m 370 835 q 424 704 387 762 q 554 561 460 646 q 673 430 648 476 q 699 338 699 385 q 655 230 699 273 q 551 186 612 186 q 446 225 495 186 q 378 315 410 254 q 404 157 378 216 q 485 65 429 98 q 633 25 541 31 l 638 0 l 101 0 l 106 25 q 299 98 231 25 q 366 315 368 171 q 290 219 335 251 q 189 186 245 186 q 83 231 127 186 q 39 335 39 275 q 61 425 39 385 q 160 538 92 481 q 262 631 229 594 q 335 731 312 687 q 370 835 357 775 z "},"♣":{"ha":911,"x_min":37,"x_max":873,"o":"m 745 0 l 170 0 l 175 23 q 323 70 287 47 q 413 172 378 104 q 448 315 448 240 q 448 347 448 326 q 347 224 406 262 q 226 185 288 185 q 92 240 147 185 q 37 375 37 295 q 87 508 37 454 q 201 562 138 562 q 312 527 242 562 q 275 598 283 574 q 267 650 267 623 q 320 782 267 728 q 454 835 374 835 q 588 782 534 835 q 643 653 643 728 q 596 527 643 593 q 665 557 653 554 q 706 563 683 563 q 824 510 774 563 q 873 378 873 456 q 819 241 873 296 q 688 186 764 186 q 601 207 646 186 q 522 262 555 227 q 463 347 498 287 q 495 176 465 239 q 588 72 526 113 q 739 23 630 44 l 745 0 z "},"♥":{"ha":825,"x_min":43,"x_max":782,"o":"m 414 -16 q 354 134 393 64 q 203 352 315 204 q 102 490 121 460 q 57 577 71 537 q 43 657 43 616 q 93 783 43 732 q 218 834 143 834 q 347 781 292 834 q 414 664 388 742 q 476 780 435 740 q 606 835 532 835 q 731 785 680 835 q 782 665 782 734 q 752 538 782 604 q 637 363 723 472 q 475 133 526 223 q 414 -16 435 62 z "},"♦":{"ha":709,"x_min":43,"x_max":666,"o":"m 353 835 q 502 615 414 732 q 666 410 604 479 q 502 205 616 357 q 354 -16 410 81 q 304 66 336 19 q 168 255 249 147 q 43 410 150 279 q 220 632 112 488 q 353 835 300 739 z "},"♪":{"ha":694,"x_min":25,"x_max":669,"o":"m 330 924 l 355 924 q 509 915 472 924 q 604 863 563 901 q 652 782 634 834 q 669 661 669 730 l 669 591 l 602 591 l 602 621 q 583 699 602 667 q 526 748 564 731 q 416 770 476 770 l 397 770 l 397 203 q 375 76 397 121 q 300 2 353 30 q 185 -25 248 -25 q 68 17 111 -25 q 25 126 25 58 q 77 246 25 197 q 212 294 128 294 q 330 263 264 294 l 330 924 z "},"♫":{"ha":1042,"x_min":58,"x_max":902,"o":"m 362 862 l 902 1030 l 902 279 q 881 152 902 195 q 808 81 859 109 q 692 54 757 54 q 574 96 618 54 q 530 205 530 138 q 583 322 530 273 q 718 372 635 372 q 765 367 745 372 q 833 342 786 362 l 833 833 l 429 708 l 429 141 q 408 13 429 59 q 333 -60 386 -33 q 218 -87 280 -87 q 101 -45 144 -87 q 58 64 58 -3 q 109 183 58 135 q 244 232 161 232 q 362 201 297 232 l 362 862 z "},"Ĳ":{"ha":984,"x_min":35,"x_max":980,"o":"m 429 25 l 429 0 l 35 0 l 35 25 l 67 25 q 150 58 124 25 q 166 163 166 80 l 166 757 q 157 849 166 827 q 130 878 151 866 q 67 895 100 895 l 35 895 l 35 920 l 429 920 l 429 895 l 395 895 q 313 861 339 895 q 296 757 296 840 l 296 163 q 305 71 296 93 q 334 41 312 54 q 395 25 363 25 l 429 25 m 586 895 l 586 920 l 980 920 l 980 895 l 947 895 q 865 861 890 895 q 848 757 848 840 l 848 307 q 826 139 848 203 q 747 27 803 75 q 613 -21 692 -21 q 513 11 549 -21 q 476 83 476 42 q 493 133 476 116 q 545 154 515 154 q 584 140 567 154 q 628 64 602 125 q 668 27 644 27 q 702 50 686 27 q 718 129 718 72 l 718 757 q 709 849 718 827 q 681 878 703 866 q 619 895 652 895 l 586 895 z "},"ĳ":{"ha":767,"x_min":41,"x_max":656,"o":"m 201 964 q 250 944 230 964 q 270 896 270 924 q 250 847 270 867 q 201 827 230 827 q 153 847 173 827 q 132 896 132 867 q 152 944 132 924 q 201 964 172 964 m 258 640 l 258 140 q 266 63 258 82 q 291 34 275 43 q 352 24 308 24 l 352 0 l 50 0 l 50 24 q 111 33 96 24 q 136 62 127 42 q 145 140 145 83 l 145 380 q 139 511 145 481 q 124 541 134 532 q 96 549 114 549 q 50 539 77 549 l 41 564 l 228 640 l 258 640 m 586 965 q 635 945 615 965 q 656 895 656 924 q 635 846 656 867 q 586 826 615 826 q 537 846 557 826 q 517 895 517 867 q 537 945 517 924 q 586 965 557 965 m 644 640 l 644 14 q 576 -222 644 -145 q 400 -300 509 -300 q 309 -277 338 -300 q 279 -231 279 -255 q 295 -191 279 -208 q 334 -174 312 -174 q 370 -182 352 -174 q 415 -217 382 -187 q 470 -246 448 -246 q 502 -234 486 -246 q 525 -192 517 -221 q 532 -64 532 -162 l 532 378 q 526 510 532 481 q 511 541 522 532 q 484 549 501 549 q 437 539 465 549 l 428 564 l 615 640 l 644 640 z "},"ŉ":{"ha":839,"x_min":2,"x_max":834,"o":"m 33 589 l 33 621 q 127 699 102 663 q 145 760 145 724 q 138 791 145 781 q 120 802 130 802 q 100 797 113 802 q 71 791 83 791 q 23 811 44 791 q 2 862 2 831 q 23 915 2 896 q 91 941 52 941 q 173 902 136 941 q 209 807 209 864 q 149 661 209 727 q 33 589 109 618 m 370 508 q 578 640 479 640 q 666 614 629 640 q 724 530 703 589 q 739 406 739 490 l 739 140 q 749 60 739 81 q 773 34 756 43 q 834 24 789 24 l 834 0 l 527 0 l 527 24 l 540 24 q 601 38 583 24 q 625 77 618 51 q 627 140 627 87 l 627 395 q 605 518 627 479 q 531 556 583 556 q 370 468 450 556 l 370 140 q 378 62 370 77 q 404 34 387 43 q 471 24 420 24 l 471 0 l 164 0 l 164 24 l 178 24 q 242 48 225 24 q 258 140 258 73 l 258 371 q 253 507 258 483 q 238 541 248 532 q 210 549 227 549 q 164 539 191 549 l 154 564 l 341 640 l 370 640 l 370 508 z "},"′":{"ha":304,"x_min":93,"x_max":273,"o":"m 93 545 l 114 745 q 132 861 123 831 q 168 922 144 903 q 220 941 191 941 q 259 927 245 941 q 273 892 273 913 q 267 859 273 877 q 216 745 258 832 l 123 545 l 93 545 z "},"″":{"ha":578,"x_min":110,"x_max":522,"o":"m 110 545 l 131 745 q 149 861 140 831 q 185 922 161 903 q 237 941 208 941 q 276 927 262 941 q 290 892 290 913 q 283 859 290 877 q 233 745 275 832 l 140 545 l 110 545 m 342 545 l 363 745 q 380 861 372 831 q 417 922 393 903 q 469 941 440 941 q 508 927 494 941 q 522 892 522 913 q 515 859 522 877 q 465 745 507 832 l 372 545 l 342 545 z "},"℅":{"ha":1158,"x_min":35,"x_max":1122,"o":"m 429 637 q 355 496 410 546 q 233 446 300 446 q 95 513 154 446 q 35 693 35 580 q 101 872 35 803 q 258 941 166 941 q 371 904 327 941 q 415 829 415 867 q 402 798 415 810 q 368 785 390 785 q 328 799 342 785 q 311 844 314 812 q 291 891 309 876 q 241 907 273 907 q 159 869 190 907 q 118 736 118 819 q 170 574 118 637 q 270 526 210 526 q 359 559 319 526 q 414 645 387 583 l 429 637 m 912 941 l 241 -38 l 182 -38 l 852 941 l 912 941 m 897 481 q 1057 413 991 481 q 1122 242 1122 345 q 1092 115 1122 179 q 1008 18 1061 51 q 891 -14 956 -14 q 735 55 800 -14 q 671 229 671 123 q 735 405 671 328 q 897 481 798 481 m 881 447 q 808 416 838 447 q 766 271 766 372 q 821 73 766 146 q 913 22 859 22 q 995 63 962 22 q 1027 203 1027 104 q 973 398 1027 327 q 881 447 937 447 z "},"ℓ":{"ha":665,"x_min":68,"x_max":606,"o":"m 68 216 l 197 347 l 197 673 q 253 874 197 808 q 391 941 309 941 q 489 905 453 941 q 525 808 525 869 q 482 659 525 742 q 303 423 439 576 l 303 201 q 335 60 303 99 q 418 21 367 21 q 507 59 465 21 q 582 196 549 97 l 606 196 q 512 27 578 87 q 389 -19 462 -19 q 282 14 329 -19 q 214 101 235 46 q 197 244 197 142 l 197 311 l 84 200 l 68 216 m 303 461 q 488 784 488 665 q 461 871 488 840 q 396 903 435 903 q 330 865 357 903 q 303 719 303 827 l 303 461 z "},"□":{"ha":839,"x_min":99,"x_max":739,"o":"m 99 640 l 739 640 l 739 0 l 99 0 l 99 640 m 151 589 l 151 52 l 688 52 l 688 589 l 151 589 z "},"▪":{"ha":492,"x_min":89,"x_max":403,"o":"m 403 616 l 403 302 l 89 302 l 89 616 l 403 616 z "},"▫":{"ha":492,"x_min":89,"x_max":403,"o":"m 403 616 l 403 302 l 89 302 l 89 616 l 403 616 m 351 565 l 140 564 l 140 353 l 351 353 l 351 565 z "},"●":{"ha":839,"x_min":121,"x_max":718,"o":"m 420 690 q 566 652 494 690 q 678 541 638 613 q 718 392 718 469 q 631 180 718 268 q 420 93 543 93 q 208 180 296 93 q 121 392 121 268 q 161 542 121 470 q 273 652 201 613 q 420 690 345 690 z "},"◦":{"ha":492,"x_min":76,"x_max":416,"o":"m 246 629 q 367 579 317 629 q 416 459 416 530 q 367 339 416 389 q 246 289 317 289 q 126 339 176 289 q 76 459 76 389 q 125 579 76 530 q 246 629 175 629 m 246 578 q 162 543 197 578 q 127 459 127 508 q 162 375 127 410 q 246 340 197 340 q 330 375 295 340 q 365 459 365 410 q 330 543 365 508 q 246 578 296 578 z "},"Ā":{"ha":1003,"x_min":11,"x_max":987,"o":"m 635 308 l 279 308 l 217 163 q 194 83 194 109 q 214 46 194 62 q 300 25 234 30 l 300 0 l 11 0 l 11 25 q 85 52 68 35 q 162 184 120 84 l 486 941 l 509 941 l 829 176 q 900 56 868 83 q 987 25 931 28 l 987 0 l 625 0 l 625 25 q 699 43 680 28 q 718 81 718 59 q 691 176 718 111 l 635 308 m 616 358 l 460 730 l 300 358 l 616 358 m 281 1109 l 714 1109 l 714 1023 l 281 1023 l 281 1109 z "},"ā":{"ha":616,"x_min":50,"x_max":614,"o":"m 395 90 q 275 4 300 16 q 197 -13 239 -13 q 91 31 133 -13 q 50 147 50 75 q 70 226 50 193 q 166 313 98 272 q 395 412 235 353 l 395 436 q 366 564 395 529 q 280 598 336 598 q 212 575 237 598 q 186 522 186 552 l 188 483 q 172 435 188 452 q 130 418 156 418 q 89 435 105 418 q 73 484 73 453 q 133 591 73 542 q 300 640 193 640 q 436 612 383 640 q 495 546 476 591 q 507 427 507 517 l 507 216 q 511 107 507 127 q 522 80 514 87 q 540 73 530 73 q 559 78 551 73 q 614 127 573 87 l 614 90 q 469 -12 538 -12 q 416 11 435 -12 q 395 90 396 34 m 395 134 l 395 370 q 263 313 293 330 q 186 250 210 283 q 163 179 163 218 q 193 98 163 130 q 260 66 222 66 q 395 134 311 66 m 93 846 l 526 846 l 526 759 l 93 759 l 93 846 z "},"Ĉ":{"ha":926,"x_min":50,"x_max":878,"o":"m 836 941 l 857 628 l 836 628 q 716 830 794 768 q 529 892 638 892 q 363 845 437 892 q 247 697 290 799 q 205 444 205 595 q 245 228 205 319 q 365 87 285 136 q 549 39 446 39 q 707 77 638 39 q 857 229 775 115 l 878 216 q 717 36 809 93 q 498 -21 625 -21 q 144 149 269 -21 q 50 446 50 275 q 112 699 50 583 q 282 877 174 814 q 518 941 390 941 q 715 892 618 941 q 755 877 743 877 q 787 890 774 877 q 812 941 805 908 l 836 941 m 422 1236 l 547 1236 l 676 1011 l 655 1011 l 470 1156 l 315 1011 l 294 1011 l 422 1236 z "},"ĉ":{"ha":616,"x_min":47,"x_max":571,"o":"m 571 236 q 473 47 546 113 q 311 -19 399 -19 q 126 70 205 -19 q 47 310 47 159 q 135 548 47 456 q 344 640 222 640 q 494 591 435 640 q 553 490 553 543 q 537 449 553 465 q 490 433 520 433 q 430 458 450 433 q 415 513 418 473 q 387 574 411 553 q 321 594 363 594 q 212 544 254 594 q 157 368 157 477 q 212 172 157 257 q 359 87 267 87 q 479 132 426 87 q 551 245 516 163 l 571 236 m 246 939 l 371 939 l 500 715 l 479 715 l 294 859 l 138 715 l 118 715 l 246 939 z "},"Ċ":{"ha":926,"x_min":50,"x_max":878,"o":"m 836 941 l 857 628 l 836 628 q 716 830 794 768 q 529 892 638 892 q 363 845 437 892 q 247 697 290 799 q 205 444 205 595 q 245 228 205 319 q 365 87 285 136 q 549 39 446 39 q 707 77 638 39 q 857 229 775 115 l 878 216 q 717 36 809 93 q 498 -21 625 -21 q 144 149 269 -21 q 50 446 50 275 q 112 699 50 583 q 282 877 174 814 q 518 941 390 941 q 715 892 618 941 q 755 877 743 877 q 787 890 774 877 q 812 941 805 908 l 836 941 m 490 1159 q 543 1137 521 1159 q 564 1085 564 1116 q 543 1033 564 1055 q 490 1011 521 1011 q 438 1033 460 1011 q 416 1085 416 1055 q 438 1137 416 1116 q 490 1159 459 1159 z "},"ċ":{"ha":616,"x_min":47,"x_max":571,"o":"m 571 236 q 473 47 546 113 q 311 -19 399 -19 q 126 70 205 -19 q 47 310 47 159 q 135 548 47 456 q 344 640 222 640 q 494 591 435 640 q 553 490 553 543 q 537 449 553 465 q 490 433 520 433 q 430 458 450 433 q 415 513 418 473 q 387 574 411 553 q 321 594 363 594 q 212 544 254 594 q 157 368 157 477 q 212 172 157 257 q 359 87 267 87 q 479 132 426 87 q 551 245 516 163 l 571 236 m 309 907 q 361 885 340 907 q 383 833 383 863 q 361 781 383 802 q 309 759 340 759 q 257 781 279 759 q 235 833 235 802 q 257 885 235 863 q 309 907 278 907 z "},"Ē":{"ha":848,"x_min":28,"x_max":817,"o":"m 290 869 l 290 506 l 492 506 q 597 530 571 506 q 637 640 633 561 l 662 640 l 662 319 l 637 319 q 618 406 627 387 q 578 443 606 429 q 492 456 550 456 l 290 456 l 290 153 q 296 79 290 92 q 315 58 301 66 q 366 50 328 50 l 522 50 q 635 61 600 50 q 703 104 671 72 q 789 231 745 146 l 817 231 l 737 0 l 28 0 l 28 25 l 61 25 q 123 41 94 25 q 152 73 144 52 q 160 162 160 95 l 160 760 q 142 867 160 847 q 61 895 118 895 l 28 895 l 28 920 l 737 920 l 747 718 l 721 718 q 689 818 707 791 q 638 859 672 845 q 543 869 611 869 l 290 869 m 209 1109 l 642 1109 l 642 1023 l 209 1023 l 209 1109 z "},"ē":{"ha":616,"x_min":52,"x_max":577,"o":"m 148 387 q 215 170 147 249 q 374 92 283 92 q 480 125 435 92 q 556 240 526 159 l 577 227 q 494 57 563 134 q 323 -19 426 -19 q 131 68 211 -19 q 52 302 52 155 q 133 551 52 462 q 338 640 215 640 q 510 571 443 640 q 577 387 577 503 l 148 387 m 148 427 l 435 427 q 421 511 432 486 q 371 570 404 549 q 300 592 337 592 q 200 548 244 592 q 148 427 155 505 m 93 846 l 526 846 l 526 759 l 93 759 l 93 846 z "},"Ĕ":{"ha":848,"x_min":28,"x_max":817,"o":"m 290 869 l 290 506 l 492 506 q 597 530 571 506 q 637 640 633 561 l 662 640 l 662 319 l 637 319 q 618 406 627 387 q 578 443 606 429 q 492 456 550 456 l 290 456 l 290 153 q 296 79 290 92 q 315 58 301 66 q 366 50 328 50 l 522 50 q 635 61 600 50 q 703 104 671 72 q 789 231 745 146 l 817 231 l 737 0 l 28 0 l 28 25 l 61 25 q 123 41 94 25 q 152 73 144 52 q 160 162 160 95 l 160 760 q 142 867 160 847 q 61 895 118 895 l 28 895 l 28 920 l 737 920 l 747 718 l 721 718 q 689 818 707 791 q 638 859 672 845 q 543 869 611 869 l 290 869 m 230 1200 l 251 1200 q 302 1142 273 1159 q 425 1113 351 1113 q 547 1141 499 1113 q 595 1200 582 1161 l 618 1200 q 556 1063 612 1116 q 424 1010 500 1010 q 293 1063 349 1010 q 230 1200 237 1116 z "},"ĕ":{"ha":616,"x_min":52,"x_max":577,"o":"m 148 387 q 215 170 147 249 q 374 92 283 92 q 480 125 435 92 q 556 240 526 159 l 577 227 q 494 57 563 134 q 323 -19 426 -19 q 131 68 211 -19 q 52 302 52 155 q 133 551 52 462 q 338 640 215 640 q 510 571 443 640 q 577 387 577 503 l 148 387 m 148 427 l 435 427 q 421 511 432 486 q 371 570 404 549 q 300 592 337 592 q 200 548 244 592 q 148 427 155 505 m 119 921 l 140 921 q 192 863 163 880 q 315 833 241 833 q 437 862 389 833 q 485 921 471 882 l 507 921 q 445 784 501 837 q 313 731 389 731 q 182 784 238 731 q 119 921 127 836 z "},"Ė":{"ha":848,"x_min":28,"x_max":817,"o":"m 290 869 l 290 506 l 492 506 q 597 530 571 506 q 637 640 633 561 l 662 640 l 662 319 l 637 319 q 618 406 627 387 q 578 443 606 429 q 492 456 550 456 l 290 456 l 290 153 q 296 79 290 92 q 315 58 301 66 q 366 50 328 50 l 522 50 q 635 61 600 50 q 703 104 671 72 q 789 231 745 146 l 817 231 l 737 0 l 28 0 l 28 25 l 61 25 q 123 41 94 25 q 152 73 144 52 q 160 162 160 95 l 160 760 q 142 867 160 847 q 61 895 118 895 l 28 895 l 28 920 l 737 920 l 747 718 l 721 718 q 689 818 707 791 q 638 859 672 845 q 543 869 611 869 l 290 869 m 425 1159 q 477 1137 455 1159 q 498 1085 498 1116 q 477 1033 498 1055 q 425 1011 455 1011 q 372 1033 394 1011 q 351 1085 351 1055 q 372 1137 351 1116 q 425 1159 393 1159 z "},"ė":{"ha":616,"x_min":52,"x_max":577,"o":"m 148 387 q 215 170 147 249 q 374 92 283 92 q 480 125 435 92 q 556 240 526 159 l 577 227 q 494 57 563 134 q 323 -19 426 -19 q 131 68 211 -19 q 52 302 52 155 q 133 551 52 462 q 338 640 215 640 q 510 571 443 640 q 577 387 577 503 l 148 387 m 148 427 l 435 427 q 421 511 432 486 q 371 570 404 549 q 300 592 337 592 q 200 548 244 592 q 148 427 155 505 m 309 907 q 361 885 340 907 q 383 833 383 863 q 361 781 383 802 q 309 759 340 759 q 257 781 279 759 q 235 833 235 802 q 257 885 235 863 q 309 907 278 907 z "},"Ĝ":{"ha":1003,"x_min":49,"x_max":983,"o":"m 852 941 l 876 650 l 852 650 q 760 814 817 759 q 549 893 677 893 q 281 754 373 893 q 205 475 205 637 q 256 235 205 343 q 389 76 307 126 q 558 25 471 25 q 656 38 609 25 q 748 76 704 51 l 748 342 q 738 432 748 411 q 705 465 727 454 q 627 476 683 476 l 627 502 l 983 502 l 983 476 l 966 476 q 894 441 913 476 q 880 342 880 416 l 880 60 q 726 -1 802 18 q 557 -21 650 -21 q 153 150 291 -21 q 49 446 49 278 q 107 678 49 567 q 297 882 176 810 q 536 941 398 941 q 627 932 586 941 q 743 897 668 924 q 794 882 781 882 q 816 894 807 882 q 827 941 825 906 l 852 941 m 459 1236 l 584 1236 l 713 1011 l 692 1011 l 507 1156 l 351 1011 l 331 1011 l 459 1236 z "}}}
